%TF.GenerationSoftware,KiCad,Pcbnew,10.0.0*%
%TF.CreationDate,2026-04-17T11:27:27+07:00*%
%TF.ProjectId,drone,64726f6e-652e-46b6-9963-61645f706362,rev?*%
%TF.SameCoordinates,Original*%
%TF.FileFunction,Legend,Top*%
%TF.FilePolarity,Positive*%
%FSLAX46Y46*%
G04 Gerber Fmt 4.6, Leading zero omitted, Abs format (unit mm)*
G04 Created by KiCad (PCBNEW 10.0.0) date 2026-04-17 11:27:27*
%MOMM*%
%LPD*%
G01*
G04 APERTURE LIST*
%ADD10C,0.150000*%
%ADD11C,0.120000*%
%ADD12C,0.127000*%
%ADD13C,0.200000*%
G04 APERTURE END LIST*
D10*
X197833333Y-71179580D02*
X197785714Y-71227200D01*
X197785714Y-71227200D02*
X197642857Y-71274819D01*
X197642857Y-71274819D02*
X197547619Y-71274819D01*
X197547619Y-71274819D02*
X197404762Y-71227200D01*
X197404762Y-71227200D02*
X197309524Y-71131961D01*
X197309524Y-71131961D02*
X197261905Y-71036723D01*
X197261905Y-71036723D02*
X197214286Y-70846247D01*
X197214286Y-70846247D02*
X197214286Y-70703390D01*
X197214286Y-70703390D02*
X197261905Y-70512914D01*
X197261905Y-70512914D02*
X197309524Y-70417676D01*
X197309524Y-70417676D02*
X197404762Y-70322438D01*
X197404762Y-70322438D02*
X197547619Y-70274819D01*
X197547619Y-70274819D02*
X197642857Y-70274819D01*
X197642857Y-70274819D02*
X197785714Y-70322438D01*
X197785714Y-70322438D02*
X197833333Y-70370057D01*
X198785714Y-71274819D02*
X198214286Y-71274819D01*
X198500000Y-71274819D02*
X198500000Y-70274819D01*
X198500000Y-70274819D02*
X198404762Y-70417676D01*
X198404762Y-70417676D02*
X198309524Y-70512914D01*
X198309524Y-70512914D02*
X198214286Y-70560533D01*
X235738095Y-111502438D02*
X235642857Y-111454819D01*
X235642857Y-111454819D02*
X235500000Y-111454819D01*
X235500000Y-111454819D02*
X235357143Y-111502438D01*
X235357143Y-111502438D02*
X235261905Y-111597676D01*
X235261905Y-111597676D02*
X235214286Y-111692914D01*
X235214286Y-111692914D02*
X235166667Y-111883390D01*
X235166667Y-111883390D02*
X235166667Y-112026247D01*
X235166667Y-112026247D02*
X235214286Y-112216723D01*
X235214286Y-112216723D02*
X235261905Y-112311961D01*
X235261905Y-112311961D02*
X235357143Y-112407200D01*
X235357143Y-112407200D02*
X235500000Y-112454819D01*
X235500000Y-112454819D02*
X235595238Y-112454819D01*
X235595238Y-112454819D02*
X235738095Y-112407200D01*
X235738095Y-112407200D02*
X235785714Y-112359580D01*
X235785714Y-112359580D02*
X235785714Y-112026247D01*
X235785714Y-112026247D02*
X235595238Y-112026247D01*
X236214286Y-112454819D02*
X236214286Y-111454819D01*
X236214286Y-111454819D02*
X236785714Y-112454819D01*
X236785714Y-112454819D02*
X236785714Y-111454819D01*
X237261905Y-112454819D02*
X237261905Y-111454819D01*
X237261905Y-111454819D02*
X237500000Y-111454819D01*
X237500000Y-111454819D02*
X237642857Y-111502438D01*
X237642857Y-111502438D02*
X237738095Y-111597676D01*
X237738095Y-111597676D02*
X237785714Y-111692914D01*
X237785714Y-111692914D02*
X237833333Y-111883390D01*
X237833333Y-111883390D02*
X237833333Y-112026247D01*
X237833333Y-112026247D02*
X237785714Y-112216723D01*
X237785714Y-112216723D02*
X237738095Y-112311961D01*
X237738095Y-112311961D02*
X237642857Y-112407200D01*
X237642857Y-112407200D02*
X237500000Y-112454819D01*
X237500000Y-112454819D02*
X237261905Y-112454819D01*
X218333333Y-110454819D02*
X218000000Y-109978628D01*
X217761905Y-110454819D02*
X217761905Y-109454819D01*
X217761905Y-109454819D02*
X218142857Y-109454819D01*
X218142857Y-109454819D02*
X218238095Y-109502438D01*
X218238095Y-109502438D02*
X218285714Y-109550057D01*
X218285714Y-109550057D02*
X218333333Y-109645295D01*
X218333333Y-109645295D02*
X218333333Y-109788152D01*
X218333333Y-109788152D02*
X218285714Y-109883390D01*
X218285714Y-109883390D02*
X218238095Y-109931009D01*
X218238095Y-109931009D02*
X218142857Y-109978628D01*
X218142857Y-109978628D02*
X217761905Y-109978628D01*
X218809524Y-110454819D02*
X219000000Y-110454819D01*
X219000000Y-110454819D02*
X219095238Y-110407200D01*
X219095238Y-110407200D02*
X219142857Y-110359580D01*
X219142857Y-110359580D02*
X219238095Y-110216723D01*
X219238095Y-110216723D02*
X219285714Y-110026247D01*
X219285714Y-110026247D02*
X219285714Y-109645295D01*
X219285714Y-109645295D02*
X219238095Y-109550057D01*
X219238095Y-109550057D02*
X219190476Y-109502438D01*
X219190476Y-109502438D02*
X219095238Y-109454819D01*
X219095238Y-109454819D02*
X218904762Y-109454819D01*
X218904762Y-109454819D02*
X218809524Y-109502438D01*
X218809524Y-109502438D02*
X218761905Y-109550057D01*
X218761905Y-109550057D02*
X218714286Y-109645295D01*
X218714286Y-109645295D02*
X218714286Y-109883390D01*
X218714286Y-109883390D02*
X218761905Y-109978628D01*
X218761905Y-109978628D02*
X218809524Y-110026247D01*
X218809524Y-110026247D02*
X218904762Y-110073866D01*
X218904762Y-110073866D02*
X219095238Y-110073866D01*
X219095238Y-110073866D02*
X219190476Y-110026247D01*
X219190476Y-110026247D02*
X219238095Y-109978628D01*
X219238095Y-109978628D02*
X219285714Y-109883390D01*
X231904819Y-115666666D02*
X231904819Y-116142856D01*
X231904819Y-116142856D02*
X230904819Y-116142856D01*
X231904819Y-114809523D02*
X231904819Y-115380951D01*
X231904819Y-115095237D02*
X230904819Y-115095237D01*
X230904819Y-115095237D02*
X231047676Y-115190475D01*
X231047676Y-115190475D02*
X231142914Y-115285713D01*
X231142914Y-115285713D02*
X231190533Y-115380951D01*
X222539580Y-97129166D02*
X222587200Y-97176785D01*
X222587200Y-97176785D02*
X222634819Y-97319642D01*
X222634819Y-97319642D02*
X222634819Y-97414880D01*
X222634819Y-97414880D02*
X222587200Y-97557737D01*
X222587200Y-97557737D02*
X222491961Y-97652975D01*
X222491961Y-97652975D02*
X222396723Y-97700594D01*
X222396723Y-97700594D02*
X222206247Y-97748213D01*
X222206247Y-97748213D02*
X222063390Y-97748213D01*
X222063390Y-97748213D02*
X221872914Y-97700594D01*
X221872914Y-97700594D02*
X221777676Y-97652975D01*
X221777676Y-97652975D02*
X221682438Y-97557737D01*
X221682438Y-97557737D02*
X221634819Y-97414880D01*
X221634819Y-97414880D02*
X221634819Y-97319642D01*
X221634819Y-97319642D02*
X221682438Y-97176785D01*
X221682438Y-97176785D02*
X221730057Y-97129166D01*
X221634819Y-96272023D02*
X221634819Y-96462499D01*
X221634819Y-96462499D02*
X221682438Y-96557737D01*
X221682438Y-96557737D02*
X221730057Y-96605356D01*
X221730057Y-96605356D02*
X221872914Y-96700594D01*
X221872914Y-96700594D02*
X222063390Y-96748213D01*
X222063390Y-96748213D02*
X222444342Y-96748213D01*
X222444342Y-96748213D02*
X222539580Y-96700594D01*
X222539580Y-96700594D02*
X222587200Y-96652975D01*
X222587200Y-96652975D02*
X222634819Y-96557737D01*
X222634819Y-96557737D02*
X222634819Y-96367261D01*
X222634819Y-96367261D02*
X222587200Y-96272023D01*
X222587200Y-96272023D02*
X222539580Y-96224404D01*
X222539580Y-96224404D02*
X222444342Y-96176785D01*
X222444342Y-96176785D02*
X222206247Y-96176785D01*
X222206247Y-96176785D02*
X222111009Y-96224404D01*
X222111009Y-96224404D02*
X222063390Y-96272023D01*
X222063390Y-96272023D02*
X222015771Y-96367261D01*
X222015771Y-96367261D02*
X222015771Y-96557737D01*
X222015771Y-96557737D02*
X222063390Y-96652975D01*
X222063390Y-96652975D02*
X222111009Y-96700594D01*
X222111009Y-96700594D02*
X222206247Y-96748213D01*
X231166667Y-95454819D02*
X231500000Y-96454819D01*
X231500000Y-96454819D02*
X231833333Y-95454819D01*
X232738095Y-96359580D02*
X232690476Y-96407200D01*
X232690476Y-96407200D02*
X232547619Y-96454819D01*
X232547619Y-96454819D02*
X232452381Y-96454819D01*
X232452381Y-96454819D02*
X232309524Y-96407200D01*
X232309524Y-96407200D02*
X232214286Y-96311961D01*
X232214286Y-96311961D02*
X232166667Y-96216723D01*
X232166667Y-96216723D02*
X232119048Y-96026247D01*
X232119048Y-96026247D02*
X232119048Y-95883390D01*
X232119048Y-95883390D02*
X232166667Y-95692914D01*
X232166667Y-95692914D02*
X232214286Y-95597676D01*
X232214286Y-95597676D02*
X232309524Y-95502438D01*
X232309524Y-95502438D02*
X232452381Y-95454819D01*
X232452381Y-95454819D02*
X232547619Y-95454819D01*
X232547619Y-95454819D02*
X232690476Y-95502438D01*
X232690476Y-95502438D02*
X232738095Y-95550057D01*
X233738095Y-96359580D02*
X233690476Y-96407200D01*
X233690476Y-96407200D02*
X233547619Y-96454819D01*
X233547619Y-96454819D02*
X233452381Y-96454819D01*
X233452381Y-96454819D02*
X233309524Y-96407200D01*
X233309524Y-96407200D02*
X233214286Y-96311961D01*
X233214286Y-96311961D02*
X233166667Y-96216723D01*
X233166667Y-96216723D02*
X233119048Y-96026247D01*
X233119048Y-96026247D02*
X233119048Y-95883390D01*
X233119048Y-95883390D02*
X233166667Y-95692914D01*
X233166667Y-95692914D02*
X233214286Y-95597676D01*
X233214286Y-95597676D02*
X233309524Y-95502438D01*
X233309524Y-95502438D02*
X233452381Y-95454819D01*
X233452381Y-95454819D02*
X233547619Y-95454819D01*
X233547619Y-95454819D02*
X233690476Y-95502438D01*
X233690476Y-95502438D02*
X233738095Y-95550057D01*
X202333333Y-71179580D02*
X202285714Y-71227200D01*
X202285714Y-71227200D02*
X202142857Y-71274819D01*
X202142857Y-71274819D02*
X202047619Y-71274819D01*
X202047619Y-71274819D02*
X201904762Y-71227200D01*
X201904762Y-71227200D02*
X201809524Y-71131961D01*
X201809524Y-71131961D02*
X201761905Y-71036723D01*
X201761905Y-71036723D02*
X201714286Y-70846247D01*
X201714286Y-70846247D02*
X201714286Y-70703390D01*
X201714286Y-70703390D02*
X201761905Y-70512914D01*
X201761905Y-70512914D02*
X201809524Y-70417676D01*
X201809524Y-70417676D02*
X201904762Y-70322438D01*
X201904762Y-70322438D02*
X202047619Y-70274819D01*
X202047619Y-70274819D02*
X202142857Y-70274819D01*
X202142857Y-70274819D02*
X202285714Y-70322438D01*
X202285714Y-70322438D02*
X202333333Y-70370057D01*
X202666667Y-70274819D02*
X203285714Y-70274819D01*
X203285714Y-70274819D02*
X202952381Y-70655771D01*
X202952381Y-70655771D02*
X203095238Y-70655771D01*
X203095238Y-70655771D02*
X203190476Y-70703390D01*
X203190476Y-70703390D02*
X203238095Y-70751009D01*
X203238095Y-70751009D02*
X203285714Y-70846247D01*
X203285714Y-70846247D02*
X203285714Y-71084342D01*
X203285714Y-71084342D02*
X203238095Y-71179580D01*
X203238095Y-71179580D02*
X203190476Y-71227200D01*
X203190476Y-71227200D02*
X203095238Y-71274819D01*
X203095238Y-71274819D02*
X202809524Y-71274819D01*
X202809524Y-71274819D02*
X202714286Y-71227200D01*
X202714286Y-71227200D02*
X202666667Y-71179580D01*
X194166667Y-111954819D02*
X194500000Y-112954819D01*
X194500000Y-112954819D02*
X194833333Y-111954819D01*
X195738095Y-112859580D02*
X195690476Y-112907200D01*
X195690476Y-112907200D02*
X195547619Y-112954819D01*
X195547619Y-112954819D02*
X195452381Y-112954819D01*
X195452381Y-112954819D02*
X195309524Y-112907200D01*
X195309524Y-112907200D02*
X195214286Y-112811961D01*
X195214286Y-112811961D02*
X195166667Y-112716723D01*
X195166667Y-112716723D02*
X195119048Y-112526247D01*
X195119048Y-112526247D02*
X195119048Y-112383390D01*
X195119048Y-112383390D02*
X195166667Y-112192914D01*
X195166667Y-112192914D02*
X195214286Y-112097676D01*
X195214286Y-112097676D02*
X195309524Y-112002438D01*
X195309524Y-112002438D02*
X195452381Y-111954819D01*
X195452381Y-111954819D02*
X195547619Y-111954819D01*
X195547619Y-111954819D02*
X195690476Y-112002438D01*
X195690476Y-112002438D02*
X195738095Y-112050057D01*
X196738095Y-112859580D02*
X196690476Y-112907200D01*
X196690476Y-112907200D02*
X196547619Y-112954819D01*
X196547619Y-112954819D02*
X196452381Y-112954819D01*
X196452381Y-112954819D02*
X196309524Y-112907200D01*
X196309524Y-112907200D02*
X196214286Y-112811961D01*
X196214286Y-112811961D02*
X196166667Y-112716723D01*
X196166667Y-112716723D02*
X196119048Y-112526247D01*
X196119048Y-112526247D02*
X196119048Y-112383390D01*
X196119048Y-112383390D02*
X196166667Y-112192914D01*
X196166667Y-112192914D02*
X196214286Y-112097676D01*
X196214286Y-112097676D02*
X196309524Y-112002438D01*
X196309524Y-112002438D02*
X196452381Y-111954819D01*
X196452381Y-111954819D02*
X196547619Y-111954819D01*
X196547619Y-111954819D02*
X196690476Y-112002438D01*
X196690476Y-112002438D02*
X196738095Y-112050057D01*
X194738095Y-103407200D02*
X194880952Y-103454819D01*
X194880952Y-103454819D02*
X195119047Y-103454819D01*
X195119047Y-103454819D02*
X195214285Y-103407200D01*
X195214285Y-103407200D02*
X195261904Y-103359580D01*
X195261904Y-103359580D02*
X195309523Y-103264342D01*
X195309523Y-103264342D02*
X195309523Y-103169104D01*
X195309523Y-103169104D02*
X195261904Y-103073866D01*
X195261904Y-103073866D02*
X195214285Y-103026247D01*
X195214285Y-103026247D02*
X195119047Y-102978628D01*
X195119047Y-102978628D02*
X194928571Y-102931009D01*
X194928571Y-102931009D02*
X194833333Y-102883390D01*
X194833333Y-102883390D02*
X194785714Y-102835771D01*
X194785714Y-102835771D02*
X194738095Y-102740533D01*
X194738095Y-102740533D02*
X194738095Y-102645295D01*
X194738095Y-102645295D02*
X194785714Y-102550057D01*
X194785714Y-102550057D02*
X194833333Y-102502438D01*
X194833333Y-102502438D02*
X194928571Y-102454819D01*
X194928571Y-102454819D02*
X195166666Y-102454819D01*
X195166666Y-102454819D02*
X195309523Y-102502438D01*
X195690476Y-102550057D02*
X195738095Y-102502438D01*
X195738095Y-102502438D02*
X195833333Y-102454819D01*
X195833333Y-102454819D02*
X196071428Y-102454819D01*
X196071428Y-102454819D02*
X196166666Y-102502438D01*
X196166666Y-102502438D02*
X196214285Y-102550057D01*
X196214285Y-102550057D02*
X196261904Y-102645295D01*
X196261904Y-102645295D02*
X196261904Y-102740533D01*
X196261904Y-102740533D02*
X196214285Y-102883390D01*
X196214285Y-102883390D02*
X195642857Y-103454819D01*
X195642857Y-103454819D02*
X196261904Y-103454819D01*
X218357142Y-123454819D02*
X218023809Y-122978628D01*
X217785714Y-123454819D02*
X217785714Y-122454819D01*
X217785714Y-122454819D02*
X218166666Y-122454819D01*
X218166666Y-122454819D02*
X218261904Y-122502438D01*
X218261904Y-122502438D02*
X218309523Y-122550057D01*
X218309523Y-122550057D02*
X218357142Y-122645295D01*
X218357142Y-122645295D02*
X218357142Y-122788152D01*
X218357142Y-122788152D02*
X218309523Y-122883390D01*
X218309523Y-122883390D02*
X218261904Y-122931009D01*
X218261904Y-122931009D02*
X218166666Y-122978628D01*
X218166666Y-122978628D02*
X217785714Y-122978628D01*
X219309523Y-123454819D02*
X218738095Y-123454819D01*
X219023809Y-123454819D02*
X219023809Y-122454819D01*
X219023809Y-122454819D02*
X218928571Y-122597676D01*
X218928571Y-122597676D02*
X218833333Y-122692914D01*
X218833333Y-122692914D02*
X218738095Y-122740533D01*
X220261904Y-123454819D02*
X219690476Y-123454819D01*
X219976190Y-123454819D02*
X219976190Y-122454819D01*
X219976190Y-122454819D02*
X219880952Y-122597676D01*
X219880952Y-122597676D02*
X219785714Y-122692914D01*
X219785714Y-122692914D02*
X219690476Y-122740533D01*
X228738095Y-122002438D02*
X228642857Y-121954819D01*
X228642857Y-121954819D02*
X228500000Y-121954819D01*
X228500000Y-121954819D02*
X228357143Y-122002438D01*
X228357143Y-122002438D02*
X228261905Y-122097676D01*
X228261905Y-122097676D02*
X228214286Y-122192914D01*
X228214286Y-122192914D02*
X228166667Y-122383390D01*
X228166667Y-122383390D02*
X228166667Y-122526247D01*
X228166667Y-122526247D02*
X228214286Y-122716723D01*
X228214286Y-122716723D02*
X228261905Y-122811961D01*
X228261905Y-122811961D02*
X228357143Y-122907200D01*
X228357143Y-122907200D02*
X228500000Y-122954819D01*
X228500000Y-122954819D02*
X228595238Y-122954819D01*
X228595238Y-122954819D02*
X228738095Y-122907200D01*
X228738095Y-122907200D02*
X228785714Y-122859580D01*
X228785714Y-122859580D02*
X228785714Y-122526247D01*
X228785714Y-122526247D02*
X228595238Y-122526247D01*
X229214286Y-122954819D02*
X229214286Y-121954819D01*
X229214286Y-121954819D02*
X229785714Y-122954819D01*
X229785714Y-122954819D02*
X229785714Y-121954819D01*
X230261905Y-122954819D02*
X230261905Y-121954819D01*
X230261905Y-121954819D02*
X230500000Y-121954819D01*
X230500000Y-121954819D02*
X230642857Y-122002438D01*
X230642857Y-122002438D02*
X230738095Y-122097676D01*
X230738095Y-122097676D02*
X230785714Y-122192914D01*
X230785714Y-122192914D02*
X230833333Y-122383390D01*
X230833333Y-122383390D02*
X230833333Y-122526247D01*
X230833333Y-122526247D02*
X230785714Y-122716723D01*
X230785714Y-122716723D02*
X230738095Y-122811961D01*
X230738095Y-122811961D02*
X230642857Y-122907200D01*
X230642857Y-122907200D02*
X230500000Y-122954819D01*
X230500000Y-122954819D02*
X230261905Y-122954819D01*
X208333333Y-119604819D02*
X208000000Y-119128628D01*
X207761905Y-119604819D02*
X207761905Y-118604819D01*
X207761905Y-118604819D02*
X208142857Y-118604819D01*
X208142857Y-118604819D02*
X208238095Y-118652438D01*
X208238095Y-118652438D02*
X208285714Y-118700057D01*
X208285714Y-118700057D02*
X208333333Y-118795295D01*
X208333333Y-118795295D02*
X208333333Y-118938152D01*
X208333333Y-118938152D02*
X208285714Y-119033390D01*
X208285714Y-119033390D02*
X208238095Y-119081009D01*
X208238095Y-119081009D02*
X208142857Y-119128628D01*
X208142857Y-119128628D02*
X207761905Y-119128628D01*
X208904762Y-119033390D02*
X208809524Y-118985771D01*
X208809524Y-118985771D02*
X208761905Y-118938152D01*
X208761905Y-118938152D02*
X208714286Y-118842914D01*
X208714286Y-118842914D02*
X208714286Y-118795295D01*
X208714286Y-118795295D02*
X208761905Y-118700057D01*
X208761905Y-118700057D02*
X208809524Y-118652438D01*
X208809524Y-118652438D02*
X208904762Y-118604819D01*
X208904762Y-118604819D02*
X209095238Y-118604819D01*
X209095238Y-118604819D02*
X209190476Y-118652438D01*
X209190476Y-118652438D02*
X209238095Y-118700057D01*
X209238095Y-118700057D02*
X209285714Y-118795295D01*
X209285714Y-118795295D02*
X209285714Y-118842914D01*
X209285714Y-118842914D02*
X209238095Y-118938152D01*
X209238095Y-118938152D02*
X209190476Y-118985771D01*
X209190476Y-118985771D02*
X209095238Y-119033390D01*
X209095238Y-119033390D02*
X208904762Y-119033390D01*
X208904762Y-119033390D02*
X208809524Y-119081009D01*
X208809524Y-119081009D02*
X208761905Y-119128628D01*
X208761905Y-119128628D02*
X208714286Y-119223866D01*
X208714286Y-119223866D02*
X208714286Y-119414342D01*
X208714286Y-119414342D02*
X208761905Y-119509580D01*
X208761905Y-119509580D02*
X208809524Y-119557200D01*
X208809524Y-119557200D02*
X208904762Y-119604819D01*
X208904762Y-119604819D02*
X209095238Y-119604819D01*
X209095238Y-119604819D02*
X209190476Y-119557200D01*
X209190476Y-119557200D02*
X209238095Y-119509580D01*
X209238095Y-119509580D02*
X209285714Y-119414342D01*
X209285714Y-119414342D02*
X209285714Y-119223866D01*
X209285714Y-119223866D02*
X209238095Y-119128628D01*
X209238095Y-119128628D02*
X209190476Y-119081009D01*
X209190476Y-119081009D02*
X209095238Y-119033390D01*
X232238095Y-103407200D02*
X232380952Y-103454819D01*
X232380952Y-103454819D02*
X232619047Y-103454819D01*
X232619047Y-103454819D02*
X232714285Y-103407200D01*
X232714285Y-103407200D02*
X232761904Y-103359580D01*
X232761904Y-103359580D02*
X232809523Y-103264342D01*
X232809523Y-103264342D02*
X232809523Y-103169104D01*
X232809523Y-103169104D02*
X232761904Y-103073866D01*
X232761904Y-103073866D02*
X232714285Y-103026247D01*
X232714285Y-103026247D02*
X232619047Y-102978628D01*
X232619047Y-102978628D02*
X232428571Y-102931009D01*
X232428571Y-102931009D02*
X232333333Y-102883390D01*
X232333333Y-102883390D02*
X232285714Y-102835771D01*
X232285714Y-102835771D02*
X232238095Y-102740533D01*
X232238095Y-102740533D02*
X232238095Y-102645295D01*
X232238095Y-102645295D02*
X232285714Y-102550057D01*
X232285714Y-102550057D02*
X232333333Y-102502438D01*
X232333333Y-102502438D02*
X232428571Y-102454819D01*
X232428571Y-102454819D02*
X232666666Y-102454819D01*
X232666666Y-102454819D02*
X232809523Y-102502438D01*
X233142857Y-102454819D02*
X233761904Y-102454819D01*
X233761904Y-102454819D02*
X233428571Y-102835771D01*
X233428571Y-102835771D02*
X233571428Y-102835771D01*
X233571428Y-102835771D02*
X233666666Y-102883390D01*
X233666666Y-102883390D02*
X233714285Y-102931009D01*
X233714285Y-102931009D02*
X233761904Y-103026247D01*
X233761904Y-103026247D02*
X233761904Y-103264342D01*
X233761904Y-103264342D02*
X233714285Y-103359580D01*
X233714285Y-103359580D02*
X233666666Y-103407200D01*
X233666666Y-103407200D02*
X233571428Y-103454819D01*
X233571428Y-103454819D02*
X233285714Y-103454819D01*
X233285714Y-103454819D02*
X233190476Y-103407200D01*
X233190476Y-103407200D02*
X233142857Y-103359580D01*
X214333333Y-92954819D02*
X214000000Y-92478628D01*
X213761905Y-92954819D02*
X213761905Y-91954819D01*
X213761905Y-91954819D02*
X214142857Y-91954819D01*
X214142857Y-91954819D02*
X214238095Y-92002438D01*
X214238095Y-92002438D02*
X214285714Y-92050057D01*
X214285714Y-92050057D02*
X214333333Y-92145295D01*
X214333333Y-92145295D02*
X214333333Y-92288152D01*
X214333333Y-92288152D02*
X214285714Y-92383390D01*
X214285714Y-92383390D02*
X214238095Y-92431009D01*
X214238095Y-92431009D02*
X214142857Y-92478628D01*
X214142857Y-92478628D02*
X213761905Y-92478628D01*
X215190476Y-92288152D02*
X215190476Y-92954819D01*
X214952381Y-91907200D02*
X214714286Y-92621485D01*
X214714286Y-92621485D02*
X215333333Y-92621485D01*
X210833333Y-98454819D02*
X210500000Y-97978628D01*
X210261905Y-98454819D02*
X210261905Y-97454819D01*
X210261905Y-97454819D02*
X210642857Y-97454819D01*
X210642857Y-97454819D02*
X210738095Y-97502438D01*
X210738095Y-97502438D02*
X210785714Y-97550057D01*
X210785714Y-97550057D02*
X210833333Y-97645295D01*
X210833333Y-97645295D02*
X210833333Y-97788152D01*
X210833333Y-97788152D02*
X210785714Y-97883390D01*
X210785714Y-97883390D02*
X210738095Y-97931009D01*
X210738095Y-97931009D02*
X210642857Y-97978628D01*
X210642857Y-97978628D02*
X210261905Y-97978628D01*
X211166667Y-97454819D02*
X211785714Y-97454819D01*
X211785714Y-97454819D02*
X211452381Y-97835771D01*
X211452381Y-97835771D02*
X211595238Y-97835771D01*
X211595238Y-97835771D02*
X211690476Y-97883390D01*
X211690476Y-97883390D02*
X211738095Y-97931009D01*
X211738095Y-97931009D02*
X211785714Y-98026247D01*
X211785714Y-98026247D02*
X211785714Y-98264342D01*
X211785714Y-98264342D02*
X211738095Y-98359580D01*
X211738095Y-98359580D02*
X211690476Y-98407200D01*
X211690476Y-98407200D02*
X211595238Y-98454819D01*
X211595238Y-98454819D02*
X211309524Y-98454819D01*
X211309524Y-98454819D02*
X211214286Y-98407200D01*
X211214286Y-98407200D02*
X211166667Y-98359580D01*
X197238095Y-90907200D02*
X197380952Y-90954819D01*
X197380952Y-90954819D02*
X197619047Y-90954819D01*
X197619047Y-90954819D02*
X197714285Y-90907200D01*
X197714285Y-90907200D02*
X197761904Y-90859580D01*
X197761904Y-90859580D02*
X197809523Y-90764342D01*
X197809523Y-90764342D02*
X197809523Y-90669104D01*
X197809523Y-90669104D02*
X197761904Y-90573866D01*
X197761904Y-90573866D02*
X197714285Y-90526247D01*
X197714285Y-90526247D02*
X197619047Y-90478628D01*
X197619047Y-90478628D02*
X197428571Y-90431009D01*
X197428571Y-90431009D02*
X197333333Y-90383390D01*
X197333333Y-90383390D02*
X197285714Y-90335771D01*
X197285714Y-90335771D02*
X197238095Y-90240533D01*
X197238095Y-90240533D02*
X197238095Y-90145295D01*
X197238095Y-90145295D02*
X197285714Y-90050057D01*
X197285714Y-90050057D02*
X197333333Y-90002438D01*
X197333333Y-90002438D02*
X197428571Y-89954819D01*
X197428571Y-89954819D02*
X197666666Y-89954819D01*
X197666666Y-89954819D02*
X197809523Y-90002438D01*
X198761904Y-90954819D02*
X198190476Y-90954819D01*
X198476190Y-90954819D02*
X198476190Y-89954819D01*
X198476190Y-89954819D02*
X198380952Y-90097676D01*
X198380952Y-90097676D02*
X198285714Y-90192914D01*
X198285714Y-90192914D02*
X198190476Y-90240533D01*
X208333333Y-110304819D02*
X208000000Y-109828628D01*
X207761905Y-110304819D02*
X207761905Y-109304819D01*
X207761905Y-109304819D02*
X208142857Y-109304819D01*
X208142857Y-109304819D02*
X208238095Y-109352438D01*
X208238095Y-109352438D02*
X208285714Y-109400057D01*
X208285714Y-109400057D02*
X208333333Y-109495295D01*
X208333333Y-109495295D02*
X208333333Y-109638152D01*
X208333333Y-109638152D02*
X208285714Y-109733390D01*
X208285714Y-109733390D02*
X208238095Y-109781009D01*
X208238095Y-109781009D02*
X208142857Y-109828628D01*
X208142857Y-109828628D02*
X207761905Y-109828628D01*
X208666667Y-109304819D02*
X209333333Y-109304819D01*
X209333333Y-109304819D02*
X208904762Y-110304819D01*
X232238095Y-87907200D02*
X232380952Y-87954819D01*
X232380952Y-87954819D02*
X232619047Y-87954819D01*
X232619047Y-87954819D02*
X232714285Y-87907200D01*
X232714285Y-87907200D02*
X232761904Y-87859580D01*
X232761904Y-87859580D02*
X232809523Y-87764342D01*
X232809523Y-87764342D02*
X232809523Y-87669104D01*
X232809523Y-87669104D02*
X232761904Y-87573866D01*
X232761904Y-87573866D02*
X232714285Y-87526247D01*
X232714285Y-87526247D02*
X232619047Y-87478628D01*
X232619047Y-87478628D02*
X232428571Y-87431009D01*
X232428571Y-87431009D02*
X232333333Y-87383390D01*
X232333333Y-87383390D02*
X232285714Y-87335771D01*
X232285714Y-87335771D02*
X232238095Y-87240533D01*
X232238095Y-87240533D02*
X232238095Y-87145295D01*
X232238095Y-87145295D02*
X232285714Y-87050057D01*
X232285714Y-87050057D02*
X232333333Y-87002438D01*
X232333333Y-87002438D02*
X232428571Y-86954819D01*
X232428571Y-86954819D02*
X232666666Y-86954819D01*
X232666666Y-86954819D02*
X232809523Y-87002438D01*
X233666666Y-87288152D02*
X233666666Y-87954819D01*
X233428571Y-86907200D02*
X233190476Y-87621485D01*
X233190476Y-87621485D02*
X233809523Y-87621485D01*
X235857142Y-87954819D02*
X235380952Y-87954819D01*
X235380952Y-87954819D02*
X235380952Y-86954819D01*
X236190476Y-87431009D02*
X236523809Y-87431009D01*
X236666666Y-87954819D02*
X236190476Y-87954819D01*
X236190476Y-87954819D02*
X236190476Y-86954819D01*
X236190476Y-86954819D02*
X236666666Y-86954819D01*
X237095238Y-87954819D02*
X237095238Y-86954819D01*
X237095238Y-86954819D02*
X237333333Y-86954819D01*
X237333333Y-86954819D02*
X237476190Y-87002438D01*
X237476190Y-87002438D02*
X237571428Y-87097676D01*
X237571428Y-87097676D02*
X237619047Y-87192914D01*
X237619047Y-87192914D02*
X237666666Y-87383390D01*
X237666666Y-87383390D02*
X237666666Y-87526247D01*
X237666666Y-87526247D02*
X237619047Y-87716723D01*
X237619047Y-87716723D02*
X237571428Y-87811961D01*
X237571428Y-87811961D02*
X237476190Y-87907200D01*
X237476190Y-87907200D02*
X237333333Y-87954819D01*
X237333333Y-87954819D02*
X237095238Y-87954819D01*
X216008095Y-95962319D02*
X216008095Y-96771842D01*
X216008095Y-96771842D02*
X216055714Y-96867080D01*
X216055714Y-96867080D02*
X216103333Y-96914700D01*
X216103333Y-96914700D02*
X216198571Y-96962319D01*
X216198571Y-96962319D02*
X216389047Y-96962319D01*
X216389047Y-96962319D02*
X216484285Y-96914700D01*
X216484285Y-96914700D02*
X216531904Y-96867080D01*
X216531904Y-96867080D02*
X216579523Y-96771842D01*
X216579523Y-96771842D02*
X216579523Y-95962319D01*
X217008095Y-96057557D02*
X217055714Y-96009938D01*
X217055714Y-96009938D02*
X217150952Y-95962319D01*
X217150952Y-95962319D02*
X217389047Y-95962319D01*
X217389047Y-95962319D02*
X217484285Y-96009938D01*
X217484285Y-96009938D02*
X217531904Y-96057557D01*
X217531904Y-96057557D02*
X217579523Y-96152795D01*
X217579523Y-96152795D02*
X217579523Y-96248033D01*
X217579523Y-96248033D02*
X217531904Y-96390890D01*
X217531904Y-96390890D02*
X216960476Y-96962319D01*
X216960476Y-96962319D02*
X217579523Y-96962319D01*
X190238095Y-112002438D02*
X190142857Y-111954819D01*
X190142857Y-111954819D02*
X190000000Y-111954819D01*
X190000000Y-111954819D02*
X189857143Y-112002438D01*
X189857143Y-112002438D02*
X189761905Y-112097676D01*
X189761905Y-112097676D02*
X189714286Y-112192914D01*
X189714286Y-112192914D02*
X189666667Y-112383390D01*
X189666667Y-112383390D02*
X189666667Y-112526247D01*
X189666667Y-112526247D02*
X189714286Y-112716723D01*
X189714286Y-112716723D02*
X189761905Y-112811961D01*
X189761905Y-112811961D02*
X189857143Y-112907200D01*
X189857143Y-112907200D02*
X190000000Y-112954819D01*
X190000000Y-112954819D02*
X190095238Y-112954819D01*
X190095238Y-112954819D02*
X190238095Y-112907200D01*
X190238095Y-112907200D02*
X190285714Y-112859580D01*
X190285714Y-112859580D02*
X190285714Y-112526247D01*
X190285714Y-112526247D02*
X190095238Y-112526247D01*
X190714286Y-112954819D02*
X190714286Y-111954819D01*
X190714286Y-111954819D02*
X191285714Y-112954819D01*
X191285714Y-112954819D02*
X191285714Y-111954819D01*
X191761905Y-112954819D02*
X191761905Y-111954819D01*
X191761905Y-111954819D02*
X192000000Y-111954819D01*
X192000000Y-111954819D02*
X192142857Y-112002438D01*
X192142857Y-112002438D02*
X192238095Y-112097676D01*
X192238095Y-112097676D02*
X192285714Y-112192914D01*
X192285714Y-112192914D02*
X192333333Y-112383390D01*
X192333333Y-112383390D02*
X192333333Y-112526247D01*
X192333333Y-112526247D02*
X192285714Y-112716723D01*
X192285714Y-112716723D02*
X192238095Y-112811961D01*
X192238095Y-112811961D02*
X192142857Y-112907200D01*
X192142857Y-112907200D02*
X192000000Y-112954819D01*
X192000000Y-112954819D02*
X191761905Y-112954819D01*
X231166667Y-111454819D02*
X231500000Y-112454819D01*
X231500000Y-112454819D02*
X231833333Y-111454819D01*
X232738095Y-112359580D02*
X232690476Y-112407200D01*
X232690476Y-112407200D02*
X232547619Y-112454819D01*
X232547619Y-112454819D02*
X232452381Y-112454819D01*
X232452381Y-112454819D02*
X232309524Y-112407200D01*
X232309524Y-112407200D02*
X232214286Y-112311961D01*
X232214286Y-112311961D02*
X232166667Y-112216723D01*
X232166667Y-112216723D02*
X232119048Y-112026247D01*
X232119048Y-112026247D02*
X232119048Y-111883390D01*
X232119048Y-111883390D02*
X232166667Y-111692914D01*
X232166667Y-111692914D02*
X232214286Y-111597676D01*
X232214286Y-111597676D02*
X232309524Y-111502438D01*
X232309524Y-111502438D02*
X232452381Y-111454819D01*
X232452381Y-111454819D02*
X232547619Y-111454819D01*
X232547619Y-111454819D02*
X232690476Y-111502438D01*
X232690476Y-111502438D02*
X232738095Y-111550057D01*
X233738095Y-112359580D02*
X233690476Y-112407200D01*
X233690476Y-112407200D02*
X233547619Y-112454819D01*
X233547619Y-112454819D02*
X233452381Y-112454819D01*
X233452381Y-112454819D02*
X233309524Y-112407200D01*
X233309524Y-112407200D02*
X233214286Y-112311961D01*
X233214286Y-112311961D02*
X233166667Y-112216723D01*
X233166667Y-112216723D02*
X233119048Y-112026247D01*
X233119048Y-112026247D02*
X233119048Y-111883390D01*
X233119048Y-111883390D02*
X233166667Y-111692914D01*
X233166667Y-111692914D02*
X233214286Y-111597676D01*
X233214286Y-111597676D02*
X233309524Y-111502438D01*
X233309524Y-111502438D02*
X233452381Y-111454819D01*
X233452381Y-111454819D02*
X233547619Y-111454819D01*
X233547619Y-111454819D02*
X233690476Y-111502438D01*
X233690476Y-111502438D02*
X233738095Y-111550057D01*
X190238095Y-96502438D02*
X190142857Y-96454819D01*
X190142857Y-96454819D02*
X190000000Y-96454819D01*
X190000000Y-96454819D02*
X189857143Y-96502438D01*
X189857143Y-96502438D02*
X189761905Y-96597676D01*
X189761905Y-96597676D02*
X189714286Y-96692914D01*
X189714286Y-96692914D02*
X189666667Y-96883390D01*
X189666667Y-96883390D02*
X189666667Y-97026247D01*
X189666667Y-97026247D02*
X189714286Y-97216723D01*
X189714286Y-97216723D02*
X189761905Y-97311961D01*
X189761905Y-97311961D02*
X189857143Y-97407200D01*
X189857143Y-97407200D02*
X190000000Y-97454819D01*
X190000000Y-97454819D02*
X190095238Y-97454819D01*
X190095238Y-97454819D02*
X190238095Y-97407200D01*
X190238095Y-97407200D02*
X190285714Y-97359580D01*
X190285714Y-97359580D02*
X190285714Y-97026247D01*
X190285714Y-97026247D02*
X190095238Y-97026247D01*
X190714286Y-97454819D02*
X190714286Y-96454819D01*
X190714286Y-96454819D02*
X191285714Y-97454819D01*
X191285714Y-97454819D02*
X191285714Y-96454819D01*
X191761905Y-97454819D02*
X191761905Y-96454819D01*
X191761905Y-96454819D02*
X192000000Y-96454819D01*
X192000000Y-96454819D02*
X192142857Y-96502438D01*
X192142857Y-96502438D02*
X192238095Y-96597676D01*
X192238095Y-96597676D02*
X192285714Y-96692914D01*
X192285714Y-96692914D02*
X192333333Y-96883390D01*
X192333333Y-96883390D02*
X192333333Y-97026247D01*
X192333333Y-97026247D02*
X192285714Y-97216723D01*
X192285714Y-97216723D02*
X192238095Y-97311961D01*
X192238095Y-97311961D02*
X192142857Y-97407200D01*
X192142857Y-97407200D02*
X192000000Y-97454819D01*
X192000000Y-97454819D02*
X191761905Y-97454819D01*
X220954819Y-119642857D02*
X220478628Y-119976190D01*
X220954819Y-120214285D02*
X219954819Y-120214285D01*
X219954819Y-120214285D02*
X219954819Y-119833333D01*
X219954819Y-119833333D02*
X220002438Y-119738095D01*
X220002438Y-119738095D02*
X220050057Y-119690476D01*
X220050057Y-119690476D02*
X220145295Y-119642857D01*
X220145295Y-119642857D02*
X220288152Y-119642857D01*
X220288152Y-119642857D02*
X220383390Y-119690476D01*
X220383390Y-119690476D02*
X220431009Y-119738095D01*
X220431009Y-119738095D02*
X220478628Y-119833333D01*
X220478628Y-119833333D02*
X220478628Y-120214285D01*
X220954819Y-118690476D02*
X220954819Y-119261904D01*
X220954819Y-118976190D02*
X219954819Y-118976190D01*
X219954819Y-118976190D02*
X220097676Y-119071428D01*
X220097676Y-119071428D02*
X220192914Y-119166666D01*
X220192914Y-119166666D02*
X220240533Y-119261904D01*
X219954819Y-118071428D02*
X219954819Y-117976190D01*
X219954819Y-117976190D02*
X220002438Y-117880952D01*
X220002438Y-117880952D02*
X220050057Y-117833333D01*
X220050057Y-117833333D02*
X220145295Y-117785714D01*
X220145295Y-117785714D02*
X220335771Y-117738095D01*
X220335771Y-117738095D02*
X220573866Y-117738095D01*
X220573866Y-117738095D02*
X220764342Y-117785714D01*
X220764342Y-117785714D02*
X220859580Y-117833333D01*
X220859580Y-117833333D02*
X220907200Y-117880952D01*
X220907200Y-117880952D02*
X220954819Y-117976190D01*
X220954819Y-117976190D02*
X220954819Y-118071428D01*
X220954819Y-118071428D02*
X220907200Y-118166666D01*
X220907200Y-118166666D02*
X220859580Y-118214285D01*
X220859580Y-118214285D02*
X220764342Y-118261904D01*
X220764342Y-118261904D02*
X220573866Y-118309523D01*
X220573866Y-118309523D02*
X220335771Y-118309523D01*
X220335771Y-118309523D02*
X220145295Y-118261904D01*
X220145295Y-118261904D02*
X220050057Y-118214285D01*
X220050057Y-118214285D02*
X220002438Y-118166666D01*
X220002438Y-118166666D02*
X219954819Y-118071428D01*
X189357142Y-90954819D02*
X188880952Y-90954819D01*
X188880952Y-90954819D02*
X188880952Y-89954819D01*
X189690476Y-90431009D02*
X190023809Y-90431009D01*
X190166666Y-90954819D02*
X189690476Y-90954819D01*
X189690476Y-90954819D02*
X189690476Y-89954819D01*
X189690476Y-89954819D02*
X190166666Y-89954819D01*
X190595238Y-90954819D02*
X190595238Y-89954819D01*
X190595238Y-89954819D02*
X190833333Y-89954819D01*
X190833333Y-89954819D02*
X190976190Y-90002438D01*
X190976190Y-90002438D02*
X191071428Y-90097676D01*
X191071428Y-90097676D02*
X191119047Y-90192914D01*
X191119047Y-90192914D02*
X191166666Y-90383390D01*
X191166666Y-90383390D02*
X191166666Y-90526247D01*
X191166666Y-90526247D02*
X191119047Y-90716723D01*
X191119047Y-90716723D02*
X191071428Y-90811961D01*
X191071428Y-90811961D02*
X190976190Y-90907200D01*
X190976190Y-90907200D02*
X190833333Y-90954819D01*
X190833333Y-90954819D02*
X190595238Y-90954819D01*
X214857142Y-110359580D02*
X214809523Y-110407200D01*
X214809523Y-110407200D02*
X214666666Y-110454819D01*
X214666666Y-110454819D02*
X214571428Y-110454819D01*
X214571428Y-110454819D02*
X214428571Y-110407200D01*
X214428571Y-110407200D02*
X214333333Y-110311961D01*
X214333333Y-110311961D02*
X214285714Y-110216723D01*
X214285714Y-110216723D02*
X214238095Y-110026247D01*
X214238095Y-110026247D02*
X214238095Y-109883390D01*
X214238095Y-109883390D02*
X214285714Y-109692914D01*
X214285714Y-109692914D02*
X214333333Y-109597676D01*
X214333333Y-109597676D02*
X214428571Y-109502438D01*
X214428571Y-109502438D02*
X214571428Y-109454819D01*
X214571428Y-109454819D02*
X214666666Y-109454819D01*
X214666666Y-109454819D02*
X214809523Y-109502438D01*
X214809523Y-109502438D02*
X214857142Y-109550057D01*
X215809523Y-110454819D02*
X215238095Y-110454819D01*
X215523809Y-110454819D02*
X215523809Y-109454819D01*
X215523809Y-109454819D02*
X215428571Y-109597676D01*
X215428571Y-109597676D02*
X215333333Y-109692914D01*
X215333333Y-109692914D02*
X215238095Y-109740533D01*
X216761904Y-110454819D02*
X216190476Y-110454819D01*
X216476190Y-110454819D02*
X216476190Y-109454819D01*
X216476190Y-109454819D02*
X216380952Y-109597676D01*
X216380952Y-109597676D02*
X216285714Y-109692914D01*
X216285714Y-109692914D02*
X216190476Y-109740533D01*
X191357142Y-103454819D02*
X190880952Y-103454819D01*
X190880952Y-103454819D02*
X190880952Y-102454819D01*
X191690476Y-102931009D02*
X192023809Y-102931009D01*
X192166666Y-103454819D02*
X191690476Y-103454819D01*
X191690476Y-103454819D02*
X191690476Y-102454819D01*
X191690476Y-102454819D02*
X192166666Y-102454819D01*
X192595238Y-103454819D02*
X192595238Y-102454819D01*
X192595238Y-102454819D02*
X192833333Y-102454819D01*
X192833333Y-102454819D02*
X192976190Y-102502438D01*
X192976190Y-102502438D02*
X193071428Y-102597676D01*
X193071428Y-102597676D02*
X193119047Y-102692914D01*
X193119047Y-102692914D02*
X193166666Y-102883390D01*
X193166666Y-102883390D02*
X193166666Y-103026247D01*
X193166666Y-103026247D02*
X193119047Y-103216723D01*
X193119047Y-103216723D02*
X193071428Y-103311961D01*
X193071428Y-103311961D02*
X192976190Y-103407200D01*
X192976190Y-103407200D02*
X192833333Y-103454819D01*
X192833333Y-103454819D02*
X192595238Y-103454819D01*
X194166667Y-96454819D02*
X194500000Y-97454819D01*
X194500000Y-97454819D02*
X194833333Y-96454819D01*
X195738095Y-97359580D02*
X195690476Y-97407200D01*
X195690476Y-97407200D02*
X195547619Y-97454819D01*
X195547619Y-97454819D02*
X195452381Y-97454819D01*
X195452381Y-97454819D02*
X195309524Y-97407200D01*
X195309524Y-97407200D02*
X195214286Y-97311961D01*
X195214286Y-97311961D02*
X195166667Y-97216723D01*
X195166667Y-97216723D02*
X195119048Y-97026247D01*
X195119048Y-97026247D02*
X195119048Y-96883390D01*
X195119048Y-96883390D02*
X195166667Y-96692914D01*
X195166667Y-96692914D02*
X195214286Y-96597676D01*
X195214286Y-96597676D02*
X195309524Y-96502438D01*
X195309524Y-96502438D02*
X195452381Y-96454819D01*
X195452381Y-96454819D02*
X195547619Y-96454819D01*
X195547619Y-96454819D02*
X195690476Y-96502438D01*
X195690476Y-96502438D02*
X195738095Y-96550057D01*
X196738095Y-97359580D02*
X196690476Y-97407200D01*
X196690476Y-97407200D02*
X196547619Y-97454819D01*
X196547619Y-97454819D02*
X196452381Y-97454819D01*
X196452381Y-97454819D02*
X196309524Y-97407200D01*
X196309524Y-97407200D02*
X196214286Y-97311961D01*
X196214286Y-97311961D02*
X196166667Y-97216723D01*
X196166667Y-97216723D02*
X196119048Y-97026247D01*
X196119048Y-97026247D02*
X196119048Y-96883390D01*
X196119048Y-96883390D02*
X196166667Y-96692914D01*
X196166667Y-96692914D02*
X196214286Y-96597676D01*
X196214286Y-96597676D02*
X196309524Y-96502438D01*
X196309524Y-96502438D02*
X196452381Y-96454819D01*
X196452381Y-96454819D02*
X196547619Y-96454819D01*
X196547619Y-96454819D02*
X196690476Y-96502438D01*
X196690476Y-96502438D02*
X196738095Y-96550057D01*
X193261905Y-79931009D02*
X193595238Y-79931009D01*
X193738095Y-80454819D02*
X193261905Y-80454819D01*
X193261905Y-80454819D02*
X193261905Y-79454819D01*
X193261905Y-79454819D02*
X193738095Y-79454819D01*
X194166667Y-80454819D02*
X194166667Y-79454819D01*
X194166667Y-79454819D02*
X194738095Y-80454819D01*
X194738095Y-80454819D02*
X194738095Y-79454819D01*
X197833333Y-77859580D02*
X197785714Y-77907200D01*
X197785714Y-77907200D02*
X197642857Y-77954819D01*
X197642857Y-77954819D02*
X197547619Y-77954819D01*
X197547619Y-77954819D02*
X197404762Y-77907200D01*
X197404762Y-77907200D02*
X197309524Y-77811961D01*
X197309524Y-77811961D02*
X197261905Y-77716723D01*
X197261905Y-77716723D02*
X197214286Y-77526247D01*
X197214286Y-77526247D02*
X197214286Y-77383390D01*
X197214286Y-77383390D02*
X197261905Y-77192914D01*
X197261905Y-77192914D02*
X197309524Y-77097676D01*
X197309524Y-77097676D02*
X197404762Y-77002438D01*
X197404762Y-77002438D02*
X197547619Y-76954819D01*
X197547619Y-76954819D02*
X197642857Y-76954819D01*
X197642857Y-76954819D02*
X197785714Y-77002438D01*
X197785714Y-77002438D02*
X197833333Y-77050057D01*
X198214286Y-77050057D02*
X198261905Y-77002438D01*
X198261905Y-77002438D02*
X198357143Y-76954819D01*
X198357143Y-76954819D02*
X198595238Y-76954819D01*
X198595238Y-76954819D02*
X198690476Y-77002438D01*
X198690476Y-77002438D02*
X198738095Y-77050057D01*
X198738095Y-77050057D02*
X198785714Y-77145295D01*
X198785714Y-77145295D02*
X198785714Y-77240533D01*
X198785714Y-77240533D02*
X198738095Y-77383390D01*
X198738095Y-77383390D02*
X198166667Y-77954819D01*
X198166667Y-77954819D02*
X198785714Y-77954819D01*
X235357142Y-103454819D02*
X234880952Y-103454819D01*
X234880952Y-103454819D02*
X234880952Y-102454819D01*
X235690476Y-102931009D02*
X236023809Y-102931009D01*
X236166666Y-103454819D02*
X235690476Y-103454819D01*
X235690476Y-103454819D02*
X235690476Y-102454819D01*
X235690476Y-102454819D02*
X236166666Y-102454819D01*
X236595238Y-103454819D02*
X236595238Y-102454819D01*
X236595238Y-102454819D02*
X236833333Y-102454819D01*
X236833333Y-102454819D02*
X236976190Y-102502438D01*
X236976190Y-102502438D02*
X237071428Y-102597676D01*
X237071428Y-102597676D02*
X237119047Y-102692914D01*
X237119047Y-102692914D02*
X237166666Y-102883390D01*
X237166666Y-102883390D02*
X237166666Y-103026247D01*
X237166666Y-103026247D02*
X237119047Y-103216723D01*
X237119047Y-103216723D02*
X237071428Y-103311961D01*
X237071428Y-103311961D02*
X236976190Y-103407200D01*
X236976190Y-103407200D02*
X236833333Y-103454819D01*
X236833333Y-103454819D02*
X236595238Y-103454819D01*
X234781009Y-84082142D02*
X234828628Y-83939285D01*
X234828628Y-83939285D02*
X234876247Y-83891666D01*
X234876247Y-83891666D02*
X234971485Y-83844047D01*
X234971485Y-83844047D02*
X235114342Y-83844047D01*
X235114342Y-83844047D02*
X235209580Y-83891666D01*
X235209580Y-83891666D02*
X235257200Y-83939285D01*
X235257200Y-83939285D02*
X235304819Y-84034523D01*
X235304819Y-84034523D02*
X235304819Y-84415475D01*
X235304819Y-84415475D02*
X234304819Y-84415475D01*
X234304819Y-84415475D02*
X234304819Y-84082142D01*
X234304819Y-84082142D02*
X234352438Y-83986904D01*
X234352438Y-83986904D02*
X234400057Y-83939285D01*
X234400057Y-83939285D02*
X234495295Y-83891666D01*
X234495295Y-83891666D02*
X234590533Y-83891666D01*
X234590533Y-83891666D02*
X234685771Y-83939285D01*
X234685771Y-83939285D02*
X234733390Y-83986904D01*
X234733390Y-83986904D02*
X234781009Y-84082142D01*
X234781009Y-84082142D02*
X234781009Y-84415475D01*
X234304819Y-83224999D02*
X234304819Y-83034523D01*
X234304819Y-83034523D02*
X234352438Y-82939285D01*
X234352438Y-82939285D02*
X234447676Y-82844047D01*
X234447676Y-82844047D02*
X234638152Y-82796428D01*
X234638152Y-82796428D02*
X234971485Y-82796428D01*
X234971485Y-82796428D02*
X235161961Y-82844047D01*
X235161961Y-82844047D02*
X235257200Y-82939285D01*
X235257200Y-82939285D02*
X235304819Y-83034523D01*
X235304819Y-83034523D02*
X235304819Y-83224999D01*
X235304819Y-83224999D02*
X235257200Y-83320237D01*
X235257200Y-83320237D02*
X235161961Y-83415475D01*
X235161961Y-83415475D02*
X234971485Y-83463094D01*
X234971485Y-83463094D02*
X234638152Y-83463094D01*
X234638152Y-83463094D02*
X234447676Y-83415475D01*
X234447676Y-83415475D02*
X234352438Y-83320237D01*
X234352438Y-83320237D02*
X234304819Y-83224999D01*
X234304819Y-82177380D02*
X234304819Y-81986904D01*
X234304819Y-81986904D02*
X234352438Y-81891666D01*
X234352438Y-81891666D02*
X234447676Y-81796428D01*
X234447676Y-81796428D02*
X234638152Y-81748809D01*
X234638152Y-81748809D02*
X234971485Y-81748809D01*
X234971485Y-81748809D02*
X235161961Y-81796428D01*
X235161961Y-81796428D02*
X235257200Y-81891666D01*
X235257200Y-81891666D02*
X235304819Y-81986904D01*
X235304819Y-81986904D02*
X235304819Y-82177380D01*
X235304819Y-82177380D02*
X235257200Y-82272618D01*
X235257200Y-82272618D02*
X235161961Y-82367856D01*
X235161961Y-82367856D02*
X234971485Y-82415475D01*
X234971485Y-82415475D02*
X234638152Y-82415475D01*
X234638152Y-82415475D02*
X234447676Y-82367856D01*
X234447676Y-82367856D02*
X234352438Y-82272618D01*
X234352438Y-82272618D02*
X234304819Y-82177380D01*
X234304819Y-81463094D02*
X234304819Y-80891666D01*
X235304819Y-81177380D02*
X234304819Y-81177380D01*
X203859580Y-86642857D02*
X203907200Y-86690476D01*
X203907200Y-86690476D02*
X203954819Y-86833333D01*
X203954819Y-86833333D02*
X203954819Y-86928571D01*
X203954819Y-86928571D02*
X203907200Y-87071428D01*
X203907200Y-87071428D02*
X203811961Y-87166666D01*
X203811961Y-87166666D02*
X203716723Y-87214285D01*
X203716723Y-87214285D02*
X203526247Y-87261904D01*
X203526247Y-87261904D02*
X203383390Y-87261904D01*
X203383390Y-87261904D02*
X203192914Y-87214285D01*
X203192914Y-87214285D02*
X203097676Y-87166666D01*
X203097676Y-87166666D02*
X203002438Y-87071428D01*
X203002438Y-87071428D02*
X202954819Y-86928571D01*
X202954819Y-86928571D02*
X202954819Y-86833333D01*
X202954819Y-86833333D02*
X203002438Y-86690476D01*
X203002438Y-86690476D02*
X203050057Y-86642857D01*
X203954819Y-85690476D02*
X203954819Y-86261904D01*
X203954819Y-85976190D02*
X202954819Y-85976190D01*
X202954819Y-85976190D02*
X203097676Y-86071428D01*
X203097676Y-86071428D02*
X203192914Y-86166666D01*
X203192914Y-86166666D02*
X203240533Y-86261904D01*
X202954819Y-85357142D02*
X202954819Y-84738095D01*
X202954819Y-84738095D02*
X203335771Y-85071428D01*
X203335771Y-85071428D02*
X203335771Y-84928571D01*
X203335771Y-84928571D02*
X203383390Y-84833333D01*
X203383390Y-84833333D02*
X203431009Y-84785714D01*
X203431009Y-84785714D02*
X203526247Y-84738095D01*
X203526247Y-84738095D02*
X203764342Y-84738095D01*
X203764342Y-84738095D02*
X203859580Y-84785714D01*
X203859580Y-84785714D02*
X203907200Y-84833333D01*
X203907200Y-84833333D02*
X203954819Y-84928571D01*
X203954819Y-84928571D02*
X203954819Y-85214285D01*
X203954819Y-85214285D02*
X203907200Y-85309523D01*
X203907200Y-85309523D02*
X203859580Y-85357142D01*
X212039580Y-102129166D02*
X212087200Y-102176785D01*
X212087200Y-102176785D02*
X212134819Y-102319642D01*
X212134819Y-102319642D02*
X212134819Y-102414880D01*
X212134819Y-102414880D02*
X212087200Y-102557737D01*
X212087200Y-102557737D02*
X211991961Y-102652975D01*
X211991961Y-102652975D02*
X211896723Y-102700594D01*
X211896723Y-102700594D02*
X211706247Y-102748213D01*
X211706247Y-102748213D02*
X211563390Y-102748213D01*
X211563390Y-102748213D02*
X211372914Y-102700594D01*
X211372914Y-102700594D02*
X211277676Y-102652975D01*
X211277676Y-102652975D02*
X211182438Y-102557737D01*
X211182438Y-102557737D02*
X211134819Y-102414880D01*
X211134819Y-102414880D02*
X211134819Y-102319642D01*
X211134819Y-102319642D02*
X211182438Y-102176785D01*
X211182438Y-102176785D02*
X211230057Y-102129166D01*
X211563390Y-101557737D02*
X211515771Y-101652975D01*
X211515771Y-101652975D02*
X211468152Y-101700594D01*
X211468152Y-101700594D02*
X211372914Y-101748213D01*
X211372914Y-101748213D02*
X211325295Y-101748213D01*
X211325295Y-101748213D02*
X211230057Y-101700594D01*
X211230057Y-101700594D02*
X211182438Y-101652975D01*
X211182438Y-101652975D02*
X211134819Y-101557737D01*
X211134819Y-101557737D02*
X211134819Y-101367261D01*
X211134819Y-101367261D02*
X211182438Y-101272023D01*
X211182438Y-101272023D02*
X211230057Y-101224404D01*
X211230057Y-101224404D02*
X211325295Y-101176785D01*
X211325295Y-101176785D02*
X211372914Y-101176785D01*
X211372914Y-101176785D02*
X211468152Y-101224404D01*
X211468152Y-101224404D02*
X211515771Y-101272023D01*
X211515771Y-101272023D02*
X211563390Y-101367261D01*
X211563390Y-101367261D02*
X211563390Y-101557737D01*
X211563390Y-101557737D02*
X211611009Y-101652975D01*
X211611009Y-101652975D02*
X211658628Y-101700594D01*
X211658628Y-101700594D02*
X211753866Y-101748213D01*
X211753866Y-101748213D02*
X211944342Y-101748213D01*
X211944342Y-101748213D02*
X212039580Y-101700594D01*
X212039580Y-101700594D02*
X212087200Y-101652975D01*
X212087200Y-101652975D02*
X212134819Y-101557737D01*
X212134819Y-101557737D02*
X212134819Y-101367261D01*
X212134819Y-101367261D02*
X212087200Y-101272023D01*
X212087200Y-101272023D02*
X212039580Y-101224404D01*
X212039580Y-101224404D02*
X211944342Y-101176785D01*
X211944342Y-101176785D02*
X211753866Y-101176785D01*
X211753866Y-101176785D02*
X211658628Y-101224404D01*
X211658628Y-101224404D02*
X211611009Y-101272023D01*
X211611009Y-101272023D02*
X211563390Y-101367261D01*
X221857142Y-120859580D02*
X221809523Y-120907200D01*
X221809523Y-120907200D02*
X221666666Y-120954819D01*
X221666666Y-120954819D02*
X221571428Y-120954819D01*
X221571428Y-120954819D02*
X221428571Y-120907200D01*
X221428571Y-120907200D02*
X221333333Y-120811961D01*
X221333333Y-120811961D02*
X221285714Y-120716723D01*
X221285714Y-120716723D02*
X221238095Y-120526247D01*
X221238095Y-120526247D02*
X221238095Y-120383390D01*
X221238095Y-120383390D02*
X221285714Y-120192914D01*
X221285714Y-120192914D02*
X221333333Y-120097676D01*
X221333333Y-120097676D02*
X221428571Y-120002438D01*
X221428571Y-120002438D02*
X221571428Y-119954819D01*
X221571428Y-119954819D02*
X221666666Y-119954819D01*
X221666666Y-119954819D02*
X221809523Y-120002438D01*
X221809523Y-120002438D02*
X221857142Y-120050057D01*
X222809523Y-120954819D02*
X222238095Y-120954819D01*
X222523809Y-120954819D02*
X222523809Y-119954819D01*
X222523809Y-119954819D02*
X222428571Y-120097676D01*
X222428571Y-120097676D02*
X222333333Y-120192914D01*
X222333333Y-120192914D02*
X222238095Y-120240533D01*
X223190476Y-120050057D02*
X223238095Y-120002438D01*
X223238095Y-120002438D02*
X223333333Y-119954819D01*
X223333333Y-119954819D02*
X223571428Y-119954819D01*
X223571428Y-119954819D02*
X223666666Y-120002438D01*
X223666666Y-120002438D02*
X223714285Y-120050057D01*
X223714285Y-120050057D02*
X223761904Y-120145295D01*
X223761904Y-120145295D02*
X223761904Y-120240533D01*
X223761904Y-120240533D02*
X223714285Y-120383390D01*
X223714285Y-120383390D02*
X223142857Y-120954819D01*
X223142857Y-120954819D02*
X223761904Y-120954819D01*
X210679819Y-119761904D02*
X211489342Y-119761904D01*
X211489342Y-119761904D02*
X211584580Y-119714285D01*
X211584580Y-119714285D02*
X211632200Y-119666666D01*
X211632200Y-119666666D02*
X211679819Y-119571428D01*
X211679819Y-119571428D02*
X211679819Y-119380952D01*
X211679819Y-119380952D02*
X211632200Y-119285714D01*
X211632200Y-119285714D02*
X211584580Y-119238095D01*
X211584580Y-119238095D02*
X211489342Y-119190476D01*
X211489342Y-119190476D02*
X210679819Y-119190476D01*
X210679819Y-118809523D02*
X210679819Y-118190476D01*
X210679819Y-118190476D02*
X211060771Y-118523809D01*
X211060771Y-118523809D02*
X211060771Y-118380952D01*
X211060771Y-118380952D02*
X211108390Y-118285714D01*
X211108390Y-118285714D02*
X211156009Y-118238095D01*
X211156009Y-118238095D02*
X211251247Y-118190476D01*
X211251247Y-118190476D02*
X211489342Y-118190476D01*
X211489342Y-118190476D02*
X211584580Y-118238095D01*
X211584580Y-118238095D02*
X211632200Y-118285714D01*
X211632200Y-118285714D02*
X211679819Y-118380952D01*
X211679819Y-118380952D02*
X211679819Y-118666666D01*
X211679819Y-118666666D02*
X211632200Y-118761904D01*
X211632200Y-118761904D02*
X211584580Y-118809523D01*
X215833333Y-105179580D02*
X215785714Y-105227200D01*
X215785714Y-105227200D02*
X215642857Y-105274819D01*
X215642857Y-105274819D02*
X215547619Y-105274819D01*
X215547619Y-105274819D02*
X215404762Y-105227200D01*
X215404762Y-105227200D02*
X215309524Y-105131961D01*
X215309524Y-105131961D02*
X215261905Y-105036723D01*
X215261905Y-105036723D02*
X215214286Y-104846247D01*
X215214286Y-104846247D02*
X215214286Y-104703390D01*
X215214286Y-104703390D02*
X215261905Y-104512914D01*
X215261905Y-104512914D02*
X215309524Y-104417676D01*
X215309524Y-104417676D02*
X215404762Y-104322438D01*
X215404762Y-104322438D02*
X215547619Y-104274819D01*
X215547619Y-104274819D02*
X215642857Y-104274819D01*
X215642857Y-104274819D02*
X215785714Y-104322438D01*
X215785714Y-104322438D02*
X215833333Y-104370057D01*
X216738095Y-104274819D02*
X216261905Y-104274819D01*
X216261905Y-104274819D02*
X216214286Y-104751009D01*
X216214286Y-104751009D02*
X216261905Y-104703390D01*
X216261905Y-104703390D02*
X216357143Y-104655771D01*
X216357143Y-104655771D02*
X216595238Y-104655771D01*
X216595238Y-104655771D02*
X216690476Y-104703390D01*
X216690476Y-104703390D02*
X216738095Y-104751009D01*
X216738095Y-104751009D02*
X216785714Y-104846247D01*
X216785714Y-104846247D02*
X216785714Y-105084342D01*
X216785714Y-105084342D02*
X216738095Y-105179580D01*
X216738095Y-105179580D02*
X216690476Y-105227200D01*
X216690476Y-105227200D02*
X216595238Y-105274819D01*
X216595238Y-105274819D02*
X216357143Y-105274819D01*
X216357143Y-105274819D02*
X216261905Y-105227200D01*
X216261905Y-105227200D02*
X216214286Y-105179580D01*
X196166667Y-121954819D02*
X196500000Y-122954819D01*
X196500000Y-122954819D02*
X196833333Y-121954819D01*
X197738095Y-122859580D02*
X197690476Y-122907200D01*
X197690476Y-122907200D02*
X197547619Y-122954819D01*
X197547619Y-122954819D02*
X197452381Y-122954819D01*
X197452381Y-122954819D02*
X197309524Y-122907200D01*
X197309524Y-122907200D02*
X197214286Y-122811961D01*
X197214286Y-122811961D02*
X197166667Y-122716723D01*
X197166667Y-122716723D02*
X197119048Y-122526247D01*
X197119048Y-122526247D02*
X197119048Y-122383390D01*
X197119048Y-122383390D02*
X197166667Y-122192914D01*
X197166667Y-122192914D02*
X197214286Y-122097676D01*
X197214286Y-122097676D02*
X197309524Y-122002438D01*
X197309524Y-122002438D02*
X197452381Y-121954819D01*
X197452381Y-121954819D02*
X197547619Y-121954819D01*
X197547619Y-121954819D02*
X197690476Y-122002438D01*
X197690476Y-122002438D02*
X197738095Y-122050057D01*
X198738095Y-122859580D02*
X198690476Y-122907200D01*
X198690476Y-122907200D02*
X198547619Y-122954819D01*
X198547619Y-122954819D02*
X198452381Y-122954819D01*
X198452381Y-122954819D02*
X198309524Y-122907200D01*
X198309524Y-122907200D02*
X198214286Y-122811961D01*
X198214286Y-122811961D02*
X198166667Y-122716723D01*
X198166667Y-122716723D02*
X198119048Y-122526247D01*
X198119048Y-122526247D02*
X198119048Y-122383390D01*
X198119048Y-122383390D02*
X198166667Y-122192914D01*
X198166667Y-122192914D02*
X198214286Y-122097676D01*
X198214286Y-122097676D02*
X198309524Y-122002438D01*
X198309524Y-122002438D02*
X198452381Y-121954819D01*
X198452381Y-121954819D02*
X198547619Y-121954819D01*
X198547619Y-121954819D02*
X198690476Y-122002438D01*
X198690476Y-122002438D02*
X198738095Y-122050057D01*
X208333333Y-116104819D02*
X208000000Y-115628628D01*
X207761905Y-116104819D02*
X207761905Y-115104819D01*
X207761905Y-115104819D02*
X208142857Y-115104819D01*
X208142857Y-115104819D02*
X208238095Y-115152438D01*
X208238095Y-115152438D02*
X208285714Y-115200057D01*
X208285714Y-115200057D02*
X208333333Y-115295295D01*
X208333333Y-115295295D02*
X208333333Y-115438152D01*
X208333333Y-115438152D02*
X208285714Y-115533390D01*
X208285714Y-115533390D02*
X208238095Y-115581009D01*
X208238095Y-115581009D02*
X208142857Y-115628628D01*
X208142857Y-115628628D02*
X207761905Y-115628628D01*
X208714286Y-115200057D02*
X208761905Y-115152438D01*
X208761905Y-115152438D02*
X208857143Y-115104819D01*
X208857143Y-115104819D02*
X209095238Y-115104819D01*
X209095238Y-115104819D02*
X209190476Y-115152438D01*
X209190476Y-115152438D02*
X209238095Y-115200057D01*
X209238095Y-115200057D02*
X209285714Y-115295295D01*
X209285714Y-115295295D02*
X209285714Y-115390533D01*
X209285714Y-115390533D02*
X209238095Y-115533390D01*
X209238095Y-115533390D02*
X208666667Y-116104819D01*
X208666667Y-116104819D02*
X209285714Y-116104819D01*
X235738095Y-95502438D02*
X235642857Y-95454819D01*
X235642857Y-95454819D02*
X235500000Y-95454819D01*
X235500000Y-95454819D02*
X235357143Y-95502438D01*
X235357143Y-95502438D02*
X235261905Y-95597676D01*
X235261905Y-95597676D02*
X235214286Y-95692914D01*
X235214286Y-95692914D02*
X235166667Y-95883390D01*
X235166667Y-95883390D02*
X235166667Y-96026247D01*
X235166667Y-96026247D02*
X235214286Y-96216723D01*
X235214286Y-96216723D02*
X235261905Y-96311961D01*
X235261905Y-96311961D02*
X235357143Y-96407200D01*
X235357143Y-96407200D02*
X235500000Y-96454819D01*
X235500000Y-96454819D02*
X235595238Y-96454819D01*
X235595238Y-96454819D02*
X235738095Y-96407200D01*
X235738095Y-96407200D02*
X235785714Y-96359580D01*
X235785714Y-96359580D02*
X235785714Y-96026247D01*
X235785714Y-96026247D02*
X235595238Y-96026247D01*
X236214286Y-96454819D02*
X236214286Y-95454819D01*
X236214286Y-95454819D02*
X236785714Y-96454819D01*
X236785714Y-96454819D02*
X236785714Y-95454819D01*
X237261905Y-96454819D02*
X237261905Y-95454819D01*
X237261905Y-95454819D02*
X237500000Y-95454819D01*
X237500000Y-95454819D02*
X237642857Y-95502438D01*
X237642857Y-95502438D02*
X237738095Y-95597676D01*
X237738095Y-95597676D02*
X237785714Y-95692914D01*
X237785714Y-95692914D02*
X237833333Y-95883390D01*
X237833333Y-95883390D02*
X237833333Y-96026247D01*
X237833333Y-96026247D02*
X237785714Y-96216723D01*
X237785714Y-96216723D02*
X237738095Y-96311961D01*
X237738095Y-96311961D02*
X237642857Y-96407200D01*
X237642857Y-96407200D02*
X237500000Y-96454819D01*
X237500000Y-96454819D02*
X237261905Y-96454819D01*
X208179580Y-122605357D02*
X208227200Y-122652976D01*
X208227200Y-122652976D02*
X208274819Y-122795833D01*
X208274819Y-122795833D02*
X208274819Y-122891071D01*
X208274819Y-122891071D02*
X208227200Y-123033928D01*
X208227200Y-123033928D02*
X208131961Y-123129166D01*
X208131961Y-123129166D02*
X208036723Y-123176785D01*
X208036723Y-123176785D02*
X207846247Y-123224404D01*
X207846247Y-123224404D02*
X207703390Y-123224404D01*
X207703390Y-123224404D02*
X207512914Y-123176785D01*
X207512914Y-123176785D02*
X207417676Y-123129166D01*
X207417676Y-123129166D02*
X207322438Y-123033928D01*
X207322438Y-123033928D02*
X207274819Y-122891071D01*
X207274819Y-122891071D02*
X207274819Y-122795833D01*
X207274819Y-122795833D02*
X207322438Y-122652976D01*
X207322438Y-122652976D02*
X207370057Y-122605357D01*
X208274819Y-121652976D02*
X208274819Y-122224404D01*
X208274819Y-121938690D02*
X207274819Y-121938690D01*
X207274819Y-121938690D02*
X207417676Y-122033928D01*
X207417676Y-122033928D02*
X207512914Y-122129166D01*
X207512914Y-122129166D02*
X207560533Y-122224404D01*
X207274819Y-121033928D02*
X207274819Y-120938690D01*
X207274819Y-120938690D02*
X207322438Y-120843452D01*
X207322438Y-120843452D02*
X207370057Y-120795833D01*
X207370057Y-120795833D02*
X207465295Y-120748214D01*
X207465295Y-120748214D02*
X207655771Y-120700595D01*
X207655771Y-120700595D02*
X207893866Y-120700595D01*
X207893866Y-120700595D02*
X208084342Y-120748214D01*
X208084342Y-120748214D02*
X208179580Y-120795833D01*
X208179580Y-120795833D02*
X208227200Y-120843452D01*
X208227200Y-120843452D02*
X208274819Y-120938690D01*
X208274819Y-120938690D02*
X208274819Y-121033928D01*
X208274819Y-121033928D02*
X208227200Y-121129166D01*
X208227200Y-121129166D02*
X208179580Y-121176785D01*
X208179580Y-121176785D02*
X208084342Y-121224404D01*
X208084342Y-121224404D02*
X207893866Y-121272023D01*
X207893866Y-121272023D02*
X207655771Y-121272023D01*
X207655771Y-121272023D02*
X207465295Y-121224404D01*
X207465295Y-121224404D02*
X207370057Y-121176785D01*
X207370057Y-121176785D02*
X207322438Y-121129166D01*
X207322438Y-121129166D02*
X207274819Y-121033928D01*
X226454819Y-76095237D02*
X227264342Y-76095237D01*
X227264342Y-76095237D02*
X227359580Y-76047618D01*
X227359580Y-76047618D02*
X227407200Y-75999999D01*
X227407200Y-75999999D02*
X227454819Y-75904761D01*
X227454819Y-75904761D02*
X227454819Y-75714285D01*
X227454819Y-75714285D02*
X227407200Y-75619047D01*
X227407200Y-75619047D02*
X227359580Y-75571428D01*
X227359580Y-75571428D02*
X227264342Y-75523809D01*
X227264342Y-75523809D02*
X226454819Y-75523809D01*
X227169104Y-75095237D02*
X227169104Y-74619047D01*
X227454819Y-75190475D02*
X226454819Y-74857142D01*
X226454819Y-74857142D02*
X227454819Y-74523809D01*
X227454819Y-73619047D02*
X226978628Y-73952380D01*
X227454819Y-74190475D02*
X226454819Y-74190475D01*
X226454819Y-74190475D02*
X226454819Y-73809523D01*
X226454819Y-73809523D02*
X226502438Y-73714285D01*
X226502438Y-73714285D02*
X226550057Y-73666666D01*
X226550057Y-73666666D02*
X226645295Y-73619047D01*
X226645295Y-73619047D02*
X226788152Y-73619047D01*
X226788152Y-73619047D02*
X226883390Y-73666666D01*
X226883390Y-73666666D02*
X226931009Y-73714285D01*
X226931009Y-73714285D02*
X226978628Y-73809523D01*
X226978628Y-73809523D02*
X226978628Y-74190475D01*
X226454819Y-73333332D02*
X226454819Y-72761904D01*
X227454819Y-73047618D02*
X226454819Y-73047618D01*
X223039580Y-102166666D02*
X223087200Y-102214285D01*
X223087200Y-102214285D02*
X223134819Y-102357142D01*
X223134819Y-102357142D02*
X223134819Y-102452380D01*
X223134819Y-102452380D02*
X223087200Y-102595237D01*
X223087200Y-102595237D02*
X222991961Y-102690475D01*
X222991961Y-102690475D02*
X222896723Y-102738094D01*
X222896723Y-102738094D02*
X222706247Y-102785713D01*
X222706247Y-102785713D02*
X222563390Y-102785713D01*
X222563390Y-102785713D02*
X222372914Y-102738094D01*
X222372914Y-102738094D02*
X222277676Y-102690475D01*
X222277676Y-102690475D02*
X222182438Y-102595237D01*
X222182438Y-102595237D02*
X222134819Y-102452380D01*
X222134819Y-102452380D02*
X222134819Y-102357142D01*
X222134819Y-102357142D02*
X222182438Y-102214285D01*
X222182438Y-102214285D02*
X222230057Y-102166666D01*
X222134819Y-101833332D02*
X222134819Y-101166666D01*
X222134819Y-101166666D02*
X223134819Y-101595237D01*
X202833333Y-78454819D02*
X202500000Y-77978628D01*
X202261905Y-78454819D02*
X202261905Y-77454819D01*
X202261905Y-77454819D02*
X202642857Y-77454819D01*
X202642857Y-77454819D02*
X202738095Y-77502438D01*
X202738095Y-77502438D02*
X202785714Y-77550057D01*
X202785714Y-77550057D02*
X202833333Y-77645295D01*
X202833333Y-77645295D02*
X202833333Y-77788152D01*
X202833333Y-77788152D02*
X202785714Y-77883390D01*
X202785714Y-77883390D02*
X202738095Y-77931009D01*
X202738095Y-77931009D02*
X202642857Y-77978628D01*
X202642857Y-77978628D02*
X202261905Y-77978628D01*
X203785714Y-78454819D02*
X203214286Y-78454819D01*
X203500000Y-78454819D02*
X203500000Y-77454819D01*
X203500000Y-77454819D02*
X203404762Y-77597676D01*
X203404762Y-77597676D02*
X203309524Y-77692914D01*
X203309524Y-77692914D02*
X203214286Y-77740533D01*
X212333333Y-110359580D02*
X212285714Y-110407200D01*
X212285714Y-110407200D02*
X212142857Y-110454819D01*
X212142857Y-110454819D02*
X212047619Y-110454819D01*
X212047619Y-110454819D02*
X211904762Y-110407200D01*
X211904762Y-110407200D02*
X211809524Y-110311961D01*
X211809524Y-110311961D02*
X211761905Y-110216723D01*
X211761905Y-110216723D02*
X211714286Y-110026247D01*
X211714286Y-110026247D02*
X211714286Y-109883390D01*
X211714286Y-109883390D02*
X211761905Y-109692914D01*
X211761905Y-109692914D02*
X211809524Y-109597676D01*
X211809524Y-109597676D02*
X211904762Y-109502438D01*
X211904762Y-109502438D02*
X212047619Y-109454819D01*
X212047619Y-109454819D02*
X212142857Y-109454819D01*
X212142857Y-109454819D02*
X212285714Y-109502438D01*
X212285714Y-109502438D02*
X212333333Y-109550057D01*
X212809524Y-110454819D02*
X213000000Y-110454819D01*
X213000000Y-110454819D02*
X213095238Y-110407200D01*
X213095238Y-110407200D02*
X213142857Y-110359580D01*
X213142857Y-110359580D02*
X213238095Y-110216723D01*
X213238095Y-110216723D02*
X213285714Y-110026247D01*
X213285714Y-110026247D02*
X213285714Y-109645295D01*
X213285714Y-109645295D02*
X213238095Y-109550057D01*
X213238095Y-109550057D02*
X213190476Y-109502438D01*
X213190476Y-109502438D02*
X213095238Y-109454819D01*
X213095238Y-109454819D02*
X212904762Y-109454819D01*
X212904762Y-109454819D02*
X212809524Y-109502438D01*
X212809524Y-109502438D02*
X212761905Y-109550057D01*
X212761905Y-109550057D02*
X212714286Y-109645295D01*
X212714286Y-109645295D02*
X212714286Y-109883390D01*
X212714286Y-109883390D02*
X212761905Y-109978628D01*
X212761905Y-109978628D02*
X212809524Y-110026247D01*
X212809524Y-110026247D02*
X212904762Y-110073866D01*
X212904762Y-110073866D02*
X213095238Y-110073866D01*
X213095238Y-110073866D02*
X213190476Y-110026247D01*
X213190476Y-110026247D02*
X213238095Y-109978628D01*
X213238095Y-109978628D02*
X213285714Y-109883390D01*
%TO.C,C1*%
D11*
X197738748Y-71765000D02*
X198261252Y-71765000D01*
X197738748Y-73235000D02*
X198261252Y-73235000D01*
%TO.C,GND*%
X237950000Y-109500000D02*
G75*
G02*
X235050000Y-109500000I-1450000J0D01*
G01*
X235050000Y-109500000D02*
G75*
G02*
X237950000Y-109500000I1450000J0D01*
G01*
%TO.C,R9*%
X217765000Y-112272936D02*
X217765000Y-112727064D01*
X219235000Y-112272936D02*
X219235000Y-112727064D01*
%TO.C,L1*%
X224390000Y-112140000D02*
X225440000Y-112140000D01*
X224390000Y-118860000D02*
X224390000Y-112140000D01*
X225440000Y-118860000D02*
X224390000Y-118860000D01*
X229560000Y-112140000D02*
X230610000Y-112140000D01*
X230610000Y-112140000D02*
X230610000Y-118860000D01*
X230610000Y-118860000D02*
X229560000Y-118860000D01*
%TO.C,C6*%
X219765000Y-96701248D02*
X219765000Y-97223752D01*
X221235000Y-96701248D02*
X221235000Y-97223752D01*
%TO.C,TP10*%
X233950000Y-93500000D02*
G75*
G02*
X231050000Y-93500000I-1450000J0D01*
G01*
X231050000Y-93500000D02*
G75*
G02*
X233950000Y-93500000I1450000J0D01*
G01*
%TO.C,C3*%
X202238748Y-71765000D02*
X202761252Y-71765000D01*
X202238748Y-73235000D02*
X202761252Y-73235000D01*
%TO.C,VCC*%
X196950000Y-109500000D02*
G75*
G02*
X194050000Y-109500000I-1450000J0D01*
G01*
X194050000Y-109500000D02*
G75*
G02*
X196950000Y-109500000I1450000J0D01*
G01*
%TO.C,S2*%
X194550000Y-104550000D02*
X196450000Y-104550000D01*
X194550000Y-106450000D02*
X194550000Y-104550000D01*
X196450000Y-104550000D02*
X196450000Y-106450000D01*
X196450000Y-106450000D02*
X194550000Y-106450000D01*
%TO.C,R11*%
X217765000Y-119772936D02*
X217765000Y-120227064D01*
X219235000Y-119772936D02*
X219235000Y-120227064D01*
%TO.C,GND*%
X224550000Y-121050000D02*
X227450000Y-121050000D01*
X224550000Y-123950000D02*
X224550000Y-121050000D01*
X227450000Y-121050000D02*
X227450000Y-123950000D01*
X227450000Y-123950000D02*
X224550000Y-123950000D01*
%TO.C,R8*%
X208727064Y-116765000D02*
X208272936Y-116765000D01*
X208727064Y-118235000D02*
X208272936Y-118235000D01*
%TO.C,S3*%
X232050000Y-104550000D02*
X233950000Y-104550000D01*
X232050000Y-106450000D02*
X232050000Y-104550000D01*
X233950000Y-104550000D02*
X233950000Y-106450000D01*
X233950000Y-106450000D02*
X232050000Y-106450000D01*
%TO.C,R4*%
X213765000Y-95227064D02*
X213765000Y-94772936D01*
X215235000Y-95227064D02*
X215235000Y-94772936D01*
%TO.C,R3*%
X210265000Y-95227064D02*
X210265000Y-94772936D01*
X211735000Y-95227064D02*
X211735000Y-94772936D01*
%TO.C,S1*%
X194550000Y-89550000D02*
X196450000Y-89550000D01*
X194550000Y-91450000D02*
X194550000Y-89550000D01*
X196450000Y-89550000D02*
X196450000Y-91450000D01*
X196450000Y-91450000D02*
X194550000Y-91450000D01*
%TO.C,R7*%
X208272936Y-110765000D02*
X208727064Y-110765000D01*
X208272936Y-112235000D02*
X208727064Y-112235000D01*
%TO.C,S4*%
X232050000Y-88550000D02*
X233950000Y-88550000D01*
X232050000Y-90450000D02*
X232050000Y-88550000D01*
X233950000Y-88550000D02*
X233950000Y-90450000D01*
X233950000Y-90450000D02*
X232050000Y-90450000D01*
%TO.C,TP17*%
X235050000Y-88550000D02*
X236950000Y-88550000D01*
X235050000Y-90450000D02*
X235050000Y-88550000D01*
X236950000Y-88550000D02*
X236950000Y-90450000D01*
X236950000Y-90450000D02*
X235050000Y-90450000D01*
%TO.C,U2*%
D12*
X213500000Y-98000000D02*
X213500000Y-98295000D01*
X213500000Y-98000000D02*
X213795000Y-98000000D01*
X213500000Y-102000000D02*
X213500000Y-101705000D01*
X213500000Y-102000000D02*
X213795000Y-102000000D01*
X217500000Y-98000000D02*
X217205000Y-98000000D01*
X217500000Y-98000000D02*
X217500000Y-98295000D01*
X217500000Y-102000000D02*
X217205000Y-102000000D01*
X217500000Y-102000000D02*
X217500000Y-101705000D01*
D13*
X212600000Y-98750000D02*
G75*
G02*
X212400000Y-98750000I-100000J0D01*
G01*
X212400000Y-98750000D02*
G75*
G02*
X212600000Y-98750000I100000J0D01*
G01*
%TO.C,GND*%
D11*
X192450000Y-109500000D02*
G75*
G02*
X189550000Y-109500000I-1450000J0D01*
G01*
X189550000Y-109500000D02*
G75*
G02*
X192450000Y-109500000I1450000J0D01*
G01*
%TO.C,VCC*%
X233950000Y-109500000D02*
G75*
G02*
X231050000Y-109500000I-1450000J0D01*
G01*
X231050000Y-109500000D02*
G75*
G02*
X233950000Y-109500000I1450000J0D01*
G01*
%TO.C,GND*%
X192450000Y-94000000D02*
G75*
G02*
X189550000Y-94000000I-1450000J0D01*
G01*
X189550000Y-94000000D02*
G75*
G02*
X192450000Y-94000000I1450000J0D01*
G01*
%TO.C,U1*%
D12*
X206165000Y-63675000D02*
X224165000Y-63675000D01*
X206165000Y-70175000D02*
X206165000Y-63675000D01*
X206165000Y-88525000D02*
X206165000Y-89175000D01*
X206165000Y-89175000D02*
X208615000Y-89175000D01*
X221715000Y-89175000D02*
X224165000Y-89175000D01*
X224165000Y-63675000D02*
X224165000Y-70175000D01*
X224165000Y-89175000D02*
X224165000Y-88525000D01*
D13*
X205265000Y-71175000D02*
G75*
G02*
X205065000Y-71175000I-100000J0D01*
G01*
X205065000Y-71175000D02*
G75*
G02*
X205265000Y-71175000I100000J0D01*
G01*
%TO.C,R10*%
D11*
X219272936Y-115765000D02*
X219727064Y-115765000D01*
X219272936Y-117235000D02*
X219727064Y-117235000D01*
%TO.C,LED*%
X192050000Y-89550000D02*
X193950000Y-89550000D01*
X192050000Y-91450000D02*
X192050000Y-89550000D01*
X193950000Y-89550000D02*
X193950000Y-91450000D01*
X193950000Y-91450000D02*
X192050000Y-91450000D01*
%TO.C,C11*%
X214765000Y-112761252D02*
X214765000Y-112238748D01*
X216235000Y-112761252D02*
X216235000Y-112238748D01*
%TO.C,LED*%
X191550000Y-104550000D02*
X193450000Y-104550000D01*
X191550000Y-106450000D02*
X191550000Y-104550000D01*
X193450000Y-104550000D02*
X193450000Y-106450000D01*
X193450000Y-106450000D02*
X191550000Y-106450000D01*
%TO.C,VCC*%
X196950000Y-94000000D02*
G75*
G02*
X194050000Y-94000000I-1450000J0D01*
G01*
X194050000Y-94000000D02*
G75*
G02*
X196950000Y-94000000I1450000J0D01*
G01*
%TO.C,EN*%
X196175000Y-78350000D02*
X200375000Y-78350000D01*
X196175000Y-78740000D02*
X196175000Y-78350000D01*
X196175000Y-81260000D02*
X196175000Y-81650000D01*
X196175000Y-81650000D02*
X200375000Y-81650000D01*
X200375000Y-78350000D02*
X200375000Y-78740000D01*
X200375000Y-81650000D02*
X200375000Y-81260000D01*
%TO.C,C2*%
X197738748Y-74765000D02*
X198261252Y-74765000D01*
X197738748Y-76235000D02*
X198261252Y-76235000D01*
%TO.C,LED*%
X235050000Y-104550000D02*
X236950000Y-104550000D01*
X235050000Y-106450000D02*
X235050000Y-104550000D01*
X236950000Y-104550000D02*
X236950000Y-106450000D01*
X236950000Y-106450000D02*
X235050000Y-106450000D01*
%TO.C,BOOT*%
X235850000Y-80625000D02*
X236240000Y-80625000D01*
X235850000Y-84825000D02*
X235850000Y-80625000D01*
X236240000Y-84825000D02*
X235850000Y-84825000D01*
X238760000Y-84825000D02*
X239150000Y-84825000D01*
X239150000Y-80625000D02*
X238760000Y-80625000D01*
X239150000Y-84825000D02*
X239150000Y-80625000D01*
%TO.C,C13*%
X202832500Y-82276248D02*
X202832500Y-82798752D01*
X204302500Y-82276248D02*
X204302500Y-82798752D01*
%TO.C,C8*%
X209265000Y-101701248D02*
X209265000Y-102223752D01*
X210735000Y-101701248D02*
X210735000Y-102223752D01*
%TO.C,C12*%
X221765000Y-117238748D02*
X221765000Y-117761252D01*
X223235000Y-117238748D02*
X223235000Y-117761252D01*
%TO.C,U3*%
X212065000Y-116940000D02*
X212160000Y-116940000D01*
X212065000Y-121060000D02*
X212065000Y-116940000D01*
X212160000Y-121060000D02*
X212065000Y-121060000D01*
X217090000Y-116940000D02*
X217185000Y-116940000D01*
X217185000Y-116940000D02*
X217185000Y-121060000D01*
X217185000Y-121060000D02*
X217090000Y-121060000D01*
X212155000Y-121600000D02*
X211825000Y-121840000D01*
X211825000Y-121360000D01*
X212155000Y-121600000D01*
G36*
X212155000Y-121600000D02*
G01*
X211825000Y-121840000D01*
X211825000Y-121360000D01*
X212155000Y-121600000D01*
G37*
%TO.C,C5*%
X215738748Y-105765000D02*
X216261252Y-105765000D01*
X215738748Y-107235000D02*
X216261252Y-107235000D01*
%TO.C,VCC*%
X200050000Y-121050000D02*
X202950000Y-121050000D01*
X200050000Y-123950000D02*
X200050000Y-121050000D01*
X202950000Y-121050000D02*
X202950000Y-123950000D01*
X202950000Y-123950000D02*
X200050000Y-123950000D01*
%TO.C,R2*%
X208727064Y-113265000D02*
X208272936Y-113265000D01*
X208727064Y-114735000D02*
X208272936Y-114735000D01*
%TO.C,GND*%
X237950000Y-93500000D02*
G75*
G02*
X235050000Y-93500000I-1450000J0D01*
G01*
X235050000Y-93500000D02*
G75*
G02*
X237950000Y-93500000I1450000J0D01*
G01*
%TO.C,C10*%
X208765000Y-122223752D02*
X208765000Y-121701248D01*
X210235000Y-122223752D02*
X210235000Y-121701248D01*
%TO.C,UART*%
X228620000Y-70620000D02*
X230000000Y-70620000D01*
X228620000Y-72000000D02*
X228620000Y-70620000D01*
X228620000Y-73270000D02*
X228620000Y-78460000D01*
X228620000Y-73270000D02*
X231380000Y-73270000D01*
X228620000Y-78460000D02*
X231380000Y-78460000D01*
X231380000Y-73270000D02*
X231380000Y-78460000D01*
%TO.C,C7*%
X220265000Y-101738748D02*
X220265000Y-102261252D01*
X221735000Y-101738748D02*
X221735000Y-102261252D01*
%TO.C,R1*%
X202272936Y-74765000D02*
X202727064Y-74765000D01*
X202272936Y-76235000D02*
X202727064Y-76235000D01*
%TO.C,C9*%
X211765000Y-112761252D02*
X211765000Y-112238748D01*
X213235000Y-112761252D02*
X213235000Y-112238748D01*
%TD*%
M02*
