M48
; DRILL file KiCad 10.0.0 date 2026-04-17T11:27:50
; FORMAT={-:-/ absolute / metric / decimal}
; #@! TF.CreationDate,2026-04-17T11:27:50+07:00
; #@! TF.GenerationSoftware,Kicad,Pcbnew,10.0.0
; #@! TF.FileFunction,Plated,1,2,PTH
FMAT,2
METRIC
; #@! TA.AperFunction,Plated,PTH,ComponentDrill
T1C0.200
; #@! TA.AperFunction,Plated,PTH,ViaDrill
T2C0.300
; #@! TA.AperFunction,Plated,PTH,ComponentDrill
T3C1.000
; #@! TA.AperFunction,Plated,PTH,ComponentDrill
T4C1.200
%
G90
G05
T1
X212.33Y-77.748
X212.33Y-79.582
X213.248Y-76.83
X213.248Y-78.665
X213.248Y-80.5
X214.165Y-77.748
X214.165Y-79.582
X215.082Y-76.83
X215.082Y-78.665
X215.082Y-80.5
X216.0Y-77.748
X216.0Y-79.582
T2
X199.0Y-75.5
X199.037Y-72.5
X206.665Y-72.435
X209.5Y-117.5
X209.5Y-123.0
X210.0Y-103.0
X211.0Y-94.0
X211.0Y-96.0
X213.99Y-116.52
X214.5Y-94.0
X214.5Y-96.0
X215.26Y-121.48
X220.981Y-103.019
X223.4Y-77.515
X223.665Y-87.675
X224.0Y-74.0
X233.25Y-83.75
T3
X230.0Y-72.0
X230.0Y-74.54
X230.0Y-77.08
T4
X191.0Y-94.0
X191.0Y-109.5
X195.5Y-94.0
X195.5Y-109.5
X201.5Y-122.5
X226.0Y-122.5
X232.5Y-93.5
X232.5Y-109.5
X236.5Y-93.5
X236.5Y-109.5
M30
