%TF.GenerationSoftware,KiCad,Pcbnew,10.0.0*%
%TF.CreationDate,2026-04-17T11:27:27+07:00*%
%TF.ProjectId,drone,64726f6e-652e-46b6-9963-61645f706362,rev?*%
%TF.SameCoordinates,Original*%
%TF.FileFunction,Legend,Bot*%
%TF.FilePolarity,Positive*%
%FSLAX46Y46*%
G04 Gerber Fmt 4.6, Leading zero omitted, Abs format (unit mm)*
G04 Created by KiCad (PCBNEW 10.0.0) date 2026-04-17 11:27:27*
%MOMM*%
%LPD*%
G01*
G04 APERTURE LIST*
%ADD10C,0.100000*%
%ADD11C,0.000000*%
G04 APERTURE END LIST*
D10*
X219690476Y-122762475D02*
X219690476Y-121762475D01*
X219690476Y-121762475D02*
X219452381Y-121762475D01*
X219452381Y-121762475D02*
X219309524Y-121810094D01*
X219309524Y-121810094D02*
X219214286Y-121905332D01*
X219214286Y-121905332D02*
X219166667Y-122000570D01*
X219166667Y-122000570D02*
X219119048Y-122191046D01*
X219119048Y-122191046D02*
X219119048Y-122333903D01*
X219119048Y-122333903D02*
X219166667Y-122524379D01*
X219166667Y-122524379D02*
X219214286Y-122619617D01*
X219214286Y-122619617D02*
X219309524Y-122714856D01*
X219309524Y-122714856D02*
X219452381Y-122762475D01*
X219452381Y-122762475D02*
X219690476Y-122762475D01*
X218309524Y-122714856D02*
X218404762Y-122762475D01*
X218404762Y-122762475D02*
X218595238Y-122762475D01*
X218595238Y-122762475D02*
X218690476Y-122714856D01*
X218690476Y-122714856D02*
X218738095Y-122619617D01*
X218738095Y-122619617D02*
X218738095Y-122238665D01*
X218738095Y-122238665D02*
X218690476Y-122143427D01*
X218690476Y-122143427D02*
X218595238Y-122095808D01*
X218595238Y-122095808D02*
X218404762Y-122095808D01*
X218404762Y-122095808D02*
X218309524Y-122143427D01*
X218309524Y-122143427D02*
X218261905Y-122238665D01*
X218261905Y-122238665D02*
X218261905Y-122333903D01*
X218261905Y-122333903D02*
X218738095Y-122429141D01*
X217880952Y-122714856D02*
X217785714Y-122762475D01*
X217785714Y-122762475D02*
X217595238Y-122762475D01*
X217595238Y-122762475D02*
X217500000Y-122714856D01*
X217500000Y-122714856D02*
X217452381Y-122619617D01*
X217452381Y-122619617D02*
X217452381Y-122571998D01*
X217452381Y-122571998D02*
X217500000Y-122476760D01*
X217500000Y-122476760D02*
X217595238Y-122429141D01*
X217595238Y-122429141D02*
X217738095Y-122429141D01*
X217738095Y-122429141D02*
X217833333Y-122381522D01*
X217833333Y-122381522D02*
X217880952Y-122286284D01*
X217880952Y-122286284D02*
X217880952Y-122238665D01*
X217880952Y-122238665D02*
X217833333Y-122143427D01*
X217833333Y-122143427D02*
X217738095Y-122095808D01*
X217738095Y-122095808D02*
X217595238Y-122095808D01*
X217595238Y-122095808D02*
X217500000Y-122143427D01*
X217023809Y-122762475D02*
X217023809Y-122095808D01*
X217023809Y-121762475D02*
X217071428Y-121810094D01*
X217071428Y-121810094D02*
X217023809Y-121857713D01*
X217023809Y-121857713D02*
X216976190Y-121810094D01*
X216976190Y-121810094D02*
X217023809Y-121762475D01*
X217023809Y-121762475D02*
X217023809Y-121857713D01*
X216119048Y-122095808D02*
X216119048Y-122905332D01*
X216119048Y-122905332D02*
X216166667Y-123000570D01*
X216166667Y-123000570D02*
X216214286Y-123048189D01*
X216214286Y-123048189D02*
X216309524Y-123095808D01*
X216309524Y-123095808D02*
X216452381Y-123095808D01*
X216452381Y-123095808D02*
X216547619Y-123048189D01*
X216119048Y-122714856D02*
X216214286Y-122762475D01*
X216214286Y-122762475D02*
X216404762Y-122762475D01*
X216404762Y-122762475D02*
X216500000Y-122714856D01*
X216500000Y-122714856D02*
X216547619Y-122667236D01*
X216547619Y-122667236D02*
X216595238Y-122571998D01*
X216595238Y-122571998D02*
X216595238Y-122286284D01*
X216595238Y-122286284D02*
X216547619Y-122191046D01*
X216547619Y-122191046D02*
X216500000Y-122143427D01*
X216500000Y-122143427D02*
X216404762Y-122095808D01*
X216404762Y-122095808D02*
X216214286Y-122095808D01*
X216214286Y-122095808D02*
X216119048Y-122143427D01*
X215642857Y-122095808D02*
X215642857Y-122762475D01*
X215642857Y-122191046D02*
X215595238Y-122143427D01*
X215595238Y-122143427D02*
X215500000Y-122095808D01*
X215500000Y-122095808D02*
X215357143Y-122095808D01*
X215357143Y-122095808D02*
X215261905Y-122143427D01*
X215261905Y-122143427D02*
X215214286Y-122238665D01*
X215214286Y-122238665D02*
X215214286Y-122762475D01*
X213976190Y-122762475D02*
X213976190Y-121762475D01*
X213976190Y-122143427D02*
X213880952Y-122095808D01*
X213880952Y-122095808D02*
X213690476Y-122095808D01*
X213690476Y-122095808D02*
X213595238Y-122143427D01*
X213595238Y-122143427D02*
X213547619Y-122191046D01*
X213547619Y-122191046D02*
X213500000Y-122286284D01*
X213500000Y-122286284D02*
X213500000Y-122571998D01*
X213500000Y-122571998D02*
X213547619Y-122667236D01*
X213547619Y-122667236D02*
X213595238Y-122714856D01*
X213595238Y-122714856D02*
X213690476Y-122762475D01*
X213690476Y-122762475D02*
X213880952Y-122762475D01*
X213880952Y-122762475D02*
X213976190Y-122714856D01*
X213166666Y-122095808D02*
X212928571Y-122762475D01*
X212690476Y-122095808D02*
X212928571Y-122762475D01*
X212928571Y-122762475D02*
X213023809Y-123000570D01*
X213023809Y-123000570D02*
X213071428Y-123048189D01*
X213071428Y-123048189D02*
X213166666Y-123095808D01*
X211690475Y-121762475D02*
X211119047Y-121762475D01*
X211404761Y-122762475D02*
X211404761Y-121762475D01*
X210785713Y-122762475D02*
X210785713Y-121762475D01*
X210785713Y-121762475D02*
X210452380Y-122476760D01*
X210452380Y-122476760D02*
X210119047Y-121762475D01*
X210119047Y-121762475D02*
X210119047Y-122762475D01*
X209690475Y-122476760D02*
X209214285Y-122476760D01*
X209785713Y-122762475D02*
X209452380Y-121762475D01*
X209452380Y-121762475D02*
X209119047Y-122762475D01*
X208785713Y-122762475D02*
X208785713Y-121762475D01*
X208785713Y-121762475D02*
X208547618Y-121762475D01*
X208547618Y-121762475D02*
X208404761Y-121810094D01*
X208404761Y-121810094D02*
X208309523Y-121905332D01*
X208309523Y-121905332D02*
X208261904Y-122000570D01*
X208261904Y-122000570D02*
X208214285Y-122191046D01*
X208214285Y-122191046D02*
X208214285Y-122333903D01*
X208214285Y-122333903D02*
X208261904Y-122524379D01*
X208261904Y-122524379D02*
X208309523Y-122619617D01*
X208309523Y-122619617D02*
X208404761Y-122714856D01*
X208404761Y-122714856D02*
X208547618Y-122762475D01*
X208547618Y-122762475D02*
X208785713Y-122762475D01*
X207880951Y-121762475D02*
X207214285Y-121762475D01*
X207214285Y-121762475D02*
X207880951Y-122762475D01*
X207880951Y-122762475D02*
X207214285Y-122762475D01*
X216142856Y-123372419D02*
X215809523Y-124372419D01*
X215809523Y-124372419D02*
X215476190Y-123372419D01*
X214761904Y-124324800D02*
X214857142Y-124372419D01*
X214857142Y-124372419D02*
X215047618Y-124372419D01*
X215047618Y-124372419D02*
X215142856Y-124324800D01*
X215142856Y-124324800D02*
X215190475Y-124229561D01*
X215190475Y-124229561D02*
X215190475Y-123848609D01*
X215190475Y-123848609D02*
X215142856Y-123753371D01*
X215142856Y-123753371D02*
X215047618Y-123705752D01*
X215047618Y-123705752D02*
X214857142Y-123705752D01*
X214857142Y-123705752D02*
X214761904Y-123753371D01*
X214761904Y-123753371D02*
X214714285Y-123848609D01*
X214714285Y-123848609D02*
X214714285Y-123943847D01*
X214714285Y-123943847D02*
X215190475Y-124039085D01*
X214285713Y-124372419D02*
X214285713Y-123705752D01*
X214285713Y-123896228D02*
X214238094Y-123800990D01*
X214238094Y-123800990D02*
X214190475Y-123753371D01*
X214190475Y-123753371D02*
X214095237Y-123705752D01*
X214095237Y-123705752D02*
X213999999Y-123705752D01*
X212380951Y-124372419D02*
X212952379Y-124372419D01*
X212666665Y-124372419D02*
X212666665Y-123372419D01*
X212666665Y-123372419D02*
X212761903Y-123515276D01*
X212761903Y-123515276D02*
X212857141Y-123610514D01*
X212857141Y-123610514D02*
X212952379Y-123658133D01*
X211952379Y-124277180D02*
X211904760Y-124324800D01*
X211904760Y-124324800D02*
X211952379Y-124372419D01*
X211952379Y-124372419D02*
X211999998Y-124324800D01*
X211999998Y-124324800D02*
X211952379Y-124277180D01*
X211952379Y-124277180D02*
X211952379Y-124372419D01*
X211285713Y-123372419D02*
X211190475Y-123372419D01*
X211190475Y-123372419D02*
X211095237Y-123420038D01*
X211095237Y-123420038D02*
X211047618Y-123467657D01*
X211047618Y-123467657D02*
X210999999Y-123562895D01*
X210999999Y-123562895D02*
X210952380Y-123753371D01*
X210952380Y-123753371D02*
X210952380Y-123991466D01*
X210952380Y-123991466D02*
X210999999Y-124181942D01*
X210999999Y-124181942D02*
X211047618Y-124277180D01*
X211047618Y-124277180D02*
X211095237Y-124324800D01*
X211095237Y-124324800D02*
X211190475Y-124372419D01*
X211190475Y-124372419D02*
X211285713Y-124372419D01*
X211285713Y-124372419D02*
X211380951Y-124324800D01*
X211380951Y-124324800D02*
X211428570Y-124277180D01*
X211428570Y-124277180D02*
X211476189Y-124181942D01*
X211476189Y-124181942D02*
X211523808Y-123991466D01*
X211523808Y-123991466D02*
X211523808Y-123753371D01*
X211523808Y-123753371D02*
X211476189Y-123562895D01*
X211476189Y-123562895D02*
X211428570Y-123467657D01*
X211428570Y-123467657D02*
X211380951Y-123420038D01*
X211380951Y-123420038D02*
X211285713Y-123372419D01*
D11*
%TO.C,G\u002A\u002A\u002A*%
G36*
X212966630Y-109189101D02*
G01*
X212961367Y-109194364D01*
X212956104Y-109189101D01*
X212961367Y-109183838D01*
X212966630Y-109189101D01*
G37*
G36*
X212998209Y-109231207D02*
G01*
X212992946Y-109236470D01*
X212987683Y-109231207D01*
X212992946Y-109225943D01*
X212998209Y-109231207D01*
G37*
G36*
X213071893Y-109325943D02*
G01*
X213066630Y-109331207D01*
X213061367Y-109325943D01*
X213066630Y-109320680D01*
X213071893Y-109325943D01*
G37*
G36*
X213124525Y-118094364D02*
G01*
X213119262Y-118099628D01*
X213113999Y-118094364D01*
X213119262Y-118089101D01*
X213124525Y-118094364D01*
G37*
G36*
X213313999Y-109673312D02*
G01*
X213308735Y-109678575D01*
X213303472Y-109673312D01*
X213308735Y-109668049D01*
X213313999Y-109673312D01*
G37*
G36*
X213345578Y-118178575D02*
G01*
X213340314Y-118183838D01*
X213335051Y-118178575D01*
X213340314Y-118173312D01*
X213345578Y-118178575D01*
G37*
G36*
X213377157Y-109778575D02*
G01*
X213371893Y-109783838D01*
X213366630Y-109778575D01*
X213371893Y-109773312D01*
X213377157Y-109778575D01*
G37*
G36*
X213671893Y-118504891D02*
G01*
X213666630Y-118510154D01*
X213661367Y-118504891D01*
X213666630Y-118499628D01*
X213671893Y-118504891D01*
G37*
G36*
X213871893Y-110357522D02*
G01*
X213866630Y-110362785D01*
X213861367Y-110357522D01*
X213866630Y-110352259D01*
X213871893Y-110357522D01*
G37*
G36*
X214135051Y-110441733D02*
G01*
X214129788Y-110446996D01*
X214124525Y-110441733D01*
X214129788Y-110436470D01*
X214135051Y-110441733D01*
G37*
G36*
X214219262Y-110462785D02*
G01*
X214213999Y-110468049D01*
X214208735Y-110462785D01*
X214213999Y-110457522D01*
X214219262Y-110462785D01*
G37*
G36*
X214671893Y-117546996D02*
G01*
X214666630Y-117552259D01*
X214661367Y-117546996D01*
X214666630Y-117541733D01*
X214671893Y-117546996D01*
G37*
G36*
X216113999Y-115262785D02*
G01*
X216108735Y-115268049D01*
X216103472Y-115262785D01*
X216108735Y-115257522D01*
X216113999Y-115262785D01*
G37*
G36*
X216882420Y-116652259D02*
G01*
X216877157Y-116657522D01*
X216871893Y-116652259D01*
X216877157Y-116646996D01*
X216882420Y-116652259D01*
G37*
G36*
X218177157Y-117768049D02*
G01*
X218171893Y-117773312D01*
X218166630Y-117768049D01*
X218171893Y-117762785D01*
X218177157Y-117768049D01*
G37*
G36*
X207168604Y-114050332D02*
G01*
X207173476Y-114054121D01*
X207162244Y-114056691D01*
X207151568Y-114055947D01*
X207148428Y-114051163D01*
X207152153Y-114049077D01*
X207168604Y-114050332D01*
G37*
G36*
X207966630Y-115962785D02*
G01*
X207965871Y-115968358D01*
X207959613Y-115969803D01*
X207958353Y-115968260D01*
X207959613Y-115955768D01*
X207962779Y-115954121D01*
X207966630Y-115962785D01*
G37*
G36*
X208548209Y-116576867D02*
G01*
X208549995Y-116580522D01*
X208535051Y-116582176D01*
X208520571Y-116580709D01*
X208521893Y-116576867D01*
X208526658Y-116575476D01*
X208548209Y-116576867D01*
G37*
G36*
X210373648Y-112713663D02*
G01*
X210375295Y-112716829D01*
X210366630Y-112720680D01*
X210361058Y-112719921D01*
X210359613Y-112713663D01*
X210361156Y-112712403D01*
X210373648Y-112713663D01*
G37*
G36*
X210594700Y-119829452D02*
G01*
X210596347Y-119832618D01*
X210587683Y-119836470D01*
X210582110Y-119835710D01*
X210580665Y-119829452D01*
X210582208Y-119828192D01*
X210594700Y-119829452D01*
G37*
G36*
X211142069Y-117092610D02*
G01*
X211143716Y-117095776D01*
X211135051Y-117099628D01*
X211129479Y-117098868D01*
X211128034Y-117092610D01*
X211129577Y-117091350D01*
X211142069Y-117092610D01*
G37*
G36*
X212057858Y-120397873D02*
G01*
X212059505Y-120401039D01*
X212050841Y-120404891D01*
X212045268Y-120404131D01*
X212043823Y-120397873D01*
X212045366Y-120396613D01*
X212057858Y-120397873D01*
G37*
G36*
X212142069Y-120429452D02*
G01*
X212143716Y-120432618D01*
X212135051Y-120436470D01*
X212129479Y-120435710D01*
X212128034Y-120429452D01*
X212129577Y-120428192D01*
X212142069Y-120429452D01*
G37*
G36*
X213019262Y-109257522D02*
G01*
X213018502Y-109263095D01*
X213012244Y-109264540D01*
X213010984Y-109262997D01*
X213012244Y-109250505D01*
X213015410Y-109248858D01*
X213019262Y-109257522D01*
G37*
G36*
X213200183Y-118008226D02*
G01*
X213205055Y-118012015D01*
X213193823Y-118014586D01*
X213183147Y-118013842D01*
X213180007Y-118009057D01*
X213183732Y-118006971D01*
X213200183Y-118008226D01*
G37*
G36*
X214768604Y-117576647D02*
G01*
X214773476Y-117580436D01*
X214762244Y-117583007D01*
X214751568Y-117582263D01*
X214748428Y-117577478D01*
X214752153Y-117575393D01*
X214768604Y-117576647D01*
G37*
G36*
X214756104Y-116541733D02*
G01*
X214755344Y-116547305D01*
X214749086Y-116548750D01*
X214747827Y-116547208D01*
X214749086Y-116534715D01*
X214752253Y-116533068D01*
X214756104Y-116541733D01*
G37*
G36*
X214937683Y-117629498D02*
G01*
X214939468Y-117633153D01*
X214924525Y-117634808D01*
X214910045Y-117633340D01*
X214911367Y-117629498D01*
X214916132Y-117628108D01*
X214937683Y-117629498D01*
G37*
G36*
X214924525Y-119952259D02*
G01*
X214923765Y-119957832D01*
X214917507Y-119959277D01*
X214916248Y-119957734D01*
X214917507Y-119945242D01*
X214920674Y-119943595D01*
X214924525Y-119952259D01*
G37*
G36*
X215032420Y-110545288D02*
G01*
X215034205Y-110548943D01*
X215019262Y-110550597D01*
X215004782Y-110549130D01*
X215006104Y-110545288D01*
X215010869Y-110543897D01*
X215032420Y-110545288D01*
G37*
G36*
X216122863Y-115362785D02*
G01*
X216121396Y-115377266D01*
X216117554Y-115375943D01*
X216116163Y-115371179D01*
X216117554Y-115349628D01*
X216121209Y-115347842D01*
X216122863Y-115362785D01*
G37*
G36*
X216726499Y-116197700D02*
G01*
X216731371Y-116201489D01*
X216720139Y-116204060D01*
X216709463Y-116203315D01*
X216706323Y-116198531D01*
X216710047Y-116196445D01*
X216726499Y-116197700D01*
G37*
G36*
X216850841Y-116562785D02*
G01*
X216850081Y-116568358D01*
X216843823Y-116569803D01*
X216842563Y-116568260D01*
X216843823Y-116555768D01*
X216846989Y-116554121D01*
X216850841Y-116562785D01*
G37*
G36*
X216868385Y-116703136D02*
G01*
X216870031Y-116706302D01*
X216861367Y-116710154D01*
X216855794Y-116709394D01*
X216854350Y-116703136D01*
X216855892Y-116701877D01*
X216868385Y-116703136D01*
G37*
G36*
X216973648Y-116513663D02*
G01*
X216975295Y-116516829D01*
X216966630Y-116520680D01*
X216961058Y-116519921D01*
X216959613Y-116513663D01*
X216961156Y-116512403D01*
X216973648Y-116513663D01*
G37*
G36*
X217207904Y-117082961D02*
G01*
X217207160Y-117093637D01*
X217202376Y-117096777D01*
X217200290Y-117093053D01*
X217201545Y-117076601D01*
X217205334Y-117071729D01*
X217207904Y-117082961D01*
G37*
G36*
X217673867Y-117387174D02*
G01*
X217678739Y-117390963D01*
X217667507Y-117393533D01*
X217656831Y-117392789D01*
X217653692Y-117388005D01*
X217657416Y-117385919D01*
X217673867Y-117387174D01*
G37*
G36*
X208448359Y-114905208D02*
G01*
X208445904Y-114920152D01*
X208442402Y-114923996D01*
X208428144Y-114924927D01*
X208423514Y-114920227D01*
X208428696Y-114907036D01*
X208438177Y-114901183D01*
X208448359Y-114905208D01*
G37*
G36*
X214034505Y-110421927D02*
G01*
X214042584Y-110425572D01*
X214050841Y-110432333D01*
X214047923Y-110436254D01*
X214035858Y-110434790D01*
X214024599Y-110426064D01*
X214023639Y-110421191D01*
X214034505Y-110421927D01*
G37*
G36*
X218284857Y-117876802D02*
G01*
X218285346Y-117877298D01*
X218287299Y-117883795D01*
X218271050Y-117881404D01*
X218257484Y-117875706D01*
X218259928Y-117870283D01*
X218266660Y-117869381D01*
X218284857Y-117876802D01*
G37*
G36*
X207994521Y-115950545D02*
G01*
X207995342Y-115973312D01*
X207995035Y-115988759D01*
X207993384Y-116001984D01*
X207990780Y-115996996D01*
X207989039Y-115980301D01*
X207990780Y-115949628D01*
X207992422Y-115944295D01*
X207994521Y-115950545D01*
G37*
G36*
X208447176Y-116491041D02*
G01*
X208454647Y-116504891D01*
X208456302Y-116512964D01*
X208450510Y-116520680D01*
X208445823Y-116518901D01*
X208440314Y-116504891D01*
X208440772Y-116497697D01*
X208444451Y-116489101D01*
X208447176Y-116491041D01*
G37*
G36*
X210547423Y-119805284D02*
G01*
X210561367Y-119815417D01*
X210563053Y-119819458D01*
X210557346Y-119825943D01*
X210554259Y-119825550D01*
X210540314Y-119815417D01*
X210538628Y-119811376D01*
X210544335Y-119804891D01*
X210547423Y-119805284D01*
G37*
G36*
X211041998Y-119975368D02*
G01*
X211050841Y-119983838D01*
X211049277Y-119988479D01*
X211035673Y-119994364D01*
X211029229Y-119993524D01*
X211013999Y-119983838D01*
X211014612Y-119977364D01*
X211029167Y-119973312D01*
X211041998Y-119975368D01*
G37*
G36*
X212021220Y-120374600D02*
G01*
X212029788Y-120383838D01*
X212029505Y-120386336D01*
X212019883Y-120394364D01*
X212016930Y-120393963D01*
X212003472Y-120383838D01*
X212002482Y-120378415D01*
X212013377Y-120373312D01*
X212021220Y-120374600D01*
G37*
G36*
X212093550Y-120405837D02*
G01*
X212108735Y-120415417D01*
X212109859Y-120420679D01*
X212099452Y-120425943D01*
X212092342Y-120424997D01*
X212077157Y-120415417D01*
X212076033Y-120410155D01*
X212086440Y-120404891D01*
X212093550Y-120405837D01*
G37*
G36*
X212168962Y-120436871D02*
G01*
X212182420Y-120446996D01*
X212183410Y-120452419D01*
X212172515Y-120457522D01*
X212164672Y-120456234D01*
X212156104Y-120446996D01*
X212156387Y-120444499D01*
X212166009Y-120436470D01*
X212168962Y-120436871D01*
G37*
G36*
X212609295Y-120595205D02*
G01*
X212624525Y-120604891D01*
X212623912Y-120611365D01*
X212609357Y-120615417D01*
X212596526Y-120613360D01*
X212587683Y-120604891D01*
X212589246Y-120600250D01*
X212602851Y-120594364D01*
X212609295Y-120595205D01*
G37*
G36*
X213623645Y-118853378D02*
G01*
X213631880Y-118857889D01*
X213640314Y-118870052D01*
X213640288Y-118870833D01*
X213633477Y-118876972D01*
X213620788Y-118872113D01*
X213611145Y-118859489D01*
X213611305Y-118853093D01*
X213623645Y-118853378D01*
G37*
G36*
X213688651Y-119314388D02*
G01*
X213692946Y-119331828D01*
X213690705Y-119343773D01*
X213682420Y-119346996D01*
X213678309Y-119343244D01*
X213671893Y-119325322D01*
X213672978Y-119318635D01*
X213682420Y-119310154D01*
X213688651Y-119314388D01*
G37*
G36*
X213834810Y-110331007D02*
G01*
X213843858Y-110339213D01*
X213850841Y-110348285D01*
X213846088Y-110353397D01*
X213834877Y-110347916D01*
X213825410Y-110334981D01*
X213824170Y-110331643D01*
X213823398Y-110323326D01*
X213834810Y-110331007D01*
G37*
G36*
X214314558Y-110468889D02*
G01*
X214329788Y-110478575D01*
X214329175Y-110485049D01*
X214314620Y-110489101D01*
X214301789Y-110487045D01*
X214292946Y-110478575D01*
X214294510Y-110473934D01*
X214308114Y-110468049D01*
X214314558Y-110468889D01*
G37*
G36*
X214469262Y-110492371D02*
G01*
X214472248Y-110493356D01*
X214469991Y-110496088D01*
X214450841Y-110497185D01*
X214443699Y-110497084D01*
X214429144Y-110495423D01*
X214432420Y-110492371D01*
X214442565Y-110490734D01*
X214469262Y-110492371D01*
G37*
G36*
X214674525Y-110513251D02*
G01*
X214679857Y-110514893D01*
X214673608Y-110516992D01*
X214650841Y-110517813D01*
X214635393Y-110517506D01*
X214622168Y-110515855D01*
X214627157Y-110513251D01*
X214643851Y-110511510D01*
X214674525Y-110513251D01*
G37*
G36*
X214715957Y-117553547D02*
G01*
X214724525Y-117562785D01*
X214724241Y-117565283D01*
X214714620Y-117573312D01*
X214711667Y-117572910D01*
X214698209Y-117562785D01*
X214697219Y-117557362D01*
X214708114Y-117552259D01*
X214715957Y-117553547D01*
G37*
G36*
X214809295Y-117584679D02*
G01*
X214824525Y-117594364D01*
X214823912Y-117600839D01*
X214809357Y-117604891D01*
X214796526Y-117602834D01*
X214787683Y-117594364D01*
X214789246Y-117589724D01*
X214802851Y-117583838D01*
X214809295Y-117584679D01*
G37*
G36*
X214884031Y-117607264D02*
G01*
X214892946Y-117615417D01*
X214892620Y-117618942D01*
X214883150Y-117625212D01*
X214861367Y-117615417D01*
X214857662Y-117612906D01*
X214853881Y-117606714D01*
X214869262Y-117605052D01*
X214884031Y-117607264D01*
G37*
G36*
X214988287Y-117637416D02*
G01*
X215003472Y-117646996D01*
X215004596Y-117652258D01*
X214994188Y-117657522D01*
X214987078Y-117656576D01*
X214971893Y-117646996D01*
X214970770Y-117641734D01*
X214981177Y-117636470D01*
X214988287Y-117637416D01*
G37*
G36*
X215163999Y-117681845D02*
G01*
X215166985Y-117682829D01*
X215164728Y-117685562D01*
X215145578Y-117686659D01*
X215138436Y-117686557D01*
X215123880Y-117684896D01*
X215127157Y-117681845D01*
X215137302Y-117680208D01*
X215163999Y-117681845D01*
G37*
G36*
X215073528Y-117659946D02*
G01*
X215092946Y-117668049D01*
X215097529Y-117671314D01*
X215098441Y-117676832D01*
X215080409Y-117678414D01*
X215059935Y-117675845D01*
X215045578Y-117668049D01*
X215044728Y-117662509D01*
X215054980Y-117658099D01*
X215073528Y-117659946D01*
G37*
G36*
X217025468Y-116491232D02*
G01*
X217023068Y-116504891D01*
X217018523Y-116512176D01*
X217001594Y-116520680D01*
X216997523Y-116520583D01*
X216991784Y-116517082D01*
X217001969Y-116504891D01*
X217012308Y-116495637D01*
X217023443Y-116489101D01*
X217025468Y-116491232D01*
G37*
G36*
X217845480Y-117610231D02*
G01*
X217850841Y-117631958D01*
X217850487Y-117644463D01*
X217846523Y-117652240D01*
X217835051Y-117643237D01*
X217826033Y-117632184D01*
X217819262Y-117616169D01*
X217821049Y-117610972D01*
X217835051Y-117604891D01*
X217845480Y-117610231D01*
G37*
G36*
X218520780Y-117872074D02*
G01*
X218545578Y-117878575D01*
X218554956Y-117881725D01*
X218562459Y-117886012D01*
X218550841Y-117887312D01*
X218536384Y-117886080D01*
X218508735Y-117878575D01*
X218498137Y-117872142D01*
X218503507Y-117869930D01*
X218520780Y-117872074D01*
G37*
G36*
X211848209Y-120295736D02*
G01*
X211863063Y-120301786D01*
X211871893Y-120311382D01*
X211871835Y-120313856D01*
X211868933Y-120319681D01*
X211857908Y-120317002D01*
X211833623Y-120304956D01*
X211825006Y-120300251D01*
X211813525Y-120291458D01*
X211821397Y-120289866D01*
X211848209Y-120295736D01*
G37*
G36*
X213642638Y-118480675D02*
G01*
X213650841Y-118487630D01*
X213648036Y-118493891D01*
X213632420Y-118502898D01*
X213610991Y-118507579D01*
X213592674Y-118507057D01*
X213590249Y-118496996D01*
X213590956Y-118495398D01*
X213603777Y-118485937D01*
X213623978Y-118480570D01*
X213642638Y-118480675D01*
G37*
G36*
X215263487Y-117692387D02*
G01*
X215282420Y-117699628D01*
X215287597Y-117703996D01*
X215282982Y-117708567D01*
X215259357Y-117709993D01*
X215253755Y-117709908D01*
X215227891Y-117706502D01*
X215213999Y-117699628D01*
X215213152Y-117696802D01*
X215221509Y-117690974D01*
X215240735Y-117689502D01*
X215263487Y-117692387D01*
G37*
G36*
X212510025Y-120569216D02*
G01*
X212533717Y-120575886D01*
X212550314Y-120584947D01*
X212552165Y-120586810D01*
X212553326Y-120593192D01*
X212538188Y-120593476D01*
X212504788Y-120587785D01*
X212503144Y-120587444D01*
X212481017Y-120579912D01*
X212471893Y-120571160D01*
X212473229Y-120568652D01*
X212487206Y-120566338D01*
X212510025Y-120569216D01*
G37*
G36*
X212654150Y-117209703D02*
G01*
X212656194Y-117211909D01*
X212668450Y-117235636D01*
X212671849Y-117262435D01*
X212664876Y-117282084D01*
X212656017Y-117287509D01*
X212640984Y-117283476D01*
X212629147Y-117266789D01*
X212623557Y-117242753D01*
X212627264Y-117216672D01*
X212632381Y-117204160D01*
X212640357Y-117198405D01*
X212654150Y-117209703D01*
G37*
G36*
X214610583Y-117501271D02*
G01*
X214619262Y-117509382D01*
X214622073Y-117515280D01*
X214637683Y-117523950D01*
X214637733Y-117523963D01*
X214648837Y-117528018D01*
X214639695Y-117529985D01*
X214625368Y-117527485D01*
X214602853Y-117515752D01*
X214593811Y-117508657D01*
X214589041Y-117501606D01*
X214600841Y-117499962D01*
X214610583Y-117501271D01*
G37*
G36*
X217007647Y-118068317D02*
G01*
X217030976Y-118071983D01*
X217040314Y-118078575D01*
X217039241Y-118080934D01*
X217024576Y-118086767D01*
X216998209Y-118089101D01*
X216988771Y-118088833D01*
X216965442Y-118085167D01*
X216956104Y-118078575D01*
X216957178Y-118076215D01*
X216971843Y-118070383D01*
X216998209Y-118068049D01*
X217007647Y-118068317D01*
G37*
G36*
X210087961Y-119136891D02*
G01*
X210088550Y-119168522D01*
X210088763Y-119215417D01*
X210088667Y-119248167D01*
X210088197Y-119285107D01*
X210087400Y-119305735D01*
X210086353Y-119308470D01*
X210085130Y-119291733D01*
X210083932Y-119251977D01*
X210083746Y-119192641D01*
X210085130Y-119139101D01*
X210085957Y-119125741D01*
X210087072Y-119122104D01*
X210087961Y-119136891D01*
G37*
G36*
X211719247Y-120240602D02*
G01*
X211742179Y-120248339D01*
X211767973Y-120260026D01*
X211789077Y-120272244D01*
X211797938Y-120281577D01*
X211793585Y-120284337D01*
X211777865Y-120278954D01*
X211757980Y-120269360D01*
X211729037Y-120257237D01*
X211728945Y-120257202D01*
X211710695Y-120247772D01*
X211706675Y-120240284D01*
X211706730Y-120240231D01*
X211719247Y-120240602D01*
G37*
G36*
X211892946Y-120322413D02*
G01*
X211895886Y-120323492D01*
X211918628Y-120331732D01*
X211948209Y-120342360D01*
X211956481Y-120345532D01*
X211978747Y-120356802D01*
X211987683Y-120366026D01*
X211984315Y-120370121D01*
X211969262Y-120367981D01*
X211957138Y-120363357D01*
X211929788Y-120354425D01*
X211916422Y-120348929D01*
X211892946Y-120332524D01*
X211887756Y-120327198D01*
X211882638Y-120319761D01*
X211892946Y-120322413D01*
G37*
G36*
X212354995Y-120515120D02*
G01*
X212380991Y-120526008D01*
X212407533Y-120536986D01*
X212430370Y-120541733D01*
X212441172Y-120543236D01*
X212456104Y-120552259D01*
X212456376Y-120558168D01*
X212443567Y-120562139D01*
X212441177Y-120561942D01*
X212422051Y-120557034D01*
X212396563Y-120547435D01*
X212369916Y-120535595D01*
X212347313Y-120523960D01*
X212333957Y-120514977D01*
X212335051Y-120511095D01*
X212354995Y-120515120D01*
G37*
G36*
X217390303Y-116812204D02*
G01*
X217395455Y-116829695D01*
X217394626Y-116851678D01*
X217394410Y-116852202D01*
X217381904Y-116862760D01*
X217361858Y-116867753D01*
X217343249Y-116866301D01*
X217335051Y-116857522D01*
X217335298Y-116855054D01*
X217343888Y-116846996D01*
X217354084Y-116838501D01*
X217366212Y-116818049D01*
X217366249Y-116817969D01*
X217376086Y-116798628D01*
X217382358Y-116797130D01*
X217390303Y-116812204D01*
G37*
G36*
X212213729Y-120463713D02*
G01*
X212236117Y-120473059D01*
X212262796Y-120484283D01*
X212284430Y-120489036D01*
X212293694Y-120490345D01*
X212308735Y-120499628D01*
X212306213Y-120506812D01*
X212288304Y-120510154D01*
X212270406Y-120508064D01*
X212261367Y-120501935D01*
X212261212Y-120501086D01*
X212250423Y-120491742D01*
X212227851Y-120481066D01*
X212223715Y-120479444D01*
X212204720Y-120469722D01*
X212199969Y-120462780D01*
X212200418Y-120462437D01*
X212213729Y-120463713D01*
G37*
G36*
X214936569Y-116333820D02*
G01*
X214945578Y-116341733D01*
X214947510Y-116346702D01*
X214961782Y-116352259D01*
X214963099Y-116352268D01*
X214972317Y-116355309D01*
X214964414Y-116367012D01*
X214955865Y-116373793D01*
X214947310Y-116372209D01*
X214945573Y-116369402D01*
X214933691Y-116368889D01*
X214932837Y-116369347D01*
X214917293Y-116367426D01*
X214900687Y-116355482D01*
X214892946Y-116340444D01*
X214899473Y-116334371D01*
X214919262Y-116331207D01*
X214936569Y-116333820D01*
G37*
G36*
X211098442Y-119999108D02*
G01*
X211126141Y-120009382D01*
X211128303Y-120010444D01*
X211155581Y-120021476D01*
X211176142Y-120026105D01*
X211185509Y-120027298D01*
X211208735Y-120036470D01*
X211211181Y-120038067D01*
X211219003Y-120045227D01*
X211208148Y-120046835D01*
X211199573Y-120046065D01*
X211175487Y-120040562D01*
X211145832Y-120031390D01*
X211115759Y-120020481D01*
X211090417Y-120009771D01*
X211074955Y-120001190D01*
X211074524Y-119996673D01*
X211075837Y-119996452D01*
X211098442Y-119999108D01*
G37*
G36*
X219338979Y-112766336D02*
G01*
X219367927Y-112779193D01*
X219382776Y-112795486D01*
X219383289Y-112798064D01*
X219377550Y-112818485D01*
X219360651Y-112843486D01*
X219337748Y-112866623D01*
X219313999Y-112881447D01*
X219283111Y-112888007D01*
X219254210Y-112879369D01*
X219236074Y-112853262D01*
X219229788Y-112810597D01*
X219229907Y-112797051D01*
X219232695Y-112774962D01*
X219242584Y-112764688D01*
X219263999Y-112759636D01*
X219266427Y-112759270D01*
X219302843Y-112759000D01*
X219338979Y-112766336D01*
G37*
G36*
X208355822Y-114921029D02*
G01*
X208387270Y-114924850D01*
X208405817Y-114932498D01*
X208408970Y-114946761D01*
X208394239Y-114966987D01*
X208362118Y-114991049D01*
X208313999Y-115017657D01*
X208286862Y-115030487D01*
X208259675Y-115042011D01*
X208244768Y-115046604D01*
X208243191Y-115046302D01*
X208237471Y-115034419D01*
X208235853Y-115010376D01*
X208237917Y-114981224D01*
X208243240Y-114954014D01*
X208251400Y-114935795D01*
X208258528Y-114930941D01*
X208284006Y-114924233D01*
X208318919Y-114920876D01*
X208355822Y-114921029D01*
G37*
G36*
X210089945Y-119485273D02*
G01*
X210093272Y-119497144D01*
X210111498Y-119527991D01*
X210141678Y-119563442D01*
X210179810Y-119599091D01*
X210221893Y-119630534D01*
X210223543Y-119631625D01*
X210242877Y-119647137D01*
X210250841Y-119658733D01*
X210249529Y-119666121D01*
X210243717Y-119667544D01*
X210231337Y-119660222D01*
X210210334Y-119642594D01*
X210178653Y-119613099D01*
X210134240Y-119570179D01*
X210118703Y-119554640D01*
X210096504Y-119528715D01*
X210086063Y-119507658D01*
X210084104Y-119485968D01*
X210085789Y-119452259D01*
X210089945Y-119485273D01*
G37*
G36*
X217421003Y-117109291D02*
G01*
X217430848Y-117125085D01*
X217450869Y-117138690D01*
X217463145Y-117143516D01*
X217471893Y-117152715D01*
X217472834Y-117156195D01*
X217485051Y-117165742D01*
X217486820Y-117167580D01*
X217471999Y-117165679D01*
X217453773Y-117160344D01*
X217439326Y-117150659D01*
X217437514Y-117148867D01*
X217419920Y-117144831D01*
X217391852Y-117146423D01*
X217368140Y-117149490D01*
X217363205Y-117148150D01*
X217375518Y-117141897D01*
X217392308Y-117130082D01*
X217406178Y-117108270D01*
X217412161Y-117085390D01*
X217421003Y-117109291D01*
G37*
G36*
X213846643Y-118555147D02*
G01*
X213875332Y-118566001D01*
X213900462Y-118582430D01*
X213914286Y-118594762D01*
X213926365Y-118608066D01*
X213924809Y-118616008D01*
X213910988Y-118623996D01*
X213887791Y-118632840D01*
X213856104Y-118640235D01*
X213816874Y-118642855D01*
X213768840Y-118635840D01*
X213734259Y-118616938D01*
X213725582Y-118607722D01*
X213718437Y-118589276D01*
X213730786Y-118577471D01*
X213761988Y-118573312D01*
X213766289Y-118573237D01*
X213788967Y-118569790D01*
X213798209Y-118562785D01*
X213802512Y-118554759D01*
X213820376Y-118551017D01*
X213846643Y-118555147D01*
G37*
G36*
X210095440Y-115489381D02*
G01*
X210103472Y-115498899D01*
X210107813Y-115502612D01*
X210127871Y-115506549D01*
X210158735Y-115507642D01*
X210197169Y-115507250D01*
X210253779Y-115508707D01*
X210292150Y-115513136D01*
X210313999Y-115520680D01*
X210321584Y-115528842D01*
X210317285Y-115540632D01*
X210298209Y-115560332D01*
X210294813Y-115563357D01*
X210261054Y-115585866D01*
X210224525Y-115601268D01*
X210218975Y-115602775D01*
X210184024Y-115611098D01*
X210160574Y-115612108D01*
X210140986Y-115604900D01*
X210117624Y-115588566D01*
X210102907Y-115576270D01*
X210086703Y-115553781D01*
X210082420Y-115525408D01*
X210082496Y-115521033D01*
X210085948Y-115498345D01*
X210092946Y-115489101D01*
X210095440Y-115489381D01*
G37*
G36*
X219957943Y-112881344D02*
G01*
X219966630Y-112892395D01*
X219965786Y-112896696D01*
X219954050Y-112915568D01*
X219933799Y-112937336D01*
X219911845Y-112955307D01*
X219895002Y-112962785D01*
X219890690Y-112963383D01*
X219882420Y-112972602D01*
X219877099Y-112980445D01*
X219858735Y-112989811D01*
X219843027Y-112995749D01*
X219829788Y-113003697D01*
X219828361Y-113005047D01*
X219812773Y-113014667D01*
X219787683Y-113027260D01*
X219785378Y-113028298D01*
X219761592Y-113035215D01*
X219746783Y-113033721D01*
X219744929Y-113025802D01*
X219760006Y-113013443D01*
X219770318Y-113002785D01*
X219777157Y-112979683D01*
X219778843Y-112966440D01*
X219791142Y-112945335D01*
X219817889Y-112924521D01*
X219862059Y-112901249D01*
X219862360Y-112901107D01*
X219901467Y-112886068D01*
X219934775Y-112879358D01*
X219957943Y-112881344D01*
G37*
G36*
X210287785Y-119679128D02*
G01*
X210311367Y-119691899D01*
X210316732Y-119695136D01*
X210355091Y-119716933D01*
X210392946Y-119736768D01*
X210404603Y-119742740D01*
X210427699Y-119756214D01*
X210438449Y-119765084D01*
X210439012Y-119765924D01*
X210452872Y-119772919D01*
X210477923Y-119779413D01*
X210482250Y-119780299D01*
X210504807Y-119787884D01*
X210513999Y-119796413D01*
X210512661Y-119800340D01*
X210500841Y-119801189D01*
X210498245Y-119800157D01*
X210477087Y-119792558D01*
X210448209Y-119782856D01*
X210440138Y-119780035D01*
X210417734Y-119769670D01*
X210408735Y-119761119D01*
X210408240Y-119758553D01*
X210397223Y-119752259D01*
X210383739Y-119747942D01*
X210359071Y-119735548D01*
X210329704Y-119718596D01*
X210301486Y-119700645D01*
X210280266Y-119685254D01*
X210271893Y-119675984D01*
X210273674Y-119674641D01*
X210287785Y-119679128D01*
G37*
G36*
X213120848Y-117977727D02*
G01*
X213128319Y-117980125D01*
X213151902Y-117983838D01*
X213161646Y-117988874D01*
X213160817Y-118008598D01*
X213159174Y-118022718D01*
X213167244Y-118036821D01*
X213191155Y-118050704D01*
X213196865Y-118053345D01*
X213223042Y-118063809D01*
X213240026Y-118068049D01*
X213249844Y-118070866D01*
X213268134Y-118083838D01*
X213273212Y-118089092D01*
X213277350Y-118097826D01*
X213263408Y-118099628D01*
X213251055Y-118101615D01*
X213231739Y-118113066D01*
X213217319Y-118122472D01*
X213191824Y-118128886D01*
X213178116Y-118129677D01*
X213168923Y-118127694D01*
X213177191Y-118120197D01*
X213203755Y-118105550D01*
X213235051Y-118089231D01*
X213206474Y-118089166D01*
X213187065Y-118085591D01*
X213166630Y-118068049D01*
X213157008Y-118055307D01*
X213141710Y-118046996D01*
X213139311Y-118046484D01*
X213127282Y-118033763D01*
X213116490Y-118009306D01*
X213110355Y-117986596D01*
X213111291Y-117976513D01*
X213120848Y-117977727D01*
G37*
G36*
X210619672Y-119839273D02*
G01*
X210641815Y-119844603D01*
X210674334Y-119854132D01*
X210711799Y-119866107D01*
X210748777Y-119878775D01*
X210779836Y-119890384D01*
X210799545Y-119899179D01*
X210801188Y-119900040D01*
X210824501Y-119908506D01*
X210854924Y-119915890D01*
X210860307Y-119916980D01*
X210885640Y-119924474D01*
X210898947Y-119932400D01*
X210908444Y-119938309D01*
X210930409Y-119941733D01*
X210947110Y-119944099D01*
X210956104Y-119951527D01*
X210958901Y-119957373D01*
X210974525Y-119965755D01*
X210978038Y-119966821D01*
X210972420Y-119967320D01*
X210950841Y-119965245D01*
X210941824Y-119963984D01*
X210916936Y-119957988D01*
X210905227Y-119951017D01*
X210894095Y-119944560D01*
X210871016Y-119941733D01*
X210849441Y-119938678D01*
X210840314Y-119931207D01*
X210837599Y-119925694D01*
X210822098Y-119920680D01*
X210811157Y-119918680D01*
X210785161Y-119910787D01*
X210750461Y-119898629D01*
X210711822Y-119884068D01*
X210674010Y-119868967D01*
X210641789Y-119855187D01*
X210619925Y-119844591D01*
X210613183Y-119839040D01*
X210619672Y-119839273D01*
G37*
G36*
X208020169Y-116065564D02*
G01*
X208032413Y-116099628D01*
X208045367Y-116135041D01*
X208058655Y-116165237D01*
X208068803Y-116181958D01*
X208075772Y-116190571D01*
X208082420Y-116206394D01*
X208085290Y-116215298D01*
X208098209Y-116232710D01*
X208104852Y-116240309D01*
X208113919Y-116260147D01*
X208109723Y-116273740D01*
X208092946Y-116275525D01*
X208079631Y-116274480D01*
X208071893Y-116284824D01*
X208070833Y-116291181D01*
X208061012Y-116299628D01*
X208052878Y-116296379D01*
X208033821Y-116281617D01*
X208012396Y-116260648D01*
X207994913Y-116239845D01*
X207987683Y-116225580D01*
X207987453Y-116223398D01*
X207977866Y-116215417D01*
X207970179Y-116210128D01*
X207961239Y-116191733D01*
X207960987Y-116190867D01*
X207951569Y-116164145D01*
X207938786Y-116133421D01*
X207937456Y-116130384D01*
X207928407Y-116102183D01*
X207926572Y-116080790D01*
X207931808Y-116070434D01*
X207949483Y-116060466D01*
X207969973Y-116060714D01*
X207983593Y-116072573D01*
X207984716Y-116075320D01*
X207995433Y-116088405D01*
X208004871Y-116082728D01*
X208009188Y-116060154D01*
X208009362Y-116056304D01*
X208012606Y-116051327D01*
X208020169Y-116065564D01*
G37*
G36*
X211251435Y-120053094D02*
G01*
X211277304Y-120062169D01*
X211283938Y-120064831D01*
X211314022Y-120074616D01*
X211336337Y-120078575D01*
X211347338Y-120080210D01*
X211356104Y-120088176D01*
X211357213Y-120090550D01*
X211371901Y-120098327D01*
X211398209Y-120104891D01*
X211407798Y-120106764D01*
X211431023Y-120114037D01*
X211440314Y-120121605D01*
X211445815Y-120127671D01*
X211464618Y-120131207D01*
X211482836Y-120134179D01*
X211509355Y-120146661D01*
X211525951Y-120155823D01*
X211553472Y-120162451D01*
X211568212Y-120164454D01*
X211577157Y-120170994D01*
X211581695Y-120176046D01*
X211601164Y-120187117D01*
X211630763Y-120199942D01*
X211652177Y-120208709D01*
X211677422Y-120220652D01*
X211689279Y-120228575D01*
X211691027Y-120231766D01*
X211690087Y-120235436D01*
X211679684Y-120233466D01*
X211656527Y-120224959D01*
X211617324Y-120209023D01*
X211582637Y-120194797D01*
X211550147Y-120181657D01*
X211529788Y-120173640D01*
X211525909Y-120172149D01*
X211499910Y-120161596D01*
X211468905Y-120148455D01*
X211461625Y-120145440D01*
X211431179Y-120135300D01*
X211408378Y-120131207D01*
X211396483Y-120129281D01*
X211387683Y-120120680D01*
X211386028Y-120115952D01*
X211372251Y-120110154D01*
X211370929Y-120110109D01*
X211349879Y-120105451D01*
X211322251Y-120095476D01*
X211289442Y-120081784D01*
X211257375Y-120068766D01*
X211255761Y-120068114D01*
X211237149Y-120058348D01*
X211232553Y-120051248D01*
X211234729Y-120050444D01*
X211251435Y-120053094D01*
G37*
G36*
X212985145Y-120679433D02*
G01*
X213023189Y-120686029D01*
X213061544Y-120691370D01*
X213102513Y-120695583D01*
X213124322Y-120697111D01*
X213148401Y-120698798D01*
X213201514Y-120701144D01*
X213264155Y-120702749D01*
X213338630Y-120703741D01*
X213427244Y-120704250D01*
X213532300Y-120704405D01*
X213656104Y-120704333D01*
X213756623Y-120704107D01*
X213890390Y-120703334D01*
X214003187Y-120702040D01*
X214095059Y-120700226D01*
X214166051Y-120697888D01*
X214216209Y-120695027D01*
X214245578Y-120691642D01*
X214255123Y-120689933D01*
X214290177Y-120684871D01*
X214332007Y-120680051D01*
X214376001Y-120675845D01*
X214417545Y-120672626D01*
X214452024Y-120670766D01*
X214474824Y-120670637D01*
X214481332Y-120672613D01*
X214473766Y-120675528D01*
X214447642Y-120680840D01*
X214406690Y-120687133D01*
X214354512Y-120693947D01*
X214294709Y-120700820D01*
X214230881Y-120707292D01*
X214166630Y-120712902D01*
X214145461Y-120714300D01*
X214093739Y-120716640D01*
X214025691Y-120718810D01*
X213944317Y-120720753D01*
X213852617Y-120722408D01*
X213753594Y-120723718D01*
X213650247Y-120724624D01*
X213545578Y-120725066D01*
X213462948Y-120725274D01*
X213357608Y-120725775D01*
X213270759Y-120726549D01*
X213200872Y-120727639D01*
X213146422Y-120729089D01*
X213105880Y-120730944D01*
X213077720Y-120733249D01*
X213060415Y-120736048D01*
X213052438Y-120739384D01*
X213034333Y-120747326D01*
X212999806Y-120746754D01*
X212973790Y-120742637D01*
X212898243Y-120730490D01*
X212840547Y-120720658D01*
X212798411Y-120712501D01*
X212769545Y-120705379D01*
X212751659Y-120698652D01*
X212744556Y-120693268D01*
X212874744Y-120693268D01*
X212874907Y-120696861D01*
X212888560Y-120698797D01*
X212898907Y-120697111D01*
X212894920Y-120692437D01*
X212888833Y-120690755D01*
X212874744Y-120693268D01*
X212744556Y-120693268D01*
X212742461Y-120691680D01*
X212739662Y-120683824D01*
X212740971Y-120674443D01*
X212741357Y-120672215D01*
X212780007Y-120672215D01*
X212780170Y-120675809D01*
X212793823Y-120677744D01*
X212804170Y-120676058D01*
X212800183Y-120671384D01*
X212794096Y-120669702D01*
X212780007Y-120672215D01*
X212741357Y-120672215D01*
X212742258Y-120667015D01*
X212738547Y-120655289D01*
X212722813Y-120645409D01*
X212690838Y-120633969D01*
X212635051Y-120616018D01*
X212698209Y-120622380D01*
X212727003Y-120626225D01*
X212753358Y-120632060D01*
X212764876Y-120637869D01*
X212776680Y-120644309D01*
X212800212Y-120646996D01*
X212823163Y-120648763D01*
X212860743Y-120654271D01*
X212901966Y-120662219D01*
X212945106Y-120671452D01*
X212968213Y-120676058D01*
X212985145Y-120679433D01*
G37*
G36*
X215399829Y-117713167D02*
G01*
X215439079Y-117716703D01*
X215482420Y-117721755D01*
X215521244Y-117726795D01*
X215605713Y-117737511D01*
X215680162Y-117746503D01*
X215752287Y-117754684D01*
X215829788Y-117762967D01*
X215873779Y-117767984D01*
X215918877Y-117774087D01*
X215953296Y-117779817D01*
X215971893Y-117784398D01*
X215989328Y-117789205D01*
X216022308Y-117795051D01*
X216061367Y-117799876D01*
X216094917Y-117803768D01*
X216133907Y-117809726D01*
X216161367Y-117815569D01*
X216183367Y-117821637D01*
X216220555Y-117831563D01*
X216261367Y-117842213D01*
X216296293Y-117851515D01*
X216329939Y-117861090D01*
X216350841Y-117867773D01*
X216363706Y-117872336D01*
X216393955Y-117882453D01*
X216429788Y-117893992D01*
X216484192Y-117912359D01*
X216539012Y-117933641D01*
X216579645Y-117952769D01*
X216591226Y-117957883D01*
X216613856Y-117962785D01*
X216621233Y-117963836D01*
X216629788Y-117971966D01*
X216631304Y-117974588D01*
X216646924Y-117981951D01*
X216674003Y-117988218D01*
X216684124Y-117990011D01*
X216712513Y-117996979D01*
X216729266Y-118004030D01*
X216745648Y-118011680D01*
X216771893Y-118018615D01*
X216776563Y-118019489D01*
X216819423Y-118028243D01*
X216862733Y-118038158D01*
X216901221Y-118047907D01*
X216929613Y-118056163D01*
X216942637Y-118061599D01*
X216943179Y-118062190D01*
X216940239Y-118067306D01*
X216923038Y-118068322D01*
X216897385Y-118065786D01*
X216869088Y-118060248D01*
X216843954Y-118052259D01*
X216840407Y-118050828D01*
X216806518Y-118040641D01*
X216776492Y-118036470D01*
X216754608Y-118033655D01*
X216740314Y-118025943D01*
X216735181Y-118020996D01*
X216716232Y-118015417D01*
X216708273Y-118014264D01*
X216681614Y-118006990D01*
X216643832Y-117994639D01*
X216600320Y-117979096D01*
X216556469Y-117962247D01*
X216517671Y-117945977D01*
X216517066Y-117945709D01*
X216487424Y-117935457D01*
X216462408Y-117931207D01*
X216449174Y-117929095D01*
X216440314Y-117920680D01*
X216438148Y-117915530D01*
X216423484Y-117910154D01*
X216422666Y-117910138D01*
X216401082Y-117905513D01*
X216373484Y-117895150D01*
X216362037Y-117890453D01*
X216326227Y-117878489D01*
X216287683Y-117868237D01*
X216272753Y-117864833D01*
X216229912Y-117854868D01*
X216192946Y-117846033D01*
X216121934Y-117829635D01*
X216006864Y-117808188D01*
X215908735Y-117797295D01*
X215897596Y-117796530D01*
X215859449Y-117792848D01*
X215831538Y-117788505D01*
X215819262Y-117784285D01*
X215819228Y-117784239D01*
X215807020Y-117780202D01*
X215778179Y-117774936D01*
X215736977Y-117769118D01*
X215687683Y-117763425D01*
X215612651Y-117755538D01*
X215543019Y-117747966D01*
X215489212Y-117741722D01*
X215448475Y-117736444D01*
X215418056Y-117731772D01*
X215395201Y-117727346D01*
X215377157Y-117722805D01*
X215340314Y-117712309D01*
X215371893Y-117711882D01*
X215372827Y-117711874D01*
X215399829Y-117713167D01*
G37*
G36*
X218949296Y-117661255D02*
G01*
X218968433Y-117674943D01*
X218975593Y-117684322D01*
X218984251Y-117707445D01*
X218987892Y-117733210D01*
X218985774Y-117754147D01*
X218977157Y-117762785D01*
X218972595Y-117764270D01*
X218966630Y-117777722D01*
X218963166Y-117792939D01*
X218950653Y-117821543D01*
X218932890Y-117852929D01*
X218913999Y-117879157D01*
X218876757Y-117921018D01*
X218844093Y-117953879D01*
X218814414Y-117978816D01*
X218781823Y-118000997D01*
X218737561Y-118026121D01*
X218692564Y-118047542D01*
X218652812Y-118062454D01*
X218624289Y-118068049D01*
X218598830Y-118070736D01*
X218581893Y-118077466D01*
X218581568Y-118077760D01*
X218564328Y-118086404D01*
X218537683Y-118094092D01*
X218524049Y-118096534D01*
X218507753Y-118095395D01*
X218503472Y-118084674D01*
X218501234Y-118076823D01*
X218487246Y-118069990D01*
X218456725Y-118068049D01*
X218443796Y-118068445D01*
X218417107Y-118072179D01*
X218403472Y-118078575D01*
X218403034Y-118079189D01*
X218387818Y-118086210D01*
X218362069Y-118089101D01*
X218355861Y-118089301D01*
X218320499Y-118094429D01*
X218284046Y-118104317D01*
X218277658Y-118106357D01*
X218242552Y-118114367D01*
X218196768Y-118121659D01*
X218148512Y-118126867D01*
X218132316Y-118128255D01*
X218089374Y-118132922D01*
X218054854Y-118138051D01*
X218035051Y-118142760D01*
X218032207Y-118143691D01*
X218006925Y-118147156D01*
X217964108Y-118149207D01*
X217906606Y-118149962D01*
X217837273Y-118149534D01*
X217758961Y-118148040D01*
X217674522Y-118145596D01*
X217586809Y-118142317D01*
X217498673Y-118138318D01*
X217412968Y-118133716D01*
X217332545Y-118128626D01*
X217260258Y-118123163D01*
X217198957Y-118117443D01*
X217151497Y-118111583D01*
X217120728Y-118105696D01*
X217066630Y-118090931D01*
X217150841Y-118096157D01*
X217157594Y-118096600D01*
X217201805Y-118100586D01*
X217240360Y-118105729D01*
X217265569Y-118111032D01*
X217277090Y-118112932D01*
X217309173Y-118115233D01*
X217357112Y-118117113D01*
X217417873Y-118118574D01*
X217488427Y-118119617D01*
X217565740Y-118120244D01*
X217646783Y-118120458D01*
X217728523Y-118120260D01*
X217807929Y-118119651D01*
X217881970Y-118118635D01*
X217947614Y-118117213D01*
X218001829Y-118115386D01*
X218041584Y-118113157D01*
X218063848Y-118110528D01*
X218071596Y-118108902D01*
X218107902Y-118102703D01*
X218154570Y-118096101D01*
X218203472Y-118090277D01*
X218218693Y-118088606D01*
X218317245Y-118074801D01*
X218407272Y-118055858D01*
X218497486Y-118029644D01*
X218596599Y-117994025D01*
X218616217Y-117986230D01*
X218665198Y-117963143D01*
X218705620Y-117936398D01*
X218746599Y-117900297D01*
X218777418Y-117868277D01*
X218800557Y-117838065D01*
X218808735Y-117817398D01*
X218810966Y-117803261D01*
X218819262Y-117794364D01*
X218825462Y-117790212D01*
X218829788Y-117772867D01*
X218831742Y-117759354D01*
X218842946Y-117736044D01*
X218848330Y-117729797D01*
X218883510Y-117691112D01*
X218909973Y-117667812D01*
X218930856Y-117658369D01*
X218949296Y-117661255D01*
G37*
G36*
X216317272Y-113016079D02*
G01*
X216360316Y-113016839D01*
X216437184Y-113020225D01*
X216514179Y-113025784D01*
X216584241Y-113032967D01*
X216640314Y-113041224D01*
X216671889Y-113046598D01*
X216732939Y-113055796D01*
X216813999Y-113067031D01*
X216837062Y-113070186D01*
X216921177Y-113082511D01*
X217003270Y-113095708D01*
X217078618Y-113108957D01*
X217142498Y-113121439D01*
X217190186Y-113132332D01*
X217213974Y-113137358D01*
X217255108Y-113143861D01*
X217298420Y-113148934D01*
X217332761Y-113153224D01*
X217360263Y-113158840D01*
X217372854Y-113164339D01*
X217373929Y-113165532D01*
X217389977Y-113171063D01*
X217416579Y-113173312D01*
X217437557Y-113174573D01*
X217477101Y-113179880D01*
X217518589Y-113187925D01*
X217539864Y-113192611D01*
X217603195Y-113205270D01*
X217679742Y-113219203D01*
X217764093Y-113233448D01*
X217850841Y-113247042D01*
X217851993Y-113247215D01*
X217896444Y-113254450D01*
X217937580Y-113262036D01*
X217966630Y-113268357D01*
X217985731Y-113272500D01*
X218024951Y-113279028D01*
X218066630Y-113284274D01*
X218094958Y-113287792D01*
X218129109Y-113293725D01*
X218150841Y-113299603D01*
X218158110Y-113301932D01*
X218188314Y-113307968D01*
X218235187Y-113314840D01*
X218295720Y-113322252D01*
X218366901Y-113329905D01*
X218445719Y-113337504D01*
X218529165Y-113344750D01*
X218614227Y-113351347D01*
X218697894Y-113356998D01*
X218777157Y-113361406D01*
X218812362Y-113363182D01*
X218860735Y-113365891D01*
X218897314Y-113368289D01*
X218919019Y-113370167D01*
X218922771Y-113371314D01*
X218913853Y-113373604D01*
X218901701Y-113383890D01*
X218893257Y-113389687D01*
X218868973Y-113397281D01*
X218835034Y-113403863D01*
X218808942Y-113406970D01*
X218760745Y-113409922D01*
X218719262Y-113409432D01*
X218705465Y-113408553D01*
X218667152Y-113406547D01*
X218615618Y-113404179D01*
X218555878Y-113401673D01*
X218492946Y-113399255D01*
X218456111Y-113397728D01*
X218396189Y-113394490D01*
X218343268Y-113390729D01*
X218302030Y-113386797D01*
X218277157Y-113383047D01*
X218272079Y-113381921D01*
X218237980Y-113375744D01*
X218193037Y-113369017D01*
X218145578Y-113363007D01*
X218134926Y-113361778D01*
X218060198Y-113352296D01*
X217976899Y-113340231D01*
X217882029Y-113325108D01*
X217772588Y-113306452D01*
X217645578Y-113283787D01*
X217627822Y-113280569D01*
X217582356Y-113272363D01*
X217543883Y-113265466D01*
X217519262Y-113261110D01*
X217503015Y-113258227D01*
X217467849Y-113251876D01*
X217422211Y-113243565D01*
X217371893Y-113234346D01*
X217336871Y-113228020D01*
X217281150Y-113218333D01*
X217230587Y-113209954D01*
X217192946Y-113204192D01*
X217188216Y-113203519D01*
X217144350Y-113196826D01*
X217091587Y-113188225D01*
X217040314Y-113179402D01*
X217032741Y-113178057D01*
X216981776Y-113169078D01*
X216931907Y-113160399D01*
X216892946Y-113153729D01*
X216887424Y-113152790D01*
X216841792Y-113144537D01*
X216792899Y-113135004D01*
X216745539Y-113125206D01*
X216704505Y-113116163D01*
X216674589Y-113108891D01*
X216660586Y-113104408D01*
X216659194Y-113103833D01*
X216641730Y-113100742D01*
X216610177Y-113097323D01*
X216570213Y-113094214D01*
X216536655Y-113091985D01*
X216480881Y-113088157D01*
X216418778Y-113083795D01*
X216358616Y-113079475D01*
X216358060Y-113079434D01*
X216306674Y-113076070D01*
X216261878Y-113073817D01*
X216228470Y-113072873D01*
X216211248Y-113073435D01*
X216200357Y-113075467D01*
X216150013Y-113085865D01*
X216107991Y-113096144D01*
X216078443Y-113105205D01*
X216065518Y-113111953D01*
X216056045Y-113117577D01*
X216036432Y-113120449D01*
X216017327Y-113118873D01*
X216008735Y-113112716D01*
X216012749Y-113108554D01*
X216032141Y-113096542D01*
X216063956Y-113079636D01*
X216104114Y-113060084D01*
X216136837Y-113044896D01*
X216170549Y-113030602D01*
X216198827Y-113021940D01*
X216228292Y-113017544D01*
X216265567Y-113016046D01*
X216317272Y-113016079D01*
G37*
G36*
X215175790Y-116750726D02*
G01*
X215214489Y-116784970D01*
X215238714Y-116804891D01*
X215251183Y-116815145D01*
X215270911Y-116830721D01*
X215292828Y-116848729D01*
X215303472Y-116858463D01*
X215311765Y-116864194D01*
X215332420Y-116872602D01*
X215347335Y-116879462D01*
X215356104Y-116889811D01*
X215357575Y-116894050D01*
X215371016Y-116899628D01*
X215377345Y-116900426D01*
X215389437Y-116908926D01*
X215391206Y-116911142D01*
X215407103Y-116922766D01*
X215435526Y-116940115D01*
X215438436Y-116941733D01*
X215471893Y-116960334D01*
X215480403Y-116964873D01*
X215522451Y-116987300D01*
X215560665Y-117007683D01*
X215587675Y-117022088D01*
X215594763Y-117025927D01*
X215617844Y-117039339D01*
X215629780Y-117047764D01*
X215633909Y-117051302D01*
X215650841Y-117061060D01*
X215661966Y-117066868D01*
X215687797Y-117081580D01*
X215719262Y-117100326D01*
X215742278Y-117113861D01*
X215771461Y-117129691D01*
X215790314Y-117138257D01*
X215800153Y-117142872D01*
X215808735Y-117153487D01*
X215809654Y-117156895D01*
X215821893Y-117162831D01*
X215830420Y-117165204D01*
X215853486Y-117176647D01*
X215882420Y-117194364D01*
X215901201Y-117205984D01*
X215929375Y-117220292D01*
X215948209Y-117225898D01*
X215957930Y-117227391D01*
X215966630Y-117235633D01*
X215966636Y-117235823D01*
X215976110Y-117244621D01*
X215998209Y-117252259D01*
X215998823Y-117252396D01*
X216020714Y-117260111D01*
X216029788Y-117268885D01*
X216031614Y-117273376D01*
X216045720Y-117278575D01*
X216056585Y-117280080D01*
X216079931Y-117288994D01*
X216081778Y-117290027D01*
X216110015Y-117303457D01*
X216148578Y-117319182D01*
X216191529Y-117335090D01*
X216232930Y-117349068D01*
X216266845Y-117359004D01*
X216287336Y-117362785D01*
X216304736Y-117365131D01*
X216319262Y-117373312D01*
X216324309Y-117376789D01*
X216345954Y-117381849D01*
X216377157Y-117383838D01*
X216394497Y-117383244D01*
X216421545Y-117379451D01*
X216435051Y-117373312D01*
X216444109Y-117366884D01*
X216465832Y-117362785D01*
X216486818Y-117358393D01*
X216514634Y-117342810D01*
X216536634Y-117321350D01*
X216545578Y-117299741D01*
X216547389Y-117288812D01*
X216557323Y-117276414D01*
X216560022Y-117273783D01*
X216561654Y-117268049D01*
X217303472Y-117268049D01*
X217303901Y-117270934D01*
X217314620Y-117278575D01*
X217318427Y-117277748D01*
X217319262Y-117268049D01*
X217317101Y-117264898D01*
X217308114Y-117257522D01*
X217307064Y-117257796D01*
X217303472Y-117268049D01*
X216561654Y-117268049D01*
X216565396Y-117254906D01*
X216568977Y-117222787D01*
X216570728Y-117182924D01*
X216570690Y-117168670D01*
X217124525Y-117168670D01*
X217124799Y-117169720D01*
X217135051Y-117173312D01*
X217137936Y-117172883D01*
X217145578Y-117162164D01*
X217144751Y-117158357D01*
X217135051Y-117157522D01*
X217131901Y-117159683D01*
X217124525Y-117168670D01*
X216570690Y-117168670D01*
X216570628Y-117145899D01*
X217085271Y-117145899D01*
X217085434Y-117149493D01*
X217099086Y-117151428D01*
X217109433Y-117149742D01*
X217105446Y-117145068D01*
X217099359Y-117143387D01*
X217085271Y-117145899D01*
X216570628Y-117145899D01*
X216570614Y-117140812D01*
X216568601Y-117101949D01*
X216566641Y-117086996D01*
X217061367Y-117086996D01*
X217062056Y-117099915D01*
X217067311Y-117109514D01*
X217077723Y-117098710D01*
X217079660Y-117092029D01*
X217073081Y-117075552D01*
X217072837Y-117075310D01*
X217063946Y-117071725D01*
X217061367Y-117086996D01*
X216566641Y-117086996D01*
X216564653Y-117071832D01*
X216558735Y-117055957D01*
X216550911Y-117043252D01*
X216545578Y-117018096D01*
X216545532Y-117016595D01*
X216541844Y-117005512D01*
X216903472Y-117005512D01*
X216903774Y-117007862D01*
X216913999Y-117015417D01*
X216919029Y-117013409D01*
X216924525Y-116999006D01*
X216923010Y-116991488D01*
X216913999Y-116989101D01*
X216911124Y-116991256D01*
X216903472Y-117005512D01*
X216541844Y-117005512D01*
X216537325Y-116991931D01*
X216519262Y-116967092D01*
X216517298Y-116965072D01*
X216500035Y-116941541D01*
X216492946Y-116920954D01*
X216490347Y-116907492D01*
X216477157Y-116885342D01*
X216468138Y-116874289D01*
X216461367Y-116858274D01*
X216460941Y-116855104D01*
X216450841Y-116846996D01*
X216446200Y-116845432D01*
X216440314Y-116831828D01*
X216438285Y-116820794D01*
X216422634Y-116807861D01*
X216393938Y-116808964D01*
X216385850Y-116811570D01*
X216378093Y-116817775D01*
X216372725Y-116830502D01*
X216368902Y-116853377D01*
X216365781Y-116890027D01*
X216362518Y-116944079D01*
X216362420Y-116945798D01*
X216358737Y-116996187D01*
X216354140Y-117038957D01*
X216349206Y-117069636D01*
X216344511Y-117083752D01*
X216341209Y-117085705D01*
X216319712Y-117090053D01*
X216284928Y-117092529D01*
X216242558Y-117093225D01*
X216198302Y-117092231D01*
X216157863Y-117089640D01*
X216126942Y-117085541D01*
X216111239Y-117080026D01*
X216098995Y-117072821D01*
X216074383Y-117068049D01*
X216070384Y-117067722D01*
X216046528Y-117062571D01*
X216009752Y-117052360D01*
X215964793Y-117038649D01*
X215916384Y-117022996D01*
X215869260Y-117006959D01*
X215828156Y-116992096D01*
X215797807Y-116979967D01*
X215782946Y-116972128D01*
X215778774Y-116969014D01*
X215758333Y-116962785D01*
X215757967Y-116962777D01*
X215740915Y-116958217D01*
X215711368Y-116946910D01*
X215675493Y-116931207D01*
X215673007Y-116930058D01*
X215638468Y-116914683D01*
X215611713Y-116903774D01*
X215598352Y-116899628D01*
X215597879Y-116899617D01*
X215585928Y-116891733D01*
X215585400Y-116891046D01*
X215572255Y-116882174D01*
X215544513Y-116866345D01*
X215505813Y-116845573D01*
X215459796Y-116821876D01*
X215454662Y-116819269D01*
X215398303Y-116788412D01*
X216662283Y-116788412D01*
X216663943Y-116803253D01*
X216676405Y-116821432D01*
X216682247Y-116826729D01*
X216703291Y-116835988D01*
X216718817Y-116826664D01*
X216718690Y-116825943D01*
X216735051Y-116825943D01*
X216735088Y-116826664D01*
X216735172Y-116828326D01*
X216739693Y-116836470D01*
X216741382Y-116835985D01*
X216750841Y-116825943D01*
X216752486Y-116821866D01*
X216746199Y-116815417D01*
X216743143Y-116815822D01*
X216735051Y-116825943D01*
X216718690Y-116825943D01*
X216717331Y-116818200D01*
X216704481Y-116803334D01*
X216686125Y-116789768D01*
X216669551Y-116783838D01*
X216662283Y-116788412D01*
X215398303Y-116788412D01*
X215374318Y-116775280D01*
X215296753Y-116727287D01*
X215227645Y-116678999D01*
X215172669Y-116634130D01*
X215156004Y-116621401D01*
X215133196Y-116609565D01*
X215126635Y-116606991D01*
X215113820Y-116592721D01*
X215113213Y-116565417D01*
X215109582Y-116557389D01*
X215092571Y-116552259D01*
X215083756Y-116551691D01*
X215074408Y-116544261D01*
X215076092Y-116523312D01*
X215075095Y-116491647D01*
X215061821Y-116452259D01*
X215053523Y-116434656D01*
X215047117Y-116417280D01*
X215049949Y-116409860D01*
X215062049Y-116406790D01*
X215073471Y-116401792D01*
X215082420Y-116383106D01*
X215082410Y-116382177D01*
X215075663Y-116366970D01*
X215053472Y-116362118D01*
X215035593Y-116361402D01*
X215032756Y-116358742D01*
X215048885Y-116351681D01*
X215056321Y-116348116D01*
X215067191Y-116336155D01*
X215060639Y-116327672D01*
X215039109Y-116328472D01*
X215028502Y-116330812D01*
X215022139Y-116327494D01*
X215029426Y-116310831D01*
X215031997Y-116305811D01*
X215036081Y-116288072D01*
X215025084Y-116275022D01*
X215020689Y-116270679D01*
X215012633Y-116252448D01*
X215007008Y-116220054D01*
X215003093Y-116170064D01*
X215002921Y-116167003D01*
X214998010Y-116113310D01*
X214990775Y-116077099D01*
X214981656Y-116059261D01*
X214971096Y-116060688D01*
X214959536Y-116082269D01*
X214952763Y-116099571D01*
X214948788Y-116103998D01*
X214947075Y-116091556D01*
X214946378Y-116060154D01*
X214946895Y-116038747D01*
X214950362Y-116014377D01*
X214956104Y-116004891D01*
X214959983Y-116005799D01*
X214967297Y-116018049D01*
X214967299Y-116018070D01*
X214971059Y-116019604D01*
X214979143Y-116004891D01*
X214990322Y-115978575D01*
X215000507Y-116015401D01*
X215001852Y-116020106D01*
X215010453Y-116044706D01*
X215017609Y-116057514D01*
X215018771Y-116058518D01*
X215030810Y-116075479D01*
X215044854Y-116102075D01*
X215056506Y-116129225D01*
X215061367Y-116147849D01*
X215062326Y-116154308D01*
X215071057Y-116162785D01*
X215071663Y-116162847D01*
X215080391Y-116173240D01*
X215088052Y-116196044D01*
X215095456Y-116218359D01*
X215115026Y-116257767D01*
X215140938Y-116299285D01*
X215168536Y-116335670D01*
X215193166Y-116359676D01*
X215215937Y-116376481D01*
X215241370Y-116396338D01*
X215259370Y-116406605D01*
X215278009Y-116408370D01*
X215283422Y-116405441D01*
X215292236Y-116387306D01*
X215286882Y-116358998D01*
X215268383Y-116323672D01*
X215237767Y-116284485D01*
X215225625Y-116269172D01*
X215219262Y-116256289D01*
X215217164Y-116250090D01*
X215205353Y-116234590D01*
X215198678Y-116225100D01*
X215186140Y-116195791D01*
X215174280Y-116156703D01*
X215164863Y-116114993D01*
X215159651Y-116077814D01*
X215160411Y-116052322D01*
X215163407Y-116041845D01*
X215171047Y-116030645D01*
X215186880Y-116027474D01*
X215217227Y-116029829D01*
X215229831Y-116031554D01*
X215268033Y-116040216D01*
X215298418Y-116051562D01*
X215328195Y-116062950D01*
X215357984Y-116067984D01*
X215384117Y-116072531D01*
X215413778Y-116094712D01*
X215433677Y-116134915D01*
X215443610Y-116192665D01*
X215443373Y-116267484D01*
X215441827Y-116292897D01*
X215440539Y-116329594D01*
X215442020Y-116351716D01*
X215446765Y-116363500D01*
X215455270Y-116369185D01*
X215466348Y-116371035D01*
X215485233Y-116364183D01*
X215495767Y-116359221D01*
X215522960Y-116354203D01*
X215558209Y-116352259D01*
X215584912Y-116351199D01*
X215609709Y-116347384D01*
X215619262Y-116341733D01*
X215625823Y-116334803D01*
X215645630Y-116331207D01*
X215656599Y-116329326D01*
X215686119Y-116312433D01*
X215724577Y-116277509D01*
X215726575Y-116275460D01*
X215752134Y-116247829D01*
X215770266Y-116225639D01*
X215777157Y-116213528D01*
X215777976Y-116207360D01*
X215787176Y-116181232D01*
X215804171Y-116145299D01*
X215825917Y-116105020D01*
X215849370Y-116065848D01*
X215871486Y-116033241D01*
X215889222Y-116012654D01*
X215890016Y-116011953D01*
X215915498Y-115983537D01*
X215922477Y-115957268D01*
X215910668Y-115929670D01*
X215879788Y-115897267D01*
X215860442Y-115880673D01*
X215839079Y-115863999D01*
X215827928Y-115857537D01*
X215822148Y-115855055D01*
X215810043Y-115837350D01*
X215798943Y-115807641D01*
X215790828Y-115771907D01*
X215787683Y-115736129D01*
X215788005Y-115713732D01*
X215791215Y-115690606D01*
X215800407Y-115677691D01*
X215818626Y-115668312D01*
X215819204Y-115668075D01*
X215843952Y-115661210D01*
X215860515Y-115662259D01*
X215864236Y-115663481D01*
X215885159Y-115662718D01*
X215914147Y-115656234D01*
X215939592Y-115649936D01*
X215965245Y-115650278D01*
X215993668Y-115661010D01*
X216004574Y-115665416D01*
X216042597Y-115674826D01*
X216082441Y-115678575D01*
X216094175Y-115678475D01*
X216121691Y-115675849D01*
X216137762Y-115667281D01*
X216149693Y-115649628D01*
X216159749Y-115632091D01*
X216166311Y-115628893D01*
X216172068Y-115641733D01*
X216178215Y-115660029D01*
X216188005Y-115689101D01*
X216192956Y-115709303D01*
X216197876Y-115745908D01*
X216200593Y-115787366D01*
X216200915Y-115827253D01*
X216198650Y-115859146D01*
X216193607Y-115876620D01*
X216182727Y-115889636D01*
X216163999Y-115910908D01*
X216155016Y-115923847D01*
X216146856Y-115946281D01*
X216146371Y-115965293D01*
X216154691Y-115973312D01*
X216156612Y-115974475D01*
X216158930Y-115989068D01*
X216156175Y-116015026D01*
X216153402Y-116034641D01*
X216155813Y-116058962D01*
X216169126Y-116078829D01*
X216169389Y-116079110D01*
X216198401Y-116101953D01*
X216232354Y-116117720D01*
X216261843Y-116122029D01*
X216262992Y-116121959D01*
X216281130Y-116129174D01*
X216301622Y-116147132D01*
X216304086Y-116149877D01*
X216322128Y-116165212D01*
X216334603Y-116168326D01*
X216341091Y-116168844D01*
X216359937Y-116179637D01*
X216384297Y-116199498D01*
X216399053Y-116212422D01*
X216424784Y-116232129D01*
X216442946Y-116242467D01*
X216443340Y-116242596D01*
X216457181Y-116250645D01*
X216462597Y-116266679D01*
X216461774Y-116297035D01*
X216463940Y-116312718D01*
X216476398Y-116327109D01*
X216485349Y-116333774D01*
X216492946Y-116353648D01*
X216499811Y-116369896D01*
X216524525Y-116380154D01*
X216542303Y-116385107D01*
X216556197Y-116398196D01*
X216556890Y-116423312D01*
X216557958Y-116429523D01*
X216570909Y-116436470D01*
X216578855Y-116438046D01*
X216595055Y-116451246D01*
X216606306Y-116461403D01*
X216629720Y-116469667D01*
X216648130Y-116476515D01*
X216662326Y-116499628D01*
X216664007Y-116506468D01*
X216675621Y-116545510D01*
X216686951Y-116566838D01*
X216699437Y-116573312D01*
X216706203Y-116575132D01*
X216713999Y-116589101D01*
X216715186Y-116596365D01*
X216724525Y-116604891D01*
X216730580Y-116608688D01*
X216735051Y-116625613D01*
X216737859Y-116638565D01*
X216750841Y-116640276D01*
X216758973Y-116638831D01*
X216766630Y-116645870D01*
X216767118Y-116649369D01*
X216777157Y-116657522D01*
X216782376Y-116655260D01*
X216787683Y-116640444D01*
X216787795Y-116635930D01*
X216791710Y-116628962D01*
X216805112Y-116637812D01*
X216811931Y-116643638D01*
X216816932Y-116651697D01*
X216805112Y-116655663D01*
X216794157Y-116660559D01*
X216787628Y-116675514D01*
X216794699Y-116692465D01*
X216813999Y-116703950D01*
X216821719Y-116706476D01*
X216836910Y-116716489D01*
X216840679Y-116726595D01*
X216829788Y-116731207D01*
X216824104Y-116734227D01*
X216819262Y-116750154D01*
X216817754Y-116760613D01*
X216806630Y-116781733D01*
X216799419Y-116792672D01*
X216806630Y-116806996D01*
X216816381Y-116813471D01*
X216819262Y-116802354D01*
X216822479Y-116787143D01*
X216839519Y-116776203D01*
X216872150Y-116778631D01*
X216874319Y-116779138D01*
X216897901Y-116790873D01*
X216905336Y-116806471D01*
X216896657Y-116820104D01*
X216889184Y-116821866D01*
X216871893Y-116825943D01*
X216871501Y-116825944D01*
X216849461Y-116829079D01*
X216840314Y-116836470D01*
X216833781Y-116843393D01*
X216813999Y-116846996D01*
X216796691Y-116849609D01*
X216787683Y-116857522D01*
X216792844Y-116861854D01*
X216813872Y-116866318D01*
X216845578Y-116868049D01*
X216880036Y-116869414D01*
X216898275Y-116874316D01*
X216903472Y-116883838D01*
X216908623Y-116894137D01*
X216929788Y-116899628D01*
X216947096Y-116902241D01*
X216956104Y-116910154D01*
X216957885Y-116914996D01*
X216971893Y-116920680D01*
X216979157Y-116919493D01*
X216987683Y-116910154D01*
X216987989Y-116907638D01*
X216998209Y-116899628D01*
X217005132Y-116906161D01*
X217008735Y-116925943D01*
X217009182Y-116935129D01*
X217016626Y-116948924D01*
X217038209Y-116952259D01*
X217064373Y-116956176D01*
X217085935Y-116974015D01*
X217091248Y-116999006D01*
X217092946Y-117006996D01*
X217095885Y-117027373D01*
X217103472Y-117036470D01*
X217108315Y-117038251D01*
X217113999Y-117052259D01*
X217118966Y-117062426D01*
X217139582Y-117068049D01*
X217159170Y-117072759D01*
X217168530Y-117091733D01*
X217168625Y-117092029D01*
X217172903Y-117105390D01*
X217186727Y-117114472D01*
X217215547Y-117118601D01*
X217231499Y-117120291D01*
X217254682Y-117127743D01*
X217264562Y-117142285D01*
X217268732Y-117149742D01*
X217271108Y-117153990D01*
X217290489Y-117162164D01*
X217291961Y-117162785D01*
X217293325Y-117162801D01*
X217309506Y-117169007D01*
X217313999Y-117189853D01*
X217319434Y-117215149D01*
X217335040Y-117237756D01*
X217355352Y-117246996D01*
X217360549Y-117245208D01*
X217366630Y-117231207D01*
X217368509Y-117223787D01*
X217382544Y-117215417D01*
X217390750Y-117217826D01*
X217394501Y-117230581D01*
X217391534Y-117258719D01*
X217390092Y-117268049D01*
X217389704Y-117270558D01*
X217388117Y-117291258D01*
X217393326Y-117297746D01*
X217407426Y-117294780D01*
X217411568Y-117293827D01*
X217435037Y-117294745D01*
X217461816Y-117301750D01*
X217483815Y-117312149D01*
X217492946Y-117323250D01*
X217495714Y-117327547D01*
X217511367Y-117331976D01*
X217512777Y-117332084D01*
X217534856Y-117339029D01*
X217561367Y-117353151D01*
X217563144Y-117354291D01*
X217589996Y-117369922D01*
X217611367Y-117379925D01*
X217621149Y-117385544D01*
X217629788Y-117400855D01*
X217629983Y-117402865D01*
X217641532Y-117412359D01*
X217671893Y-117415417D01*
X217681332Y-117415685D01*
X217704660Y-117419352D01*
X217713999Y-117425943D01*
X217715780Y-117430786D01*
X217729788Y-117436470D01*
X217737062Y-117435208D01*
X217745578Y-117425322D01*
X217746404Y-117421515D01*
X217756104Y-117420680D01*
X217760252Y-117424434D01*
X217766215Y-117441555D01*
X217763765Y-117459860D01*
X217753472Y-117468880D01*
X217745715Y-117470264D01*
X217753472Y-117475020D01*
X217759965Y-117480010D01*
X217766630Y-117498406D01*
X217764389Y-117515793D01*
X217754175Y-117542961D01*
X217739482Y-117564224D01*
X217724525Y-117572197D01*
X217706125Y-117571626D01*
X217696528Y-117576331D01*
X217703472Y-117589101D01*
X217711896Y-117596602D01*
X217734841Y-117604356D01*
X217757097Y-117600863D01*
X217769900Y-117586470D01*
X217770676Y-117583990D01*
X217773972Y-117584450D01*
X217775935Y-117602259D01*
X217776702Y-117613485D01*
X217782992Y-117631618D01*
X217798209Y-117636470D01*
X217814328Y-117642150D01*
X217819262Y-117662785D01*
X217817037Y-117673312D01*
X217815138Y-117682293D01*
X217799335Y-117689101D01*
X217787710Y-117691559D01*
X217773399Y-117704763D01*
X217772339Y-117710970D01*
X217778946Y-117716163D01*
X217798683Y-117717411D01*
X217835431Y-117715378D01*
X217857340Y-117713964D01*
X217885771Y-117713825D01*
X217899748Y-117717628D01*
X217903472Y-117726032D01*
X217904645Y-117733213D01*
X217913999Y-117741733D01*
X217918841Y-117739951D01*
X217924525Y-117725943D01*
X217926451Y-117719246D01*
X217940672Y-117712220D01*
X217971893Y-117710154D01*
X217991984Y-117710796D01*
X218013063Y-117715536D01*
X218019262Y-117725943D01*
X218019328Y-117727381D01*
X218028855Y-117738309D01*
X218056104Y-117741733D01*
X218067087Y-117741435D01*
X218087233Y-117736473D01*
X218092946Y-117723688D01*
X218093316Y-117714845D01*
X218097760Y-117711910D01*
X218111367Y-117724331D01*
X218120798Y-117734518D01*
X218123726Y-117745284D01*
X218111058Y-117756921D01*
X218106294Y-117760570D01*
X218098580Y-117770331D01*
X218108089Y-117776870D01*
X218116393Y-117778529D01*
X218130072Y-117772852D01*
X218136434Y-117765494D01*
X218148089Y-117764958D01*
X218152303Y-117781207D01*
X218156117Y-117794353D01*
X218174525Y-117796334D01*
X218189482Y-117796784D01*
X218198209Y-117804229D01*
X218198242Y-117805102D01*
X218206391Y-117814257D01*
X218221328Y-117813567D01*
X218232065Y-117803324D01*
X218244381Y-117796160D01*
X218275047Y-117798537D01*
X218276353Y-117798788D01*
X218305133Y-117808750D01*
X218313883Y-117821424D01*
X218302803Y-117833813D01*
X218272092Y-117842922D01*
X218264455Y-117844343D01*
X218235814Y-117853194D01*
X218218172Y-117864099D01*
X218205771Y-117872856D01*
X218181131Y-117878575D01*
X218165079Y-117880761D01*
X218156104Y-117887906D01*
X218155065Y-117890435D01*
X218138588Y-117897825D01*
X218103479Y-117904072D01*
X218051566Y-117908920D01*
X217984677Y-117912110D01*
X217976840Y-117912387D01*
X217937081Y-117914933D01*
X217906063Y-117918727D01*
X217889941Y-117923058D01*
X217879364Y-117926782D01*
X217856104Y-117925953D01*
X217852800Y-117925361D01*
X217830100Y-117923328D01*
X217790917Y-117921048D01*
X217738677Y-117918681D01*
X217676808Y-117916389D01*
X217608735Y-117914331D01*
X217593100Y-117913890D01*
X217521904Y-117911386D01*
X217454643Y-117908274D01*
X217395597Y-117904801D01*
X217349044Y-117901210D01*
X217319262Y-117897748D01*
X217293671Y-117893722D01*
X217244180Y-117886780D01*
X217200841Y-117881613D01*
X217179419Y-117878700D01*
X217155060Y-117872864D01*
X217145578Y-117866745D01*
X217140559Y-117861047D01*
X217122245Y-117857522D01*
X217117098Y-117857264D01*
X217089067Y-117852311D01*
X217056456Y-117843046D01*
X217038650Y-117837069D01*
X216997588Y-117823641D01*
X216956104Y-117810418D01*
X216935871Y-117803736D01*
X216888192Y-117786262D01*
X216845578Y-117768718D01*
X216826956Y-117760457D01*
X216788172Y-117743587D01*
X216756691Y-117730293D01*
X216741335Y-117723370D01*
X216708451Y-117707715D01*
X216662264Y-117685275D01*
X216615739Y-117662416D01*
X217718122Y-117662416D01*
X217730408Y-117672977D01*
X217752057Y-117685601D01*
X217770280Y-117686852D01*
X217777157Y-117673312D01*
X217769496Y-117661669D01*
X217743566Y-117657522D01*
X217721914Y-117658248D01*
X217718122Y-117662416D01*
X216615739Y-117662416D01*
X216605733Y-117657500D01*
X216541817Y-117625837D01*
X216473475Y-117591733D01*
X216411745Y-117561039D01*
X216350165Y-117530899D01*
X216296795Y-117505278D01*
X216254278Y-117485429D01*
X216225253Y-117472602D01*
X216212362Y-117468049D01*
X216206609Y-117467135D01*
X216198209Y-117457522D01*
X216196841Y-117453084D01*
X216183623Y-117446996D01*
X216164473Y-117442380D01*
X216138886Y-117431271D01*
X216112637Y-117420237D01*
X216090936Y-117415482D01*
X216081686Y-117414299D01*
X216067368Y-117406084D01*
X216065876Y-117404445D01*
X216049078Y-117396396D01*
X216022010Y-117389353D01*
X216016129Y-117388184D01*
X215988557Y-117380867D01*
X215971893Y-117373499D01*
X215967315Y-117371022D01*
X215945015Y-117364630D01*
X215913999Y-117359495D01*
X215879323Y-117354396D01*
X215833942Y-117346363D01*
X215787683Y-117337136D01*
X215753998Y-117330074D01*
X215704125Y-117320135D01*
X215651139Y-117310303D01*
X215589138Y-117299497D01*
X215512221Y-117286635D01*
X215503976Y-117285240D01*
X215465829Y-117277849D01*
X215437152Y-117270787D01*
X215423624Y-117265417D01*
X215412046Y-117260334D01*
X215388560Y-117257611D01*
X215364955Y-117255351D01*
X215328645Y-117249267D01*
X215287683Y-117240687D01*
X215247361Y-117231389D01*
X215206587Y-117222008D01*
X215177157Y-117215259D01*
X215159856Y-117211080D01*
X215121638Y-117201144D01*
X215081495Y-117190077D01*
X215056256Y-117183407D01*
X215022709Y-117176137D01*
X215000537Y-117173312D01*
X214986625Y-117171387D01*
X214971893Y-117162785D01*
X214965860Y-117157404D01*
X214946252Y-117152259D01*
X214932106Y-117149710D01*
X214903381Y-117140869D01*
X214867228Y-117127789D01*
X214829123Y-117112660D01*
X214794542Y-117097673D01*
X214768962Y-117085018D01*
X214757858Y-117076888D01*
X214757370Y-117075831D01*
X214744700Y-117068049D01*
X214735476Y-117064546D01*
X214717096Y-117049790D01*
X214700295Y-117030745D01*
X214692946Y-117015417D01*
X214693247Y-117012905D01*
X214703348Y-117004891D01*
X214709322Y-116999608D01*
X214711243Y-116981241D01*
X214714722Y-116961984D01*
X214733889Y-116954000D01*
X214741487Y-116953136D01*
X214754244Y-116956430D01*
X214753296Y-116972387D01*
X214752029Y-116986259D01*
X214761181Y-116994364D01*
X214763067Y-116994034D01*
X214773750Y-116981840D01*
X214781725Y-116957522D01*
X214782746Y-116952484D01*
X214787714Y-116936258D01*
X214832037Y-116936258D01*
X214833297Y-116948750D01*
X214836463Y-116950397D01*
X214840314Y-116941733D01*
X214839555Y-116936160D01*
X214833297Y-116934715D01*
X214832037Y-116936258D01*
X214787714Y-116936258D01*
X214789670Y-116929869D01*
X214796721Y-116920680D01*
X214798213Y-116920204D01*
X214807852Y-116907938D01*
X214819090Y-116884276D01*
X214821093Y-116879435D01*
X214834536Y-116855188D01*
X214847370Y-116842501D01*
X214855310Y-116835656D01*
X214861367Y-116815747D01*
X214862362Y-116806332D01*
X214868643Y-116799416D01*
X214937300Y-116799416D01*
X214938560Y-116811908D01*
X214941726Y-116813555D01*
X214945578Y-116804891D01*
X214944818Y-116799318D01*
X214938560Y-116797873D01*
X214937300Y-116799416D01*
X214868643Y-116799416D01*
X214873469Y-116794103D01*
X214899810Y-116793342D01*
X214901823Y-116792875D01*
X214908726Y-116779977D01*
X214913967Y-116754541D01*
X214914234Y-116751638D01*
X214924525Y-116751638D01*
X214924755Y-116757488D01*
X214930586Y-116775042D01*
X214940216Y-116775457D01*
X214948177Y-116757400D01*
X214948898Y-116739565D01*
X214938855Y-116731207D01*
X214930658Y-116734904D01*
X214924525Y-116751638D01*
X214914234Y-116751638D01*
X214916844Y-116723291D01*
X214916652Y-116692951D01*
X214912690Y-116670245D01*
X214911177Y-116660082D01*
X214918331Y-116632931D01*
X214935607Y-116604614D01*
X214957972Y-116582338D01*
X214980393Y-116573312D01*
X214983161Y-116573913D01*
X214991830Y-116579044D01*
X215006454Y-116590779D01*
X215028838Y-116610753D01*
X215060791Y-116640602D01*
X215104120Y-116681963D01*
X215160630Y-116736470D01*
X215163921Y-116739565D01*
X215175790Y-116750726D01*
G37*
G36*
X213240415Y-109639767D02*
G01*
X213255680Y-109663112D01*
X213261367Y-109673244D01*
X213262515Y-109677398D01*
X213272089Y-109692177D01*
X213293964Y-109718510D01*
X213312728Y-109742902D01*
X213322022Y-109758633D01*
X213324525Y-109769659D01*
X213325265Y-109775403D01*
X213333113Y-109783838D01*
X213336712Y-109785722D01*
X213349468Y-109800708D01*
X213365265Y-109825764D01*
X213371664Y-109836854D01*
X213388673Y-109863944D01*
X213401414Y-109881082D01*
X213404869Y-109885196D01*
X213419919Y-109905500D01*
X213441655Y-109936516D01*
X213466630Y-109973367D01*
X213477904Y-109990180D01*
X213500327Y-110023062D01*
X213517127Y-110046937D01*
X213525318Y-110057522D01*
X213526453Y-110058701D01*
X213536772Y-110073330D01*
X213551272Y-110096996D01*
X213554667Y-110102640D01*
X213569287Y-110122981D01*
X213579426Y-110131206D01*
X213583208Y-110132971D01*
X213587683Y-110146996D01*
X213588787Y-110154249D01*
X213597500Y-110162785D01*
X213603970Y-110166044D01*
X213613456Y-110182129D01*
X213618945Y-110194102D01*
X213642060Y-110225041D01*
X213678344Y-110261543D01*
X213724490Y-110300094D01*
X213758363Y-110326234D01*
X213787033Y-110348901D01*
X213808042Y-110366600D01*
X213826335Y-110383527D01*
X213846856Y-110403874D01*
X213858222Y-110415792D01*
X213875582Y-110436485D01*
X213882420Y-110448611D01*
X213883335Y-110451873D01*
X213895578Y-110457604D01*
X213908246Y-110465381D01*
X213921618Y-110485434D01*
X213926726Y-110498140D01*
X213927092Y-110512934D01*
X213917001Y-110529389D01*
X213893909Y-110553773D01*
X213877225Y-110569843D01*
X213856854Y-110587501D01*
X213845845Y-110594364D01*
X213839497Y-110596404D01*
X213816450Y-110611944D01*
X213779473Y-110642596D01*
X213728825Y-110688150D01*
X213672697Y-110739916D01*
X213694548Y-110767694D01*
X213696599Y-110770363D01*
X213708713Y-110790118D01*
X213710437Y-110801435D01*
X213709477Y-110802521D01*
X213710373Y-110815007D01*
X213726800Y-110829322D01*
X213754102Y-110843437D01*
X213787626Y-110855325D01*
X213822718Y-110862958D01*
X213854724Y-110864307D01*
X213867013Y-110863644D01*
X213911426Y-110864198D01*
X213969773Y-110867650D01*
X214037130Y-110873488D01*
X214108574Y-110881199D01*
X214179184Y-110890271D01*
X214244036Y-110900193D01*
X214298209Y-110910451D01*
X214333688Y-110915989D01*
X214381778Y-110920231D01*
X214429788Y-110921834D01*
X214474758Y-110923742D01*
X214522820Y-110929218D01*
X214560646Y-110937019D01*
X214560676Y-110937028D01*
X214598018Y-110944700D01*
X214645997Y-110950172D01*
X214694235Y-110952259D01*
X214703013Y-110952314D01*
X214741066Y-110953912D01*
X214769184Y-110957276D01*
X214781810Y-110961799D01*
X214788090Y-110965895D01*
X214810776Y-110972712D01*
X214842958Y-110978317D01*
X214861799Y-110980934D01*
X214900385Y-110987505D01*
X214929788Y-110994012D01*
X214931754Y-110994553D01*
X215020724Y-111016043D01*
X215109125Y-111032096D01*
X215187683Y-111041022D01*
X215220095Y-111043339D01*
X215284288Y-111048525D01*
X215346010Y-111054214D01*
X215401556Y-111060005D01*
X215447219Y-111065501D01*
X215479294Y-111070302D01*
X215494076Y-111074010D01*
X215501769Y-111076283D01*
X215527443Y-111080578D01*
X215565769Y-111085397D01*
X215611783Y-111090064D01*
X215645678Y-111093158D01*
X215729930Y-111101152D01*
X215796254Y-111108027D01*
X215846929Y-111114071D01*
X215884232Y-111119573D01*
X215910444Y-111124821D01*
X215927842Y-111130104D01*
X215953076Y-111137916D01*
X215977893Y-111141733D01*
X215990573Y-111143925D01*
X216019229Y-111153481D01*
X216052862Y-111168049D01*
X216075897Y-111178077D01*
X216110934Y-111189797D01*
X216137021Y-111194364D01*
X216157531Y-111197364D01*
X216166630Y-111205061D01*
X216172900Y-111213015D01*
X216174967Y-111215637D01*
X216198090Y-111229119D01*
X216230109Y-111242214D01*
X216265109Y-111252095D01*
X216286795Y-111261467D01*
X216300315Y-111278163D01*
X216309247Y-111291988D01*
X216330783Y-111304200D01*
X216347196Y-111310798D01*
X216356104Y-111320881D01*
X216358018Y-111325741D01*
X216372264Y-111331207D01*
X216386672Y-111334033D01*
X216411117Y-111346383D01*
X216431676Y-111363408D01*
X216440314Y-111379415D01*
X216440343Y-111380292D01*
X216450494Y-111396931D01*
X216473802Y-111410077D01*
X216502780Y-111415417D01*
X216515679Y-111417483D01*
X216524525Y-111425943D01*
X216533206Y-111433301D01*
X216554815Y-111436470D01*
X216578557Y-111440580D01*
X216598209Y-111452259D01*
X216610540Y-111461532D01*
X216635463Y-111468049D01*
X216651247Y-111470659D01*
X216663661Y-111480194D01*
X216664247Y-111481457D01*
X216673766Y-111488244D01*
X216695531Y-111495096D01*
X216731722Y-111502472D01*
X216784520Y-111510828D01*
X216856104Y-111520624D01*
X216875062Y-111523132D01*
X217002241Y-111541724D01*
X217117402Y-111561710D01*
X217218737Y-111582686D01*
X217304444Y-111604248D01*
X217372716Y-111625989D01*
X217421751Y-111647506D01*
X217433331Y-111652620D01*
X217455961Y-111657522D01*
X217463358Y-111658733D01*
X217471893Y-111668049D01*
X217472414Y-111671164D01*
X217483460Y-111678575D01*
X217484375Y-111678614D01*
X217502448Y-111683370D01*
X217528197Y-111693655D01*
X217572627Y-111712604D01*
X217621061Y-111728849D01*
X217670329Y-111739192D01*
X217727141Y-111744973D01*
X217798209Y-111747531D01*
X217840157Y-111748887D01*
X217914531Y-111753348D01*
X217990245Y-111759902D01*
X218056104Y-111767674D01*
X218099491Y-111773657D01*
X218161888Y-111781841D01*
X218220430Y-111789096D01*
X218266630Y-111794347D01*
X218324801Y-111801441D01*
X218387643Y-111811869D01*
X218436860Y-111823411D01*
X218468739Y-111835315D01*
X218480300Y-111839948D01*
X218509903Y-111849394D01*
X218550930Y-111861145D01*
X218598209Y-111873669D01*
X218668512Y-111892157D01*
X218736681Y-111911641D01*
X218787620Y-111928207D01*
X218819607Y-111941328D01*
X218840687Y-111949263D01*
X218869487Y-111956994D01*
X218870897Y-111957311D01*
X218895627Y-111965319D01*
X218909236Y-111974122D01*
X218918497Y-111980184D01*
X218940314Y-111983838D01*
X218957269Y-111985953D01*
X218971327Y-111993448D01*
X218973436Y-111995568D01*
X218991300Y-112003469D01*
X219019262Y-112010154D01*
X219027991Y-112011812D01*
X219053865Y-112019153D01*
X219067196Y-112026859D01*
X219073800Y-112032107D01*
X219093710Y-112036470D01*
X219106035Y-112037721D01*
X219132563Y-112046319D01*
X219147345Y-112054048D01*
X219184982Y-112071798D01*
X219216904Y-112084344D01*
X219236811Y-112089101D01*
X219246931Y-112090591D01*
X219269405Y-112099258D01*
X219279435Y-112104350D01*
X219306926Y-112117003D01*
X219340314Y-112131412D01*
X219360227Y-112139737D01*
X219392329Y-112153168D01*
X219413999Y-112162247D01*
X219424189Y-112166287D01*
X219453200Y-112177010D01*
X219487683Y-112189143D01*
X219504122Y-112195064D01*
X219549956Y-112213381D01*
X219592381Y-112232361D01*
X219612997Y-112241516D01*
X219645595Y-112253024D01*
X219668697Y-112257522D01*
X219683992Y-112259427D01*
X219692946Y-112265969D01*
X219697882Y-112271184D01*
X219717954Y-112281820D01*
X219748209Y-112293844D01*
X219770705Y-112302078D01*
X219798727Y-112313400D01*
X219813999Y-112321024D01*
X219814540Y-112321402D01*
X219832413Y-112328933D01*
X219859445Y-112336246D01*
X219891096Y-112345394D01*
X219922602Y-112358450D01*
X219944603Y-112368752D01*
X219958850Y-112373247D01*
X219963235Y-112374163D01*
X219983226Y-112381306D01*
X220011482Y-112393201D01*
X220038964Y-112405185D01*
X220095513Y-112427793D01*
X220139036Y-112442040D01*
X220166843Y-112446996D01*
X220178856Y-112448493D01*
X220187683Y-112455129D01*
X220194427Y-112461071D01*
X220220366Y-112471056D01*
X220264360Y-112483558D01*
X220324905Y-112498106D01*
X220344933Y-112504316D01*
X220376279Y-112520486D01*
X220380692Y-112524189D01*
X220399596Y-112540050D01*
X220408735Y-112558573D01*
X220405735Y-112571799D01*
X220388605Y-112585997D01*
X220355248Y-112592596D01*
X220304463Y-112591770D01*
X220235051Y-112583692D01*
X220206176Y-112579574D01*
X220158777Y-112573634D01*
X220111550Y-112569068D01*
X220059190Y-112565472D01*
X219996390Y-112562443D01*
X219917845Y-112559578D01*
X219908939Y-112559266D01*
X219857018Y-112556757D01*
X219812841Y-112553497D01*
X219780843Y-112549873D01*
X219765459Y-112546272D01*
X219755116Y-112541623D01*
X219730089Y-112535902D01*
X219702817Y-112533650D01*
X219680889Y-112535278D01*
X219671893Y-112541198D01*
X219671987Y-112542022D01*
X219682800Y-112549815D01*
X219706104Y-112553944D01*
X219740314Y-112555628D01*
X219706104Y-112559874D01*
X219703543Y-112560224D01*
X219681106Y-112566642D01*
X219671893Y-112575610D01*
X219665550Y-112577969D01*
X219650198Y-112567467D01*
X219643836Y-112561958D01*
X219629338Y-112554375D01*
X219619796Y-112561921D01*
X219614091Y-112567842D01*
X219599386Y-112568776D01*
X219594128Y-112567005D01*
X219587618Y-112575322D01*
X219586690Y-112577893D01*
X219577549Y-112582503D01*
X219556731Y-112585953D01*
X219521891Y-112588444D01*
X219470687Y-112590178D01*
X219400776Y-112591355D01*
X219339834Y-112592330D01*
X219282255Y-112594151D01*
X219237827Y-112597076D01*
X219202237Y-112601525D01*
X219171171Y-112607917D01*
X219140314Y-112616671D01*
X219138128Y-112617359D01*
X219099593Y-112630729D01*
X219068003Y-112643820D01*
X219050012Y-112653891D01*
X219038715Y-112661765D01*
X219021319Y-112668049D01*
X219012390Y-112669409D01*
X218983729Y-112683796D01*
X218949524Y-112710860D01*
X218913697Y-112746823D01*
X218880168Y-112787908D01*
X218852856Y-112830339D01*
X218847421Y-112841555D01*
X218834232Y-112877002D01*
X218823748Y-112915417D01*
X218820270Y-112934926D01*
X218819584Y-112967117D01*
X218827679Y-112999220D01*
X218846228Y-113036563D01*
X218876908Y-113084473D01*
X218883974Y-113095592D01*
X218895500Y-113118934D01*
X218897388Y-113132535D01*
X218897236Y-113132780D01*
X218893921Y-113136515D01*
X218888868Y-113135780D01*
X218879684Y-113128273D01*
X218863977Y-113111690D01*
X218839353Y-113083728D01*
X218803421Y-113042086D01*
X218795373Y-113032817D01*
X218758812Y-112992243D01*
X218721878Y-112953249D01*
X218691466Y-112923158D01*
X218689268Y-112921090D01*
X218651236Y-112877260D01*
X218631739Y-112834703D01*
X218627560Y-112810541D01*
X218629610Y-112775332D01*
X218641763Y-112750887D01*
X218662521Y-112741733D01*
X218667117Y-112740940D01*
X218686908Y-112728875D01*
X218707919Y-112706897D01*
X218717419Y-112696063D01*
X218748502Y-112669456D01*
X218783434Y-112647617D01*
X218832379Y-112623173D01*
X218826661Y-112548242D01*
X218824790Y-112527355D01*
X219600071Y-112527355D01*
X219608735Y-112531207D01*
X219614308Y-112530447D01*
X219615753Y-112524189D01*
X219614210Y-112522929D01*
X219601718Y-112524189D01*
X219600071Y-112527355D01*
X218824790Y-112527355D01*
X218823007Y-112507446D01*
X218818747Y-112470735D01*
X218814880Y-112446996D01*
X218808970Y-112419683D01*
X218802341Y-112386470D01*
X218801786Y-112383634D01*
X218795827Y-112361383D01*
X218790378Y-112352259D01*
X218780695Y-112357789D01*
X218765228Y-112375155D01*
X218751501Y-112396425D01*
X218745578Y-112413333D01*
X218744310Y-112418796D01*
X218732182Y-112438751D01*
X218711367Y-112462134D01*
X218680929Y-112484259D01*
X218640925Y-112502716D01*
X218598815Y-112514723D01*
X218561082Y-112518450D01*
X218534210Y-112512071D01*
X218520209Y-112503694D01*
X218510050Y-112502369D01*
X218502897Y-112514033D01*
X218494045Y-112542217D01*
X218493802Y-112543022D01*
X218477416Y-112577708D01*
X218452905Y-112596338D01*
X218396628Y-112620559D01*
X218351902Y-112642914D01*
X218323769Y-112661087D01*
X218313999Y-112674086D01*
X218312939Y-112680632D01*
X218303472Y-112689101D01*
X218291481Y-112694133D01*
X218272924Y-112709123D01*
X218265416Y-112715238D01*
X218244070Y-112724581D01*
X218210288Y-112731348D01*
X218159766Y-112736583D01*
X218144996Y-112737917D01*
X218098789Y-112743915D01*
X218059006Y-112751589D01*
X218032949Y-112759615D01*
X218029219Y-112761282D01*
X218004873Y-112769270D01*
X217989926Y-112769435D01*
X217988307Y-112768766D01*
X217969989Y-112765976D01*
X217937722Y-112763757D01*
X217897291Y-112762540D01*
X217895910Y-112762520D01*
X217847107Y-112760644D01*
X217798840Y-112756921D01*
X217761367Y-112752136D01*
X217695570Y-112740778D01*
X217611538Y-112727455D01*
X217539213Y-112717979D01*
X217473315Y-112711899D01*
X217408563Y-112708766D01*
X217339674Y-112708130D01*
X217261367Y-112709540D01*
X217255855Y-112709599D01*
X217221934Y-112708480D01*
X217171617Y-112705447D01*
X217108519Y-112700832D01*
X217036261Y-112694968D01*
X216958459Y-112688187D01*
X216878732Y-112680819D01*
X216800698Y-112673198D01*
X216727976Y-112665656D01*
X216664182Y-112658524D01*
X216612936Y-112652135D01*
X216577855Y-112646820D01*
X216559550Y-112644386D01*
X216519272Y-112641372D01*
X216466778Y-112639097D01*
X216405763Y-112637559D01*
X216339922Y-112636755D01*
X216272951Y-112636682D01*
X216208544Y-112637338D01*
X216150397Y-112638720D01*
X216102205Y-112640826D01*
X216067663Y-112643652D01*
X216050466Y-112647197D01*
X216049675Y-112647582D01*
X216030249Y-112652496D01*
X215994976Y-112657946D01*
X215948607Y-112663295D01*
X215895895Y-112667905D01*
X215817265Y-112674147D01*
X215719060Y-112683564D01*
X215634993Y-112693952D01*
X215560982Y-112705837D01*
X215492946Y-112719743D01*
X215481015Y-112722435D01*
X215434534Y-112732582D01*
X215392923Y-112741196D01*
X215363999Y-112746645D01*
X215356762Y-112748020D01*
X215333786Y-112755272D01*
X215324525Y-112763262D01*
X215324072Y-112766075D01*
X215313247Y-112773312D01*
X215304791Y-112775189D01*
X215291932Y-112784720D01*
X215273732Y-112805249D01*
X215246982Y-112840008D01*
X215240904Y-112847851D01*
X215217123Y-112871009D01*
X215197830Y-112875426D01*
X215179793Y-112877903D01*
X215157022Y-112895572D01*
X215137069Y-112913240D01*
X215114495Y-112920249D01*
X215098103Y-112909982D01*
X215095219Y-112906659D01*
X215081781Y-112905286D01*
X215080116Y-112905868D01*
X215065244Y-112900574D01*
X215045187Y-112884405D01*
X215043097Y-112882386D01*
X215017444Y-112864760D01*
X214992930Y-112857522D01*
X214986343Y-112856230D01*
X214962573Y-112843082D01*
X214931635Y-112818832D01*
X214897767Y-112787306D01*
X214865206Y-112752333D01*
X214838190Y-112717741D01*
X214813519Y-112695575D01*
X214776471Y-112684703D01*
X214736469Y-112690563D01*
X214728397Y-112694165D01*
X214701358Y-112713160D01*
X214680347Y-112737127D01*
X214671893Y-112759133D01*
X214666670Y-112767993D01*
X214648209Y-112773326D01*
X214640320Y-112774073D01*
X214628105Y-112781542D01*
X214617700Y-112800704D01*
X214606104Y-112836028D01*
X214597958Y-112865559D01*
X214590380Y-112897735D01*
X214587310Y-112917593D01*
X214583691Y-112935900D01*
X214572800Y-112961987D01*
X214570905Y-112965381D01*
X214563467Y-112976153D01*
X214557521Y-112974860D01*
X214550670Y-112958769D01*
X214540520Y-112925145D01*
X214532767Y-112897066D01*
X214522840Y-112856761D01*
X214516611Y-112825943D01*
X214516435Y-112824853D01*
X214508169Y-112793266D01*
X214496632Y-112768338D01*
X214487571Y-112748343D01*
X214482420Y-112718338D01*
X214479145Y-112698444D01*
X214467756Y-112689101D01*
X214460288Y-112687301D01*
X214447034Y-112673312D01*
X214444472Y-112667617D01*
X214432549Y-112658444D01*
X214416569Y-112668978D01*
X214395892Y-112699546D01*
X214388272Y-112711876D01*
X214371420Y-112733185D01*
X214358735Y-112741652D01*
X214349508Y-112750148D01*
X214345578Y-112772691D01*
X214342635Y-112795924D01*
X214335051Y-112810154D01*
X214334279Y-112810841D01*
X214329336Y-112826322D01*
X214325847Y-112856287D01*
X214324525Y-112894986D01*
X214324179Y-112917119D01*
X214320657Y-112954925D01*
X214313507Y-112972025D01*
X214302940Y-112968405D01*
X214289168Y-112944046D01*
X214272402Y-112898934D01*
X214257314Y-112860074D01*
X214235031Y-112815738D01*
X214212587Y-112782149D01*
X214196233Y-112760780D01*
X214181183Y-112730099D01*
X214176899Y-112696000D01*
X214176840Y-112692049D01*
X214173496Y-112649954D01*
X214166695Y-112609193D01*
X214163300Y-112591611D01*
X214157817Y-112549443D01*
X214154802Y-112506561D01*
X214153121Y-112481202D01*
X214149082Y-112456535D01*
X214143954Y-112446996D01*
X214140918Y-112444176D01*
X214136031Y-112426158D01*
X214133367Y-112396996D01*
X214132972Y-112386110D01*
X214131734Y-112365959D01*
X214130146Y-112365535D01*
X214127782Y-112383838D01*
X214127675Y-112384818D01*
X214122154Y-112416546D01*
X214114499Y-112441733D01*
X214112289Y-112448414D01*
X214107004Y-112477856D01*
X214104708Y-112498750D01*
X214102083Y-112522633D01*
X214097764Y-112578686D01*
X214096214Y-112606901D01*
X214094288Y-112641955D01*
X214091895Y-112708382D01*
X214090823Y-112773908D01*
X214091313Y-112834474D01*
X214091664Y-112855941D01*
X214089835Y-112925038D01*
X214083092Y-112974949D01*
X214071523Y-113005225D01*
X214055219Y-113015417D01*
X214051414Y-113013601D01*
X214040593Y-112997677D01*
X214029956Y-112970680D01*
X214029602Y-112969527D01*
X214013521Y-112921544D01*
X213997975Y-112882628D01*
X213984624Y-112856529D01*
X213975131Y-112846996D01*
X213971236Y-112845229D01*
X213966630Y-112831207D01*
X213965136Y-112822695D01*
X213955009Y-112815594D01*
X213941401Y-112821608D01*
X213931574Y-112839101D01*
X213928329Y-112856065D01*
X213923348Y-112889577D01*
X213918547Y-112928575D01*
X213914061Y-112958484D01*
X213906898Y-112984621D01*
X213899231Y-112994364D01*
X213895995Y-112992175D01*
X213885410Y-112975528D01*
X213871559Y-112947146D01*
X213856757Y-112912592D01*
X213843317Y-112877428D01*
X213833556Y-112847214D01*
X213829788Y-112827514D01*
X213828629Y-112822012D01*
X213819230Y-112800782D01*
X213803472Y-112773312D01*
X213796328Y-112761193D01*
X213782606Y-112731912D01*
X213777157Y-112710363D01*
X213774383Y-112697884D01*
X213762683Y-112689101D01*
X213759623Y-112689714D01*
X213748575Y-112702585D01*
X213741237Y-112725569D01*
X213739547Y-112749912D01*
X213745446Y-112766864D01*
X213748572Y-112774764D01*
X213752458Y-112800732D01*
X213755118Y-112839346D01*
X213756104Y-112885613D01*
X213756103Y-112888786D01*
X213755769Y-112936279D01*
X213754389Y-112966369D01*
X213751334Y-112982513D01*
X213745975Y-112988168D01*
X213737683Y-112986792D01*
X213727682Y-112981764D01*
X213708023Y-112964902D01*
X213705039Y-112961158D01*
X213694415Y-112955845D01*
X213679828Y-112966881D01*
X213666569Y-112976804D01*
X213645344Y-112983838D01*
X213634151Y-112987767D01*
X213622312Y-113004891D01*
X213616542Y-113017132D01*
X213603122Y-113025943D01*
X213597862Y-113026842D01*
X213585052Y-113039098D01*
X213579570Y-113043623D01*
X213561297Y-113039806D01*
X213528519Y-113023870D01*
X213476371Y-112995488D01*
X213479884Y-113081768D01*
X213480284Y-113091808D01*
X213481810Y-113134579D01*
X213482805Y-113169993D01*
X213483069Y-113191211D01*
X213484913Y-113206221D01*
X213493107Y-113220780D01*
X213497223Y-113228099D01*
X213501723Y-113251851D01*
X213503472Y-113284932D01*
X213503625Y-113293162D01*
X213508932Y-113345701D01*
X213520638Y-113410075D01*
X213537136Y-113479988D01*
X213556817Y-113549146D01*
X213578072Y-113611255D01*
X213599296Y-113660020D01*
X213601601Y-113664800D01*
X213612090Y-113690082D01*
X213623650Y-113721563D01*
X213625019Y-113725584D01*
X213632553Y-113754551D01*
X213631436Y-113779209D01*
X213621374Y-113811171D01*
X213615514Y-113825833D01*
X213604122Y-113848565D01*
X213595939Y-113857522D01*
X213592456Y-113858899D01*
X213587683Y-113872186D01*
X213583572Y-113887645D01*
X213569153Y-113891089D01*
X213546566Y-113878792D01*
X213518122Y-113851441D01*
X213501091Y-113833287D01*
X213473129Y-113811498D01*
X213448136Y-113805959D01*
X213421751Y-113815022D01*
X213407665Y-113822404D01*
X213368298Y-113840696D01*
X213324013Y-113859115D01*
X213282718Y-113874464D01*
X213252320Y-113883545D01*
X213243042Y-113885746D01*
X213223470Y-113892410D01*
X213203912Y-113903381D01*
X213180696Y-113921355D01*
X213150149Y-113949029D01*
X213108599Y-113989101D01*
X213105358Y-113992265D01*
X213066402Y-114030029D01*
X213025905Y-114068893D01*
X212992137Y-114100918D01*
X212942701Y-114149776D01*
X212883574Y-114212556D01*
X212819996Y-114283838D01*
X212819923Y-114283922D01*
X212801091Y-114308051D01*
X212781525Y-114336465D01*
X212761537Y-114365429D01*
X212741108Y-114391659D01*
X212721920Y-114416682D01*
X212698600Y-114451712D01*
X212678102Y-114486461D01*
X212665509Y-114512785D01*
X212660498Y-114522684D01*
X212649613Y-114531207D01*
X212645346Y-114532979D01*
X212640314Y-114546996D01*
X212639362Y-114554231D01*
X212631799Y-114562785D01*
X212625208Y-114568997D01*
X212612509Y-114589949D01*
X212597589Y-114620573D01*
X212585178Y-114646585D01*
X212572111Y-114669574D01*
X212563999Y-114678468D01*
X212561738Y-114678983D01*
X212556104Y-114690083D01*
X212555271Y-114694010D01*
X212547354Y-114714438D01*
X212532860Y-114746461D01*
X212513999Y-114785094D01*
X212505922Y-114801399D01*
X212488509Y-114838832D01*
X212476420Y-114868157D01*
X212471893Y-114884112D01*
X212470751Y-114891121D01*
X212461367Y-114899628D01*
X212458452Y-114900067D01*
X212450841Y-114910828D01*
X212447807Y-114922621D01*
X212437945Y-114948692D01*
X212423616Y-114981881D01*
X212411133Y-115009426D01*
X212394582Y-115046222D01*
X212382541Y-115073312D01*
X212374351Y-115091761D01*
X212358564Y-115126857D01*
X212341344Y-115164765D01*
X212328992Y-115193465D01*
X212318166Y-115222692D01*
X212313999Y-115239878D01*
X212309400Y-115259438D01*
X212298274Y-115285266D01*
X212287560Y-115313551D01*
X212282485Y-115344364D01*
X212279883Y-115364222D01*
X212273089Y-115373312D01*
X212269982Y-115375467D01*
X212262762Y-115392322D01*
X212256691Y-115420435D01*
X212254311Y-115433891D01*
X212247140Y-115460357D01*
X212239706Y-115473688D01*
X212233892Y-115481621D01*
X212229788Y-115502528D01*
X212229515Y-115507671D01*
X212224476Y-115535314D01*
X212215087Y-115567697D01*
X212212370Y-115575707D01*
X212199413Y-115616809D01*
X212187745Y-115657522D01*
X212184085Y-115670687D01*
X212174384Y-115701569D01*
X212166481Y-115721765D01*
X212163846Y-115728239D01*
X212156755Y-115754384D01*
X212150523Y-115787554D01*
X212147674Y-115803248D01*
X212140743Y-115827084D01*
X212133856Y-115836470D01*
X212128939Y-115839263D01*
X212124577Y-115854891D01*
X212123649Y-115863949D01*
X212116278Y-115895348D01*
X212102304Y-115941609D01*
X212082625Y-115999628D01*
X212078260Y-116012491D01*
X212068399Y-116042740D01*
X212057011Y-116078575D01*
X212046410Y-116111149D01*
X212027890Y-116161311D01*
X212005727Y-116212050D01*
X211976285Y-116272078D01*
X211959407Y-116307555D01*
X211931669Y-116377147D01*
X211909598Y-116447592D01*
X211894398Y-116514114D01*
X211887275Y-116571937D01*
X211889435Y-116616282D01*
X211890635Y-116640939D01*
X211884597Y-116660163D01*
X211882680Y-116663414D01*
X211877761Y-116685981D01*
X211875614Y-116720722D01*
X211876028Y-116761007D01*
X211878794Y-116800204D01*
X211883704Y-116831682D01*
X211890549Y-116848809D01*
X211897836Y-116860116D01*
X211903472Y-116884654D01*
X211904660Y-116897053D01*
X211911928Y-116910154D01*
X211913926Y-116913756D01*
X211935824Y-116927482D01*
X211974415Y-116941485D01*
X212004891Y-116949303D01*
X212029680Y-116948682D01*
X212058625Y-116938524D01*
X212063312Y-116936571D01*
X212110248Y-116922836D01*
X212156570Y-116918191D01*
X212196191Y-116922710D01*
X212223021Y-116936470D01*
X212233875Y-116945558D01*
X212248431Y-116952259D01*
X212250800Y-116953029D01*
X212263111Y-116965733D01*
X212277893Y-116989101D01*
X212282145Y-116996675D01*
X212296199Y-117017558D01*
X212305866Y-117025943D01*
X212309395Y-117027441D01*
X212313999Y-117040969D01*
X212314000Y-117041103D01*
X212321806Y-117057765D01*
X212340314Y-117076694D01*
X212357960Y-117096718D01*
X212366630Y-117123216D01*
X212368276Y-117135798D01*
X212380737Y-117163286D01*
X212399206Y-117183838D01*
X212400550Y-117185333D01*
X212421839Y-117194364D01*
X212432173Y-117196741D01*
X212437739Y-117200740D01*
X212450841Y-117210154D01*
X212458460Y-117218029D01*
X212478650Y-117224982D01*
X212502643Y-117212332D01*
X212513457Y-117205178D01*
X212539007Y-117193003D01*
X212567760Y-117182568D01*
X212592354Y-117176399D01*
X212605432Y-117177026D01*
X212605959Y-117178107D01*
X212600234Y-117190035D01*
X212583591Y-117208146D01*
X212570633Y-117222985D01*
X212566915Y-117232392D01*
X212556210Y-117259481D01*
X212560121Y-117297500D01*
X212582420Y-117331207D01*
X212600588Y-117355470D01*
X212608735Y-117383661D01*
X212609689Y-117389836D01*
X212612064Y-117405204D01*
X212624190Y-117431826D01*
X212633352Y-117448422D01*
X212639980Y-117475943D01*
X212642122Y-117490686D01*
X212649151Y-117499628D01*
X212658698Y-117507215D01*
X212670466Y-117527014D01*
X212675204Y-117536602D01*
X212685570Y-117547380D01*
X212698178Y-117541759D01*
X212701623Y-117538780D01*
X212707876Y-117527366D01*
X212697446Y-117513150D01*
X212685563Y-117493976D01*
X212692041Y-117478378D01*
X212717442Y-117469981D01*
X212731114Y-117468997D01*
X212741039Y-117473337D01*
X212744915Y-117488653D01*
X212745578Y-117519981D01*
X212746636Y-117548418D01*
X212751495Y-117567742D01*
X212761367Y-117573312D01*
X212764966Y-117573285D01*
X212774892Y-117571029D01*
X212775235Y-117560940D01*
X212766891Y-117537155D01*
X212761939Y-117518527D01*
X212766891Y-117510154D01*
X212771780Y-117512142D01*
X212777157Y-117526514D01*
X212778119Y-117531549D01*
X212789198Y-117552199D01*
X212808687Y-117576514D01*
X212818530Y-117587479D01*
X212836566Y-117613358D01*
X212837750Y-117628681D01*
X212821898Y-117632668D01*
X212809773Y-117635796D01*
X212800114Y-117654891D01*
X212799922Y-117669933D01*
X212805372Y-117679380D01*
X212836467Y-117685144D01*
X212864688Y-117701297D01*
X212872489Y-117708520D01*
X212894941Y-117727928D01*
X212922643Y-117750876D01*
X212939371Y-117765594D01*
X212956345Y-117784470D01*
X212960550Y-117795687D01*
X212960001Y-117801543D01*
X212971372Y-117811411D01*
X212973630Y-117812545D01*
X212990046Y-117826885D01*
X213012537Y-117852003D01*
X213037045Y-117882635D01*
X213059513Y-117913522D01*
X213075884Y-117939400D01*
X213082100Y-117955008D01*
X213079541Y-117959093D01*
X213071050Y-117949628D01*
X213061957Y-117939518D01*
X213040918Y-117931207D01*
X213029799Y-117928694D01*
X213015038Y-117914329D01*
X213014231Y-117912443D01*
X213007213Y-117905056D01*
X212992373Y-117901640D01*
X212965355Y-117901756D01*
X212921806Y-117904969D01*
X212883545Y-117908837D01*
X212845624Y-117915414D01*
X212822823Y-117924836D01*
X212811681Y-117938753D01*
X212808735Y-117958811D01*
X212811820Y-117974945D01*
X212821893Y-117984173D01*
X212825555Y-117988390D01*
X212814618Y-117999962D01*
X212803510Y-118008694D01*
X212801339Y-118014498D01*
X212817589Y-118015417D01*
X212833148Y-118011595D01*
X212850513Y-117991733D01*
X212860033Y-117968049D01*
X212860700Y-117991112D01*
X212863134Y-118005980D01*
X212871893Y-118020680D01*
X212872607Y-118021150D01*
X212881459Y-118037243D01*
X212880139Y-118057870D01*
X212869262Y-118071234D01*
X212864526Y-118075064D01*
X212870947Y-118081770D01*
X212888601Y-118087947D01*
X212911657Y-118091781D01*
X212934286Y-118091459D01*
X212956591Y-118082620D01*
X212978378Y-118061703D01*
X212988740Y-118046266D01*
X212998925Y-118042826D01*
X213014470Y-118054767D01*
X213032848Y-118065879D01*
X213057831Y-118070106D01*
X213074428Y-118071722D01*
X213087740Y-118089281D01*
X213088719Y-118094364D01*
X213089939Y-118100696D01*
X213088124Y-118116226D01*
X213082075Y-118122211D01*
X213074890Y-118112942D01*
X213073340Y-118109621D01*
X213063399Y-118105763D01*
X213052231Y-118110154D01*
X213042121Y-118114129D01*
X213019052Y-118122616D01*
X213000841Y-118123622D01*
X212991786Y-118126284D01*
X212988590Y-118141733D01*
X212987683Y-118146119D01*
X212985198Y-118162785D01*
X212984975Y-118164277D01*
X212977157Y-118173312D01*
X212972314Y-118175093D01*
X212966630Y-118189101D01*
X212970456Y-118197615D01*
X212987580Y-118203768D01*
X213021893Y-118206324D01*
X213043483Y-118207425D01*
X213056931Y-118209722D01*
X213052254Y-118212479D01*
X213035602Y-118219827D01*
X213022079Y-118237361D01*
X213015324Y-118249043D01*
X212994350Y-118257857D01*
X212976330Y-118261426D01*
X212950841Y-118274418D01*
X212946381Y-118277979D01*
X212940976Y-118284604D01*
X212947293Y-118287649D01*
X212968417Y-118287710D01*
X213007434Y-118285385D01*
X213011764Y-118285076D01*
X213050611Y-118280825D01*
X213080896Y-118275021D01*
X213096381Y-118268824D01*
X213104187Y-118264749D01*
X213129357Y-118259554D01*
X213162851Y-118257522D01*
X213183819Y-118256763D01*
X213211120Y-118252936D01*
X213224543Y-118246968D01*
X213232205Y-118242285D01*
X213253864Y-118248614D01*
X213280256Y-118259534D01*
X213312180Y-118268826D01*
X213335499Y-118272904D01*
X213344269Y-118268820D01*
X213343320Y-118253929D01*
X213342979Y-118252086D01*
X213342986Y-118238405D01*
X213353301Y-118233592D01*
X213379168Y-118234857D01*
X213386098Y-118235648D01*
X213411844Y-118241104D01*
X213425212Y-118248108D01*
X213433975Y-118253894D01*
X213455436Y-118257522D01*
X213473775Y-118260624D01*
X213492446Y-118272011D01*
X213500095Y-118286949D01*
X213492269Y-118300269D01*
X213490017Y-118301742D01*
X213485344Y-118308172D01*
X213499988Y-118309993D01*
X213505304Y-118310391D01*
X213523289Y-118315417D01*
X213530138Y-118317331D01*
X213557080Y-118329905D01*
X213578711Y-118344197D01*
X213587616Y-118356288D01*
X213593192Y-118367282D01*
X213609246Y-118384281D01*
X213630809Y-118402982D01*
X213608328Y-118418728D01*
X213584478Y-118428755D01*
X213553038Y-118425064D01*
X213548375Y-118423992D01*
X213520736Y-118420529D01*
X213478366Y-118417503D01*
X213426135Y-118415207D01*
X213368915Y-118413937D01*
X213217601Y-118412220D01*
X213185071Y-118444750D01*
X213152541Y-118477280D01*
X213180638Y-118484332D01*
X213182135Y-118484723D01*
X213203850Y-118496834D01*
X213206893Y-118513448D01*
X213190314Y-118530075D01*
X213181188Y-118535807D01*
X213178743Y-118543924D01*
X213192946Y-118556580D01*
X213216248Y-118569514D01*
X213240117Y-118571159D01*
X213254647Y-118557522D01*
X213256979Y-118538827D01*
X213251123Y-118518951D01*
X213239188Y-118510154D01*
X213236420Y-118510022D01*
X213229949Y-118503935D01*
X213240464Y-118490173D01*
X213266613Y-118470680D01*
X213281550Y-118461494D01*
X213311024Y-118449121D01*
X213334222Y-118451687D01*
X213357143Y-118469088D01*
X213372011Y-118481160D01*
X213392854Y-118486928D01*
X213424749Y-118484355D01*
X213450369Y-118481619D01*
X213469609Y-118484532D01*
X213480483Y-118495792D01*
X213496516Y-118509064D01*
X213522625Y-118516265D01*
X213549250Y-118519943D01*
X213571026Y-118530677D01*
X213573003Y-118547900D01*
X213572015Y-118553803D01*
X213581708Y-118568830D01*
X213606094Y-118579671D01*
X213640500Y-118583838D01*
X213663794Y-118587008D01*
X213669295Y-118596996D01*
X213662681Y-118607298D01*
X213640530Y-118626841D01*
X213610403Y-118646401D01*
X213579517Y-118661509D01*
X213555090Y-118667699D01*
X213528310Y-118671821D01*
X213497195Y-118682527D01*
X213466483Y-118696572D01*
X213432420Y-118711413D01*
X213428236Y-118713234D01*
X213406900Y-118724832D01*
X213398209Y-118733776D01*
X213396162Y-118737596D01*
X213381648Y-118741733D01*
X213368731Y-118747294D01*
X213369208Y-118760735D01*
X213381059Y-118776393D01*
X213401842Y-118788600D01*
X213416855Y-118792625D01*
X213440481Y-118790900D01*
X213470161Y-118776956D01*
X213477356Y-118773112D01*
X213492671Y-118766922D01*
X213650841Y-118766922D01*
X213650843Y-118767071D01*
X213659364Y-118774974D01*
X213675927Y-118777570D01*
X213687967Y-118772852D01*
X213687191Y-118766672D01*
X213672515Y-118762785D01*
X213659723Y-118763588D01*
X213650841Y-118766922D01*
X213492671Y-118766922D01*
X213516221Y-118757404D01*
X213556104Y-118747102D01*
X213568924Y-118744694D01*
X213598894Y-118736624D01*
X213617364Y-118728119D01*
X213630411Y-118722762D01*
X213659566Y-118717057D01*
X213696311Y-118713551D01*
X213726861Y-118711957D01*
X213756418Y-118710350D01*
X213771893Y-118709422D01*
X213783125Y-118710431D01*
X213806104Y-118715882D01*
X213806526Y-118716011D01*
X213824703Y-118717798D01*
X213829788Y-118706118D01*
X213831090Y-118699478D01*
X213843302Y-118691407D01*
X213871893Y-118689101D01*
X213892452Y-118689933D01*
X213909449Y-118695369D01*
X213913999Y-118707814D01*
X213919202Y-118724439D01*
X213935512Y-118744948D01*
X213939300Y-118748384D01*
X213948584Y-118763153D01*
X213944796Y-118772852D01*
X213942944Y-118777595D01*
X213920646Y-118793871D01*
X213879952Y-118814144D01*
X213863225Y-118822412D01*
X213838372Y-118837655D01*
X213826257Y-118849467D01*
X213820238Y-118856664D01*
X213810059Y-118847219D01*
X213807221Y-118844192D01*
X213785863Y-118834391D01*
X213754188Y-118829378D01*
X213742551Y-118828427D01*
X213717248Y-118823298D01*
X213705420Y-118815997D01*
X213701231Y-118810499D01*
X213683866Y-118804891D01*
X213669663Y-118800464D01*
X213651129Y-118784238D01*
X213636819Y-118770769D01*
X213622626Y-118774887D01*
X213607677Y-118780583D01*
X213582556Y-118779550D01*
X213564721Y-118777553D01*
X213556104Y-118785109D01*
X213554741Y-118793189D01*
X213537657Y-118810752D01*
X213501809Y-118821685D01*
X213448209Y-118825609D01*
X213447465Y-118825613D01*
X213412019Y-118827136D01*
X213386776Y-118830722D01*
X213377157Y-118835609D01*
X213378537Y-118847725D01*
X213388802Y-118869456D01*
X213404599Y-118878575D01*
X213410820Y-118879575D01*
X213419262Y-118889101D01*
X213425795Y-118896024D01*
X213445578Y-118899628D01*
X213462743Y-118902718D01*
X213471893Y-118915417D01*
X213473727Y-118922781D01*
X213487683Y-118931207D01*
X213494946Y-118930019D01*
X213503472Y-118920680D01*
X213503475Y-118920549D01*
X213512879Y-118913203D01*
X213535051Y-118910154D01*
X213535423Y-118910154D01*
X213557476Y-118912784D01*
X213566630Y-118918991D01*
X213573513Y-118928089D01*
X213592739Y-118939723D01*
X213609564Y-118951394D01*
X213615516Y-118965097D01*
X213614487Y-118970369D01*
X213616601Y-118970680D01*
X213627229Y-118963099D01*
X213642975Y-118965708D01*
X213650841Y-118978575D01*
X213647873Y-118987082D01*
X213632130Y-118994364D01*
X213624048Y-118995131D01*
X213597383Y-119006143D01*
X213575627Y-119025373D01*
X213566630Y-119046563D01*
X213566705Y-119047815D01*
X213576441Y-119062897D01*
X213596599Y-119076404D01*
X213618673Y-119083968D01*
X213634156Y-119081224D01*
X213634563Y-119080888D01*
X213638639Y-119087004D01*
X213640314Y-119107539D01*
X213640463Y-119111527D01*
X213641296Y-119133815D01*
X213643852Y-119154030D01*
X213644997Y-119159717D01*
X213642975Y-119160154D01*
X213634386Y-119155153D01*
X213613121Y-119152259D01*
X213598561Y-119153930D01*
X213589696Y-119164139D01*
X213587683Y-119189101D01*
X213588917Y-119210804D01*
X213596202Y-119223191D01*
X213613999Y-119225943D01*
X213618091Y-119226000D01*
X213632827Y-119229458D01*
X213639590Y-119242430D01*
X213641984Y-119270680D01*
X213642336Y-119284952D01*
X213642249Y-119327870D01*
X213640957Y-119370680D01*
X213640698Y-119376373D01*
X213640793Y-119406976D01*
X213645194Y-119421968D01*
X213655077Y-119425943D01*
X213666154Y-119430772D01*
X213671893Y-119452259D01*
X213674984Y-119469424D01*
X213687683Y-119478575D01*
X213695046Y-119480409D01*
X213703472Y-119494364D01*
X213704660Y-119501628D01*
X213713999Y-119510154D01*
X213716358Y-119509080D01*
X213722190Y-119494415D01*
X213724525Y-119468049D01*
X213725439Y-119450388D01*
X213730953Y-119430157D01*
X213739719Y-119426878D01*
X213749715Y-119442594D01*
X213751970Y-119451454D01*
X213755575Y-119478998D01*
X213757681Y-119513646D01*
X213758813Y-119534705D01*
X213761034Y-119546285D01*
X213763643Y-119539101D01*
X213770425Y-119517456D01*
X213782076Y-119509266D01*
X213794616Y-119516613D01*
X213804638Y-119537245D01*
X213808735Y-119568910D01*
X213811797Y-119585262D01*
X213824525Y-119594364D01*
X213831789Y-119595552D01*
X213840314Y-119604891D01*
X213844262Y-119611009D01*
X213861367Y-119615417D01*
X213870871Y-119616621D01*
X213880065Y-119626867D01*
X213882420Y-119652259D01*
X213883654Y-119673962D01*
X213890939Y-119686349D01*
X213908735Y-119689101D01*
X213925901Y-119692192D01*
X213935051Y-119704891D01*
X213936885Y-119712254D01*
X213950841Y-119720680D01*
X213958104Y-119719493D01*
X213966630Y-119710154D01*
X213967087Y-119707195D01*
X213977908Y-119699628D01*
X213995195Y-119706552D01*
X214012103Y-119726651D01*
X214019262Y-119751507D01*
X214019666Y-119757885D01*
X214027846Y-119770100D01*
X214050841Y-119773312D01*
X214073005Y-119776566D01*
X214082420Y-119789101D01*
X214083655Y-119796371D01*
X214093344Y-119804891D01*
X214100043Y-119796838D01*
X214101239Y-119775943D01*
X214100870Y-119759166D01*
X214109050Y-119748142D01*
X214132420Y-119743697D01*
X214140038Y-119743114D01*
X214160678Y-119745503D01*
X214166630Y-119756855D01*
X214162961Y-119766433D01*
X214145578Y-119773312D01*
X214132865Y-119776237D01*
X214125356Y-119791733D01*
X214126862Y-119800688D01*
X214131496Y-119796996D01*
X214132145Y-119795585D01*
X214144380Y-119785637D01*
X214159337Y-119784971D01*
X214166630Y-119794364D01*
X214166633Y-119794495D01*
X214176037Y-119801842D01*
X214198209Y-119804891D01*
X214198602Y-119804890D01*
X214220641Y-119801755D01*
X214229788Y-119794364D01*
X214231570Y-119789522D01*
X214245578Y-119783838D01*
X214252841Y-119785026D01*
X214261367Y-119794364D01*
X214263148Y-119799207D01*
X214277157Y-119804891D01*
X214284520Y-119803057D01*
X214292946Y-119789101D01*
X214294134Y-119781838D01*
X214303472Y-119773312D01*
X214308315Y-119775093D01*
X214313999Y-119789101D01*
X214312811Y-119796365D01*
X214303472Y-119804891D01*
X214298630Y-119806672D01*
X214292946Y-119820680D01*
X214298097Y-119830979D01*
X214319262Y-119836470D01*
X214336427Y-119833379D01*
X214345578Y-119820680D01*
X214344390Y-119813417D01*
X214335051Y-119804891D01*
X214330209Y-119803109D01*
X214324525Y-119789101D01*
X214325713Y-119781838D01*
X214335051Y-119773312D01*
X214339894Y-119775093D01*
X214345578Y-119789101D01*
X214346342Y-119793641D01*
X214358406Y-119802283D01*
X214387683Y-119804891D01*
X214399788Y-119805177D01*
X214422835Y-119809701D01*
X214429788Y-119820680D01*
X214436133Y-119831683D01*
X214460746Y-119836470D01*
X214483979Y-119839412D01*
X214498209Y-119846996D01*
X214505188Y-119852762D01*
X214525477Y-119857522D01*
X214538019Y-119860303D01*
X214552598Y-119874095D01*
X214562204Y-119884719D01*
X214585197Y-119884082D01*
X214608843Y-119880989D01*
X214639292Y-119883954D01*
X214662598Y-119893256D01*
X214671893Y-119907072D01*
X214674118Y-119915423D01*
X214686429Y-119919471D01*
X214713999Y-119916638D01*
X214720915Y-119915637D01*
X214746675Y-119914823D01*
X214756104Y-119920556D01*
X214762512Y-119927530D01*
X214782177Y-119931207D01*
X214802022Y-119936115D01*
X214826230Y-119958647D01*
X214837936Y-119973659D01*
X214855309Y-119982100D01*
X214883434Y-119980826D01*
X214904945Y-119978948D01*
X214920943Y-119982959D01*
X214928160Y-119996600D01*
X214934227Y-120008267D01*
X214947514Y-120013022D01*
X214949025Y-120012468D01*
X214962494Y-119999109D01*
X214962522Y-119981718D01*
X214948810Y-119970157D01*
X214945347Y-119968212D01*
X214954945Y-119965557D01*
X214979788Y-119964007D01*
X214996312Y-119963009D01*
X215020342Y-119958629D01*
X215029788Y-119952259D01*
X215036322Y-119945336D01*
X215056104Y-119941733D01*
X215073406Y-119944099D01*
X215082420Y-119951271D01*
X215086014Y-119955222D01*
X215105076Y-119962216D01*
X215135051Y-119968049D01*
X215152704Y-119971029D01*
X215179861Y-119980666D01*
X215187102Y-119994524D01*
X215175051Y-120013312D01*
X215171928Y-120016761D01*
X215171939Y-120023996D01*
X215190244Y-120025943D01*
X215210424Y-120030196D01*
X215232806Y-120046985D01*
X215244590Y-120058168D01*
X215270352Y-120068217D01*
X215312351Y-120074800D01*
X215342197Y-120078768D01*
X215369574Y-120085816D01*
X215377028Y-120094057D01*
X215363999Y-120103182D01*
X215357328Y-120106674D01*
X215363247Y-120109323D01*
X215372396Y-120107373D01*
X215390487Y-120095320D01*
X215400390Y-120088344D01*
X215419908Y-120089501D01*
X215428105Y-120092682D01*
X215442668Y-120085914D01*
X215449897Y-120079112D01*
X215459956Y-120087440D01*
X215469568Y-120095554D01*
X215488904Y-120091097D01*
X215495666Y-120087908D01*
X215522910Y-120077444D01*
X215556104Y-120066715D01*
X215598803Y-120047103D01*
X215646947Y-120007794D01*
X215667259Y-119988430D01*
X215691091Y-119969933D01*
X215706852Y-119962785D01*
X215714650Y-119961730D01*
X215729798Y-119952244D01*
X215733516Y-119948973D01*
X215748177Y-119951203D01*
X215765905Y-119964189D01*
X215780897Y-119982888D01*
X215787352Y-120002259D01*
X215789865Y-120017012D01*
X215798209Y-120025943D01*
X215798703Y-120026017D01*
X215803894Y-120037385D01*
X215807429Y-120065111D01*
X215808735Y-120104891D01*
X215808693Y-120112280D01*
X215808118Y-120125539D01*
X215807118Y-120148606D01*
X215803723Y-120174173D01*
X215799134Y-120183838D01*
X215796760Y-120184947D01*
X215789452Y-120198750D01*
X215788983Y-120199635D01*
X215782420Y-120225943D01*
X215780547Y-120235533D01*
X215773274Y-120258757D01*
X215765705Y-120268049D01*
X215762787Y-120268608D01*
X215756104Y-120279813D01*
X215754765Y-120284025D01*
X215742736Y-120301336D01*
X215722555Y-120324482D01*
X215699557Y-120347902D01*
X215679075Y-120366032D01*
X215666444Y-120373312D01*
X215666052Y-120373339D01*
X215653536Y-120381070D01*
X215635270Y-120398397D01*
X215612797Y-120417796D01*
X215589326Y-120430685D01*
X215575365Y-120437207D01*
X215566630Y-120447705D01*
X215564854Y-120452215D01*
X215550841Y-120457522D01*
X215543601Y-120458512D01*
X215535051Y-120466355D01*
X215533408Y-120469585D01*
X215518487Y-120481309D01*
X215493067Y-120495302D01*
X215481375Y-120501182D01*
X215459639Y-120514085D01*
X215450962Y-120522475D01*
X215450954Y-120522603D01*
X215441447Y-120529573D01*
X215419383Y-120536443D01*
X215395632Y-120544075D01*
X215381919Y-120553069D01*
X215372811Y-120559095D01*
X215351097Y-120562785D01*
X215334721Y-120565075D01*
X215322771Y-120573032D01*
X215322193Y-120573764D01*
X215307632Y-120578120D01*
X215276789Y-120582557D01*
X215233705Y-120586595D01*
X215182420Y-120589753D01*
X215125324Y-120593338D01*
X215068857Y-120598468D01*
X215020425Y-120604414D01*
X214986534Y-120610487D01*
X214961372Y-120615594D01*
X214926952Y-120619563D01*
X214903707Y-120618528D01*
X214896618Y-120617612D01*
X214868694Y-120618382D01*
X214829043Y-120622573D01*
X214783803Y-120629617D01*
X214768307Y-120632405D01*
X214717436Y-120641536D01*
X214670165Y-120649993D01*
X214635051Y-120656242D01*
X214605229Y-120661043D01*
X214564995Y-120665681D01*
X214536036Y-120666665D01*
X214521497Y-120663957D01*
X214524525Y-120657522D01*
X214528900Y-120655353D01*
X214553323Y-120649560D01*
X214585194Y-120647157D01*
X214594691Y-120646915D01*
X214626508Y-120643361D01*
X214648352Y-120636955D01*
X214650089Y-120636125D01*
X214671714Y-120630376D01*
X214706645Y-120624719D01*
X214748209Y-120620268D01*
X214757924Y-120619408D01*
X214794481Y-120614787D01*
X214820120Y-120609313D01*
X214829788Y-120603993D01*
X214838814Y-120597210D01*
X214860700Y-120594364D01*
X214875363Y-120593376D01*
X214908338Y-120588050D01*
X214956175Y-120577764D01*
X215020633Y-120562130D01*
X215103472Y-120540760D01*
X215117370Y-120536836D01*
X215145203Y-120527219D01*
X215160841Y-120519226D01*
X215171623Y-120513812D01*
X215195051Y-120510154D01*
X215210321Y-120507826D01*
X215219262Y-120499828D01*
X215225863Y-120491350D01*
X215245578Y-120482897D01*
X215262972Y-120476174D01*
X215271893Y-120466907D01*
X215273666Y-120462600D01*
X215287683Y-120457522D01*
X215294936Y-120456418D01*
X215303472Y-120447705D01*
X215306332Y-120441551D01*
X215321893Y-120431979D01*
X215324526Y-120430996D01*
X215346103Y-120418564D01*
X215371151Y-120399475D01*
X215382579Y-120388958D01*
X215393909Y-120372665D01*
X215389838Y-120360731D01*
X215389816Y-120360709D01*
X215377331Y-120356072D01*
X215355497Y-120361099D01*
X215320191Y-120376736D01*
X215293752Y-120388400D01*
X215258691Y-120400392D01*
X215233082Y-120405142D01*
X215228658Y-120405278D01*
X215196512Y-120409072D01*
X215161367Y-120416372D01*
X215133756Y-120421795D01*
X215082466Y-120428250D01*
X215015257Y-120434184D01*
X214934983Y-120439439D01*
X214844498Y-120443859D01*
X214746656Y-120447286D01*
X214644310Y-120449564D01*
X214540314Y-120450535D01*
X214466535Y-120450219D01*
X214383502Y-120448942D01*
X214296576Y-120446833D01*
X214208874Y-120444028D01*
X214123515Y-120440663D01*
X214043617Y-120436873D01*
X213972298Y-120432793D01*
X213912676Y-120428558D01*
X213867869Y-120424304D01*
X213840995Y-120420167D01*
X213832498Y-120418494D01*
X213802833Y-120414041D01*
X213761495Y-120408801D01*
X213714679Y-120403588D01*
X213710355Y-120403138D01*
X213622080Y-120393681D01*
X213548789Y-120385126D01*
X213484738Y-120376722D01*
X213424179Y-120367716D01*
X213361367Y-120357358D01*
X213341004Y-120353894D01*
X213282355Y-120344135D01*
X213224398Y-120334749D01*
X213177157Y-120327368D01*
X213171091Y-120326434D01*
X213132392Y-120319704D01*
X213102450Y-120313231D01*
X213087317Y-120308301D01*
X213075014Y-120304218D01*
X213046961Y-120298739D01*
X213010766Y-120293757D01*
X212979524Y-120289237D01*
X212952139Y-120283063D01*
X212939458Y-120277189D01*
X212929639Y-120271319D01*
X212907461Y-120268049D01*
X212898139Y-120267460D01*
X212866986Y-120262209D01*
X212831766Y-120253286D01*
X212822123Y-120250401D01*
X212783928Y-120238982D01*
X212736428Y-120224787D01*
X212687683Y-120210223D01*
X212667440Y-120204106D01*
X212649438Y-120198478D01*
X215452495Y-120198478D01*
X215455007Y-120212566D01*
X215458601Y-120212403D01*
X215460536Y-120198750D01*
X215458850Y-120188404D01*
X215454176Y-120192391D01*
X215452495Y-120198478D01*
X212649438Y-120198478D01*
X212623979Y-120190519D01*
X212588304Y-120178770D01*
X212566630Y-120170878D01*
X212545008Y-120161771D01*
X212508928Y-120146277D01*
X215463479Y-120146277D01*
X215465669Y-120160070D01*
X215467873Y-120161520D01*
X215471893Y-120154723D01*
X215475913Y-120146666D01*
X215492946Y-120136470D01*
X215494017Y-120136120D01*
X215511247Y-120125539D01*
X215511178Y-120114961D01*
X215493655Y-120110154D01*
X215480322Y-120114301D01*
X215466378Y-120132000D01*
X215463479Y-120146277D01*
X212508928Y-120146277D01*
X212506802Y-120145364D01*
X212471901Y-120129725D01*
X212432906Y-120111501D01*
X212382420Y-120087335D01*
X212355634Y-120074327D01*
X212319440Y-120056332D01*
X212293589Y-120042942D01*
X212282420Y-120036369D01*
X212279384Y-120034110D01*
X212261699Y-120023881D01*
X212235051Y-120010053D01*
X212223399Y-120004134D01*
X212199591Y-119991151D01*
X212187683Y-119983282D01*
X212184239Y-119980454D01*
X212166533Y-119968680D01*
X212140314Y-119952739D01*
X212130399Y-119946823D01*
X212095065Y-119924776D01*
X212054377Y-119898344D01*
X212012180Y-119870153D01*
X211972320Y-119842827D01*
X211938644Y-119818991D01*
X211914998Y-119801270D01*
X211905227Y-119792289D01*
X211904442Y-119790795D01*
X211891284Y-119783838D01*
X211890251Y-119783605D01*
X211876154Y-119775708D01*
X211850740Y-119758987D01*
X211818582Y-119736708D01*
X211784254Y-119712135D01*
X211752332Y-119688533D01*
X211727389Y-119669167D01*
X211713999Y-119657301D01*
X211711249Y-119654982D01*
X211694154Y-119642889D01*
X211665550Y-119623727D01*
X211629788Y-119600436D01*
X211616519Y-119591893D01*
X211578046Y-119567070D01*
X211545400Y-119545929D01*
X211524525Y-119532317D01*
X211518790Y-119528666D01*
X211489163Y-119511514D01*
X211456104Y-119494151D01*
X211444449Y-119488282D01*
X211420642Y-119475556D01*
X211408735Y-119468049D01*
X211407271Y-119466879D01*
X211391671Y-119457933D01*
X211366630Y-119445556D01*
X211332755Y-119429804D01*
X211284609Y-119407673D01*
X211240068Y-119387462D01*
X211204287Y-119371505D01*
X211182420Y-119362136D01*
X211178683Y-119360633D01*
X211133532Y-119342191D01*
X211084213Y-119321674D01*
X211042589Y-119304013D01*
X211039553Y-119302726D01*
X211012606Y-119293062D01*
X210993792Y-119289101D01*
X210993775Y-119289101D01*
X210974868Y-119284476D01*
X210949412Y-119273377D01*
X210923164Y-119262342D01*
X210901462Y-119257587D01*
X210892198Y-119256279D01*
X210877157Y-119246996D01*
X210870579Y-119241385D01*
X210850577Y-119236470D01*
X210846395Y-119236197D01*
X210821079Y-119230332D01*
X210790672Y-119219221D01*
X210784035Y-119216362D01*
X210753125Y-119203354D01*
X210729788Y-119193979D01*
X210726664Y-119192772D01*
X210700970Y-119182266D01*
X210670303Y-119169122D01*
X210663816Y-119166375D01*
X210635234Y-119156324D01*
X210615039Y-119152259D01*
X210606833Y-119151210D01*
X210598209Y-119144050D01*
X210593975Y-119139190D01*
X210574867Y-119128181D01*
X210545578Y-119115417D01*
X210524952Y-119106753D01*
X210501909Y-119094830D01*
X210492946Y-119086784D01*
X210492393Y-119084304D01*
X210481165Y-119078575D01*
X210472230Y-119075983D01*
X210448149Y-119064203D01*
X210415965Y-119045878D01*
X210381134Y-119024301D01*
X210349112Y-119002764D01*
X210325357Y-118984560D01*
X210325157Y-118984386D01*
X210304421Y-118969124D01*
X210289661Y-118962785D01*
X210278927Y-118956967D01*
X210258789Y-118939112D01*
X210234829Y-118914324D01*
X210211814Y-118887841D01*
X210194510Y-118864899D01*
X210187683Y-118850734D01*
X210187320Y-118846831D01*
X210179788Y-118834715D01*
X210176788Y-118832958D01*
X210162148Y-118813895D01*
X210149293Y-118782920D01*
X210140789Y-118747578D01*
X210139203Y-118715417D01*
X210139858Y-118706472D01*
X210140215Y-118676176D01*
X210138753Y-118643123D01*
X210135971Y-118613264D01*
X210132367Y-118592552D01*
X210128441Y-118586939D01*
X210128311Y-118587142D01*
X210126349Y-118600053D01*
X210123795Y-118629501D01*
X210120965Y-118671342D01*
X210118177Y-118721435D01*
X210118012Y-118724644D01*
X210114620Y-118775222D01*
X210110334Y-118818061D01*
X210105684Y-118848727D01*
X210101205Y-118862785D01*
X210099887Y-118863159D01*
X210096921Y-118851764D01*
X210095592Y-118824091D01*
X210095764Y-118783698D01*
X210097302Y-118734140D01*
X210100070Y-118678977D01*
X210103934Y-118621764D01*
X210108758Y-118566058D01*
X210114407Y-118515417D01*
X210114489Y-118514777D01*
X210120662Y-118463849D01*
X210126495Y-118411172D01*
X210130738Y-118368049D01*
X210134141Y-118340727D01*
X210142283Y-118300506D01*
X210151999Y-118270564D01*
X210153850Y-118266354D01*
X210161664Y-118241642D01*
X210161581Y-118226290D01*
X210160694Y-118223615D01*
X210162699Y-118204653D01*
X210171559Y-118177753D01*
X210173451Y-118173032D01*
X210183561Y-118139784D01*
X210184438Y-118133768D01*
X210389068Y-118133768D01*
X210393353Y-118157668D01*
X210409036Y-118189101D01*
X210409655Y-118190093D01*
X210428412Y-118222925D01*
X210445895Y-118257522D01*
X210446150Y-118258074D01*
X210474011Y-118317262D01*
X210494543Y-118358458D01*
X210508500Y-118383096D01*
X210516630Y-118392610D01*
X210519809Y-118395292D01*
X210524525Y-118411031D01*
X210525567Y-118417482D01*
X210535051Y-118425943D01*
X210538974Y-118426904D01*
X210545578Y-118439209D01*
X210545783Y-118441087D01*
X210554439Y-118458672D01*
X210571893Y-118480855D01*
X210575550Y-118484883D01*
X210591664Y-118505151D01*
X210598209Y-118517936D01*
X210602285Y-118527857D01*
X210616813Y-118549959D01*
X210637905Y-118577405D01*
X210661367Y-118604447D01*
X210665317Y-118608841D01*
X210683879Y-118631215D01*
X210705085Y-118658463D01*
X210718588Y-118675990D01*
X210794724Y-118763964D01*
X210883068Y-118851165D01*
X210977249Y-118931207D01*
X210979788Y-118933205D01*
X211010753Y-118958804D01*
X211038979Y-118983838D01*
X211051479Y-118995074D01*
X211081773Y-119020663D01*
X211114226Y-119046606D01*
X211133902Y-119062315D01*
X211155193Y-119080802D01*
X211164876Y-119091343D01*
X211165668Y-119092818D01*
X211178843Y-119099628D01*
X211182237Y-119100535D01*
X211198998Y-119111599D01*
X211220881Y-119131207D01*
X211228848Y-119138956D01*
X211248373Y-119156000D01*
X211259545Y-119162810D01*
X211263324Y-119164249D01*
X211280066Y-119175535D01*
X211303472Y-119194364D01*
X211314731Y-119203711D01*
X211335983Y-119219618D01*
X211347799Y-119225919D01*
X211357179Y-119230523D01*
X211374115Y-119245034D01*
X211392503Y-119261123D01*
X211425712Y-119286713D01*
X211467353Y-119316827D01*
X211512433Y-119347949D01*
X211555961Y-119376563D01*
X211592946Y-119399154D01*
X211615529Y-119412526D01*
X211639456Y-119427838D01*
X211650841Y-119436726D01*
X211652022Y-119438068D01*
X211668348Y-119449720D01*
X211697663Y-119466833D01*
X211734747Y-119486687D01*
X211774379Y-119506561D01*
X211811340Y-119523737D01*
X211840408Y-119535494D01*
X211854273Y-119540021D01*
X211886260Y-119548421D01*
X211908735Y-119551581D01*
X211935785Y-119546689D01*
X211979534Y-119526785D01*
X212026364Y-119494889D01*
X212071856Y-119454582D01*
X212111594Y-119409449D01*
X212141160Y-119363071D01*
X212158620Y-119318619D01*
X212174488Y-119252456D01*
X212183522Y-119180729D01*
X212184781Y-119111527D01*
X212177320Y-119052939D01*
X212170453Y-119027881D01*
X212161442Y-119003708D01*
X212154423Y-118994364D01*
X212148900Y-118989177D01*
X212145513Y-118970680D01*
X212141098Y-118945957D01*
X212129723Y-118916845D01*
X212118621Y-118891275D01*
X212113999Y-118872109D01*
X212113011Y-118865958D01*
X212103472Y-118857522D01*
X212098630Y-118855741D01*
X212092946Y-118841733D01*
X212091782Y-118834472D01*
X212082620Y-118825943D01*
X212074142Y-118819342D01*
X212065690Y-118799628D01*
X212058966Y-118782233D01*
X212049700Y-118773312D01*
X212045613Y-118771802D01*
X212040314Y-118758274D01*
X212040223Y-118756544D01*
X212031584Y-118736883D01*
X212014607Y-118718364D01*
X211997457Y-118710154D01*
X211991365Y-118715348D01*
X211987674Y-118733838D01*
X211986974Y-118746171D01*
X211981940Y-118781641D01*
X211973414Y-118825279D01*
X211963021Y-118869835D01*
X211952385Y-118908055D01*
X211943131Y-118932690D01*
X211940231Y-118937857D01*
X211915957Y-118970210D01*
X211880786Y-119007059D01*
X211840523Y-119042735D01*
X211800968Y-119071570D01*
X211793260Y-119076125D01*
X211758487Y-119091028D01*
X211723496Y-119099028D01*
X211694571Y-119099161D01*
X211677997Y-119090461D01*
X211677613Y-119089921D01*
X211663108Y-119081700D01*
X211637902Y-119074544D01*
X211619119Y-119068456D01*
X211586781Y-119055325D01*
X211545968Y-119037408D01*
X211501321Y-119016883D01*
X211457477Y-118995924D01*
X211419076Y-118976710D01*
X211390756Y-118961415D01*
X211377157Y-118952217D01*
X211367277Y-118945006D01*
X211343821Y-118929792D01*
X211311358Y-118909432D01*
X211274356Y-118886653D01*
X211237285Y-118864186D01*
X211204616Y-118844760D01*
X211180816Y-118831102D01*
X211170356Y-118825943D01*
X211169326Y-118825640D01*
X211157019Y-118816829D01*
X211137331Y-118799628D01*
X211133609Y-118796270D01*
X211111928Y-118779952D01*
X211096562Y-118773312D01*
X211092780Y-118772964D01*
X211080665Y-118765417D01*
X211079074Y-118763435D01*
X211064225Y-118751125D01*
X211037576Y-118731629D01*
X211003472Y-118708167D01*
X210994046Y-118701813D01*
X210957632Y-118676551D01*
X210927266Y-118654436D01*
X210908735Y-118639652D01*
X210897568Y-118629940D01*
X210870873Y-118607939D01*
X210840349Y-118583744D01*
X210816154Y-118564924D01*
X210784369Y-118539916D01*
X210761055Y-118520933D01*
X210740983Y-118503675D01*
X210718926Y-118483838D01*
X210687306Y-118454864D01*
X210629505Y-118400272D01*
X210584551Y-118354863D01*
X210549970Y-118315934D01*
X210549578Y-118315417D01*
X213313999Y-118315417D01*
X213319262Y-118320680D01*
X213324525Y-118315417D01*
X213319262Y-118310154D01*
X213313999Y-118315417D01*
X210549578Y-118315417D01*
X210523293Y-118280783D01*
X210502046Y-118246708D01*
X210494750Y-118234406D01*
X210479795Y-118213257D01*
X210469955Y-118204891D01*
X210467733Y-118204517D01*
X210461367Y-118193938D01*
X210460970Y-118190623D01*
X210451760Y-118170953D01*
X210445758Y-118162785D01*
X212703472Y-118162785D01*
X212705254Y-118167628D01*
X212719262Y-118173312D01*
X212726525Y-118172124D01*
X212735051Y-118162785D01*
X212733270Y-118157943D01*
X212719262Y-118152259D01*
X212711998Y-118153447D01*
X212703472Y-118162785D01*
X210445758Y-118162785D01*
X210434806Y-118147882D01*
X210428800Y-118141733D01*
X212745578Y-118141733D01*
X212746006Y-118144618D01*
X212756725Y-118152259D01*
X212760532Y-118151433D01*
X212761367Y-118141733D01*
X212759207Y-118138583D01*
X212750220Y-118131207D01*
X212749169Y-118131480D01*
X212745578Y-118141733D01*
X210428800Y-118141733D01*
X210416066Y-118128695D01*
X210401493Y-118120680D01*
X210396630Y-118121488D01*
X210389068Y-118133768D01*
X210184438Y-118133768D01*
X210187683Y-118111496D01*
X210188285Y-118104679D01*
X212768879Y-118104679D01*
X212770139Y-118117171D01*
X212773305Y-118118818D01*
X212777157Y-118110154D01*
X212776397Y-118104581D01*
X212770139Y-118103136D01*
X212768879Y-118104679D01*
X210188285Y-118104679D01*
X210189196Y-118094364D01*
X212713999Y-118094364D01*
X212719262Y-118099628D01*
X212724525Y-118094364D01*
X212719262Y-118089101D01*
X212713999Y-118094364D01*
X210189196Y-118094364D01*
X210189771Y-118087854D01*
X210195385Y-118051302D01*
X210203290Y-118010150D01*
X210210744Y-117969884D01*
X210216719Y-117926583D01*
X210219079Y-117893838D01*
X210219304Y-117885280D01*
X210222747Y-117857405D01*
X210228978Y-117841206D01*
X210236634Y-117825547D01*
X210242136Y-117799628D01*
X210243955Y-117787467D01*
X210251863Y-117772817D01*
X210269262Y-117771342D01*
X210284306Y-117771503D01*
X210293812Y-117766079D01*
X210298315Y-117733554D01*
X210305951Y-117703808D01*
X210314645Y-117690856D01*
X210320851Y-117683108D01*
X210324525Y-117662529D01*
X210326736Y-117645794D01*
X210334746Y-117631395D01*
X210338660Y-117626075D01*
X210345992Y-117604239D01*
X210351892Y-117572879D01*
X210354976Y-117554219D01*
X210354988Y-117554174D01*
X211135477Y-117554174D01*
X211135816Y-117580671D01*
X211139219Y-117589705D01*
X211145250Y-117580104D01*
X211153472Y-117550696D01*
X211156894Y-117532796D01*
X211161396Y-117498115D01*
X211164728Y-117459400D01*
X211166666Y-117421643D01*
X211166983Y-117389836D01*
X211165457Y-117368972D01*
X211161863Y-117364044D01*
X211157425Y-117376187D01*
X211151564Y-117406894D01*
X211145157Y-117452818D01*
X211138684Y-117510923D01*
X211138637Y-117511387D01*
X211135477Y-117554174D01*
X210354988Y-117554174D01*
X210361493Y-117530113D01*
X210367986Y-117520680D01*
X210373454Y-117516322D01*
X210377157Y-117498724D01*
X210377445Y-117491407D01*
X210382899Y-117456385D01*
X210393595Y-117413992D01*
X210407339Y-117371259D01*
X210421934Y-117335217D01*
X210435186Y-117312896D01*
X210440556Y-117307498D01*
X210466676Y-117287396D01*
X210499197Y-117267782D01*
X210530525Y-117252900D01*
X210553066Y-117246996D01*
X210558258Y-117246281D01*
X210566630Y-117237665D01*
X210568785Y-117234558D01*
X210585640Y-117227338D01*
X210613753Y-117221267D01*
X210627210Y-117218887D01*
X210653675Y-117211716D01*
X210667006Y-117204283D01*
X210678839Y-117197591D01*
X210702339Y-117194364D01*
X210723945Y-117192316D01*
X210739371Y-117186470D01*
X210749922Y-117182035D01*
X210778764Y-117175138D01*
X210821731Y-117167131D01*
X210875106Y-117158644D01*
X210935171Y-117150303D01*
X210998209Y-117142737D01*
X211002591Y-117142245D01*
X211043188Y-117136881D01*
X211076509Y-117131140D01*
X211095712Y-117126184D01*
X211107075Y-117123851D01*
X211129922Y-117131318D01*
X211139488Y-117145448D01*
X211145052Y-117166903D01*
X211144359Y-117186069D01*
X211136511Y-117194364D01*
X211135303Y-117194552D01*
X211131206Y-117204631D01*
X211133158Y-117231323D01*
X211141262Y-117276374D01*
X211146959Y-117290471D01*
X211156584Y-117294068D01*
X211159672Y-117291435D01*
X211161161Y-117278242D01*
X211159205Y-117266018D01*
X211160108Y-117239640D01*
X212114856Y-117239640D01*
X212120388Y-117261925D01*
X212131250Y-117273030D01*
X212153857Y-117278366D01*
X212177374Y-117274630D01*
X212191854Y-117261836D01*
X212194322Y-117252750D01*
X212193236Y-117236939D01*
X212193592Y-117236470D01*
X212524525Y-117236470D01*
X212524646Y-117238852D01*
X212529167Y-117246996D01*
X212530855Y-117246512D01*
X212540314Y-117236470D01*
X212541959Y-117232392D01*
X212535673Y-117225943D01*
X212532617Y-117226348D01*
X212524525Y-117236470D01*
X212193592Y-117236470D01*
X212196243Y-117232975D01*
X212214719Y-117227100D01*
X212244938Y-117222113D01*
X212247137Y-117221854D01*
X212290420Y-117216163D01*
X212315822Y-117209960D01*
X212326293Y-117200740D01*
X212324778Y-117185999D01*
X212321239Y-117178363D01*
X212358353Y-117178363D01*
X212359613Y-117190856D01*
X212362779Y-117192502D01*
X212366630Y-117183838D01*
X212365871Y-117178265D01*
X212359613Y-117176821D01*
X212358353Y-117178363D01*
X212321239Y-117178363D01*
X212314226Y-117163232D01*
X212298818Y-117138044D01*
X212279741Y-117124265D01*
X212248836Y-117117536D01*
X212246779Y-117117267D01*
X212209781Y-117116619D01*
X212186952Y-117126605D01*
X212174051Y-117134884D01*
X212147380Y-117141733D01*
X212133368Y-117144666D01*
X212124525Y-117158749D01*
X212124525Y-117158795D01*
X212130464Y-117170811D01*
X212150841Y-117170735D01*
X212170102Y-117170577D01*
X212177035Y-117179421D01*
X212168680Y-117193963D01*
X212145578Y-117210154D01*
X212122321Y-117224652D01*
X212114856Y-117239640D01*
X211160108Y-117239640D01*
X211160144Y-117238585D01*
X211163727Y-117202557D01*
X211169114Y-117163852D01*
X211175467Y-117128388D01*
X211181946Y-117102083D01*
X211187714Y-117090856D01*
X211192371Y-117087623D01*
X211198209Y-117071308D01*
X211196325Y-117063832D01*
X211184097Y-117060685D01*
X211176365Y-117062143D01*
X211155390Y-117057081D01*
X211144401Y-117054108D01*
X211123087Y-117064087D01*
X211116174Y-117070045D01*
X211105633Y-117073575D01*
X211098890Y-117059668D01*
X211095512Y-117043750D01*
X211094817Y-117010991D01*
X211100064Y-116980532D01*
X211110193Y-116961576D01*
X211118746Y-116957575D01*
X211118069Y-116970079D01*
X211117503Y-116973017D01*
X211123449Y-116991891D01*
X211142580Y-117003936D01*
X211168320Y-117006744D01*
X211194093Y-116997908D01*
X211200284Y-116994024D01*
X211219435Y-116987156D01*
X211235104Y-116994408D01*
X211244575Y-117000109D01*
X211249648Y-116993431D01*
X211250841Y-116969337D01*
X211249568Y-116946585D01*
X211242515Y-116934041D01*
X211225651Y-116931207D01*
X211208491Y-116934727D01*
X211194403Y-116946996D01*
X211185032Y-116959707D01*
X211172630Y-116961257D01*
X211166630Y-116948199D01*
X211163516Y-116932912D01*
X211153472Y-116908726D01*
X211151159Y-116904679D01*
X211189932Y-116904679D01*
X211191192Y-116917171D01*
X211194358Y-116918818D01*
X211198209Y-116910154D01*
X211197450Y-116904581D01*
X211191192Y-116903136D01*
X211189932Y-116904679D01*
X211151159Y-116904679D01*
X211148976Y-116900861D01*
X211135971Y-116889719D01*
X211116630Y-116894229D01*
X211101450Y-116903144D01*
X211092946Y-116914261D01*
X211092903Y-116914828D01*
X211086308Y-116913617D01*
X211071893Y-116899628D01*
X211057798Y-116875620D01*
X211050841Y-116845385D01*
X211047854Y-116824526D01*
X211040314Y-116815417D01*
X211033391Y-116808883D01*
X211029788Y-116789101D01*
X211027422Y-116771799D01*
X211020250Y-116762785D01*
X211015951Y-116758409D01*
X211009059Y-116738348D01*
X211003281Y-116707522D01*
X210999953Y-116686630D01*
X210993282Y-116657292D01*
X210986814Y-116641028D01*
X210983004Y-116628846D01*
X210978248Y-116599471D01*
X210973544Y-116557959D01*
X210969506Y-116508990D01*
X210967602Y-116474937D01*
X210966908Y-116391235D01*
X210972346Y-116304474D01*
X210984374Y-116209117D01*
X211003452Y-116099628D01*
X211005443Y-116089164D01*
X211014145Y-116041273D01*
X211021566Y-115997224D01*
X211026278Y-115965417D01*
X211028060Y-115953567D01*
X211033892Y-115930035D01*
X211040018Y-115920680D01*
X211043434Y-115917084D01*
X211049681Y-115898023D01*
X211055110Y-115868049D01*
X211058280Y-115848992D01*
X211064888Y-115824855D01*
X211071499Y-115815417D01*
X211076035Y-115810214D01*
X211082641Y-115789185D01*
X211088138Y-115757522D01*
X211091964Y-115733602D01*
X211098406Y-115709117D01*
X211104685Y-115699628D01*
X211109766Y-115696492D01*
X211113999Y-115680390D01*
X211117407Y-115662917D01*
X211127819Y-115629937D01*
X211143445Y-115587282D01*
X211162458Y-115539908D01*
X211183035Y-115492774D01*
X211183769Y-115491151D01*
X211193992Y-115463606D01*
X211198209Y-115442774D01*
X211199453Y-115434549D01*
X211207899Y-115425943D01*
X211208058Y-115425939D01*
X211216862Y-115416533D01*
X211224498Y-115394485D01*
X211232130Y-115370735D01*
X211241124Y-115357022D01*
X211246398Y-115350469D01*
X211250841Y-115330585D01*
X211252423Y-115318958D01*
X211259682Y-115310154D01*
X211262799Y-115308288D01*
X211272397Y-115292345D01*
X211282759Y-115265417D01*
X211289389Y-115246951D01*
X211306799Y-115206463D01*
X211326549Y-115167197D01*
X211338653Y-115143744D01*
X211351228Y-115114607D01*
X211356104Y-115096145D01*
X211357454Y-115087225D01*
X211365794Y-115078575D01*
X211365984Y-115078569D01*
X211374781Y-115069095D01*
X211382420Y-115046996D01*
X211382571Y-115046313D01*
X211389546Y-115024469D01*
X211396596Y-115015417D01*
X211403284Y-115007427D01*
X211415027Y-114984646D01*
X211428923Y-114952259D01*
X211442203Y-114921663D01*
X211454782Y-114898114D01*
X211462951Y-114889101D01*
X211465384Y-114888678D01*
X211471893Y-114877923D01*
X211474949Y-114866114D01*
X211484854Y-114840049D01*
X211499239Y-114806870D01*
X211511807Y-114779282D01*
X211528478Y-114742496D01*
X211540650Y-114715417D01*
X211555684Y-114688109D01*
X211575174Y-114661976D01*
X211590039Y-114642531D01*
X211602894Y-114617239D01*
X211609493Y-114603104D01*
X211619971Y-114594364D01*
X211623080Y-114593743D01*
X211629788Y-114582347D01*
X211630512Y-114578709D01*
X211639874Y-114558380D01*
X211657860Y-114526816D01*
X211681681Y-114488321D01*
X211708550Y-114447199D01*
X211735679Y-114407754D01*
X211760280Y-114374290D01*
X211779566Y-114351110D01*
X211792103Y-114337429D01*
X211822192Y-114302574D01*
X211850451Y-114267688D01*
X211866122Y-114248114D01*
X211884633Y-114226848D01*
X211895188Y-114217171D01*
X211897000Y-114216135D01*
X211903472Y-114202589D01*
X211910450Y-114188279D01*
X211927349Y-114169256D01*
X211967608Y-114126668D01*
X211998614Y-114077141D01*
X212009390Y-114029676D01*
X212000157Y-113983098D01*
X211971135Y-113936231D01*
X211954276Y-113917638D01*
X211933505Y-113900199D01*
X211919959Y-113895554D01*
X211917116Y-113895739D01*
X211901175Y-113886301D01*
X211878399Y-113864286D01*
X211852282Y-113833694D01*
X211826317Y-113798527D01*
X211804000Y-113762785D01*
X211801180Y-113757827D01*
X211782953Y-113729085D01*
X211766699Y-113707870D01*
X211756224Y-113699732D01*
X211721752Y-113687720D01*
X211673910Y-113682629D01*
X211617194Y-113684748D01*
X211556104Y-113694366D01*
X211510081Y-113703729D01*
X211460018Y-113712768D01*
X211419262Y-113718998D01*
X211395919Y-113722532D01*
X211365205Y-113729007D01*
X211347397Y-113735202D01*
X211333863Y-113740852D01*
X211309557Y-113748285D01*
X211304825Y-113749732D01*
X211268450Y-113758958D01*
X211268187Y-113759019D01*
X211224659Y-113770937D01*
X211173068Y-113787722D01*
X211124525Y-113805759D01*
X211079698Y-113823867D01*
X211046014Y-113837709D01*
X211017632Y-113849860D01*
X210988470Y-113862995D01*
X210952445Y-113879786D01*
X210903472Y-113902907D01*
X210868426Y-113919358D01*
X210817327Y-113942647D01*
X210768498Y-113963725D01*
X210714590Y-113985729D01*
X210648249Y-114011795D01*
X210630092Y-114019391D01*
X210607210Y-114031135D01*
X210598249Y-114039101D01*
X210594125Y-114043732D01*
X210576786Y-114046996D01*
X210570237Y-114047732D01*
X210543884Y-114056809D01*
X210514735Y-114072240D01*
X210492946Y-114088945D01*
X210488800Y-114091792D01*
X210469142Y-114102975D01*
X210437556Y-114119919D01*
X210398451Y-114140229D01*
X210378721Y-114150600D01*
X210338618Y-114173316D01*
X210306256Y-114193786D01*
X210287247Y-114208563D01*
X210268357Y-114226420D01*
X210249007Y-114241733D01*
X210197381Y-114277328D01*
X210144646Y-114320680D01*
X210142499Y-114322685D01*
X210113510Y-114348282D01*
X210083065Y-114373312D01*
X210066667Y-114387991D01*
X210038062Y-114418573D01*
X210011023Y-114452259D01*
X209992780Y-114476885D01*
X209975462Y-114499441D01*
X209966409Y-114510154D01*
X209963511Y-114513766D01*
X209952377Y-114532077D01*
X209937777Y-114559206D01*
X209924621Y-114590261D01*
X209919323Y-114622414D01*
X209921074Y-114664470D01*
X209924015Y-114689460D01*
X209931135Y-114731575D01*
X209939214Y-114764536D01*
X209941159Y-114770240D01*
X209957081Y-114804749D01*
X209977506Y-114836235D01*
X209998361Y-114859175D01*
X210015573Y-114868049D01*
X210021383Y-114868973D01*
X210029788Y-114878575D01*
X210031019Y-114882855D01*
X210043946Y-114889101D01*
X210057545Y-114893999D01*
X210076617Y-114909557D01*
X210096946Y-114924947D01*
X210126328Y-114936866D01*
X210149685Y-114945851D01*
X210163205Y-114958515D01*
X210167130Y-114964853D01*
X210184278Y-114973312D01*
X210193615Y-114977469D01*
X210196310Y-114996996D01*
X210195974Y-114999182D01*
X210191742Y-115010908D01*
X210180775Y-115017815D01*
X210158301Y-115021571D01*
X210119548Y-115023846D01*
X210098188Y-115024400D01*
X210055667Y-115022185D01*
X210014197Y-115013993D01*
X209967359Y-114998290D01*
X209908735Y-114973546D01*
X209874241Y-114960289D01*
X209824699Y-114944334D01*
X209768936Y-114928428D01*
X209714363Y-114914678D01*
X209668391Y-114905192D01*
X209631433Y-114903923D01*
X209600393Y-114916467D01*
X209575615Y-114929530D01*
X209551263Y-114937020D01*
X209538116Y-114939126D01*
X209507713Y-114946216D01*
X209473506Y-114955955D01*
X209441558Y-114966432D01*
X209417933Y-114975735D01*
X209408696Y-114981953D01*
X209406264Y-114985232D01*
X209389726Y-114995514D01*
X209362711Y-115007993D01*
X209342001Y-115018855D01*
X209301585Y-115050530D01*
X209263684Y-115091833D01*
X209234788Y-115136256D01*
X209224084Y-115149282D01*
X209200577Y-115160886D01*
X209186098Y-115165075D01*
X209177157Y-115174044D01*
X209176242Y-115177642D01*
X209163999Y-115184136D01*
X209163527Y-115184168D01*
X209147837Y-115190468D01*
X209120776Y-115205519D01*
X209087909Y-115226241D01*
X209085815Y-115227627D01*
X209053111Y-115248044D01*
X209026510Y-115262538D01*
X209011593Y-115268049D01*
X209006580Y-115268671D01*
X208998209Y-115276549D01*
X208997842Y-115278095D01*
X208984596Y-115288935D01*
X208954544Y-115303411D01*
X208910707Y-115320217D01*
X208856104Y-115338045D01*
X208826215Y-115347931D01*
X208800611Y-115358230D01*
X208789437Y-115365265D01*
X208787912Y-115367577D01*
X208773648Y-115373377D01*
X208758475Y-115377036D01*
X208734762Y-115387327D01*
X208726365Y-115391271D01*
X208694862Y-115403034D01*
X208659048Y-115413578D01*
X208633030Y-115421656D01*
X208598751Y-115435527D01*
X208567179Y-115451086D01*
X208544037Y-115465459D01*
X208535051Y-115475776D01*
X208535209Y-115476533D01*
X208543938Y-115488200D01*
X208561917Y-115506322D01*
X208583812Y-115532718D01*
X208599789Y-115562793D01*
X208600051Y-115563532D01*
X208612890Y-115585714D01*
X208628186Y-115595629D01*
X208651653Y-115596479D01*
X208689353Y-115595648D01*
X208726469Y-115592947D01*
X208756177Y-115588923D01*
X208771657Y-115584124D01*
X208777387Y-115581050D01*
X208800706Y-115573980D01*
X208832549Y-115567819D01*
X208848906Y-115564937D01*
X208875425Y-115557948D01*
X208888434Y-115551045D01*
X208897556Y-115545229D01*
X208919262Y-115541733D01*
X208936294Y-115539429D01*
X208950841Y-115531207D01*
X208956098Y-115526187D01*
X208975146Y-115520615D01*
X208996301Y-115516040D01*
X209023097Y-115504826D01*
X209049437Y-115493821D01*
X209071479Y-115489101D01*
X209072594Y-115489073D01*
X209095102Y-115483913D01*
X209122909Y-115472540D01*
X209123401Y-115472295D01*
X209159678Y-115460122D01*
X209186378Y-115465575D01*
X209206204Y-115489194D01*
X209207744Y-115492304D01*
X209215651Y-115532035D01*
X209207325Y-115576636D01*
X209183857Y-115619732D01*
X209180400Y-115624657D01*
X209163000Y-115663214D01*
X209149116Y-115717725D01*
X209143341Y-115757111D01*
X209139394Y-115784025D01*
X209137656Y-115810154D01*
X209134478Y-115857947D01*
X209135014Y-115935323D01*
X209134009Y-115958282D01*
X209125236Y-115991865D01*
X209110165Y-116016422D01*
X209091669Y-116025943D01*
X209079011Y-116028010D01*
X209072664Y-116038729D01*
X209085051Y-116055204D01*
X209098813Y-116063267D01*
X209126597Y-116073436D01*
X209157753Y-116081004D01*
X209184645Y-116084227D01*
X209199632Y-116081362D01*
X209214247Y-116077864D01*
X209244499Y-116077989D01*
X209285136Y-116081767D01*
X209285204Y-116081776D01*
X209327695Y-116086532D01*
X209365846Y-116089706D01*
X209391405Y-116090611D01*
X209414992Y-116093598D01*
X209435239Y-116103575D01*
X209435855Y-116104207D01*
X209438598Y-116110792D01*
X209429406Y-116114659D01*
X209405248Y-116116347D01*
X209363097Y-116116395D01*
X209357415Y-116116359D01*
X209309725Y-116117953D01*
X209265060Y-116122305D01*
X209232420Y-116128575D01*
X209226212Y-116130399D01*
X209184660Y-116142563D01*
X209145578Y-116153944D01*
X209135552Y-116157258D01*
X209112627Y-116168849D01*
X209103472Y-116180260D01*
X209102566Y-116185968D01*
X209092946Y-116194364D01*
X209086371Y-116199561D01*
X209082355Y-116218049D01*
X209077930Y-116242799D01*
X209066549Y-116271915D01*
X209062350Y-116282144D01*
X209057305Y-116304891D01*
X209055596Y-116312597D01*
X209051955Y-116349964D01*
X209051399Y-116388047D01*
X209051390Y-116388692D01*
X209053864Y-116423230D01*
X209059340Y-116448024D01*
X209067782Y-116457522D01*
X209074585Y-116459343D01*
X209082420Y-116473312D01*
X209081158Y-116480585D01*
X209071272Y-116489101D01*
X209067150Y-116490264D01*
X209067325Y-116500751D01*
X209073187Y-116506155D01*
X209083735Y-116498120D01*
X209093112Y-116489520D01*
X209103311Y-116499628D01*
X209107983Y-116508692D01*
X209113837Y-116533838D01*
X209115525Y-116542210D01*
X209127590Y-116550110D01*
X209155483Y-116552259D01*
X209170318Y-116552715D01*
X209196097Y-116557224D01*
X209203194Y-116564266D01*
X209191112Y-116570987D01*
X209159357Y-116574533D01*
X209141422Y-116575402D01*
X209126723Y-116577779D01*
X209129788Y-116580818D01*
X209142732Y-116585060D01*
X209160841Y-116595386D01*
X209161018Y-116595550D01*
X209178143Y-116602153D01*
X209204845Y-116604891D01*
X209216235Y-116605288D01*
X209235324Y-116611543D01*
X209243020Y-116628575D01*
X209246083Y-116643410D01*
X209250236Y-116643967D01*
X209258874Y-116625943D01*
X209270559Y-116599628D01*
X209271226Y-116628575D01*
X209273306Y-116642534D01*
X209280820Y-116655908D01*
X209289065Y-116656822D01*
X209292946Y-116642103D01*
X209293974Y-116635448D01*
X209307776Y-116618698D01*
X209331077Y-116610675D01*
X209355412Y-116615047D01*
X209379334Y-116624732D01*
X209393892Y-116620479D01*
X209398209Y-116599628D01*
X209398320Y-116594778D01*
X209404493Y-116577659D01*
X209424525Y-116573312D01*
X209441880Y-116570042D01*
X209451002Y-116560154D01*
X209452856Y-116554221D01*
X209461367Y-116562785D01*
X209463059Y-116565376D01*
X209470163Y-116573229D01*
X209471732Y-116562686D01*
X209472152Y-116558636D01*
X209483924Y-116540161D01*
X209504858Y-116529480D01*
X209525467Y-116532011D01*
X209527480Y-116533115D01*
X209549704Y-116539062D01*
X209579788Y-116541572D01*
X209587419Y-116541777D01*
X209611991Y-116546535D01*
X209619205Y-116556210D01*
X209607233Y-116568977D01*
X209606678Y-116569345D01*
X209606535Y-116578917D01*
X209625371Y-116592218D01*
X209650839Y-116609437D01*
X209675375Y-116633242D01*
X209689035Y-116648750D01*
X209701887Y-116652029D01*
X209721197Y-116641433D01*
X209731239Y-116635277D01*
X209747134Y-116629943D01*
X209766635Y-116632333D01*
X209797682Y-116642566D01*
X209812533Y-116648523D01*
X209849688Y-116667696D01*
X209855180Y-116671557D01*
X209878670Y-116688071D01*
X209885363Y-116694901D01*
X209903750Y-116713663D01*
X209906494Y-116716463D01*
X209927062Y-116744031D01*
X209937447Y-116766216D01*
X209934934Y-116778647D01*
X209934187Y-116779200D01*
X209927338Y-116794621D01*
X209924525Y-116820550D01*
X209924520Y-116821435D01*
X209919757Y-116850657D01*
X209908735Y-116871808D01*
X209899610Y-116882554D01*
X209892946Y-116896352D01*
X209892640Y-116898002D01*
X209883689Y-116912945D01*
X209866204Y-116933946D01*
X209860939Y-116939877D01*
X209849565Y-116956222D01*
X209850415Y-116962785D01*
X209851916Y-116962918D01*
X209860084Y-116972970D01*
X209860743Y-116993337D01*
X209854746Y-117016005D01*
X209842946Y-117032961D01*
X209809706Y-117054213D01*
X209765191Y-117074859D01*
X209714702Y-117093004D01*
X209662441Y-117107638D01*
X209612606Y-117117748D01*
X209569400Y-117122323D01*
X209537023Y-117120351D01*
X209519674Y-117110820D01*
X209518740Y-117109560D01*
X209503803Y-117097579D01*
X209479579Y-117083246D01*
X209459533Y-117077311D01*
X209420635Y-117071138D01*
X209367146Y-117065400D01*
X209302425Y-117060270D01*
X209229833Y-117055919D01*
X209152728Y-117052519D01*
X209074472Y-117050243D01*
X208998423Y-117049262D01*
X208927943Y-117049747D01*
X208866391Y-117051872D01*
X208797027Y-117053498D01*
X208737199Y-117049828D01*
X208695028Y-117040665D01*
X208671893Y-117026193D01*
X208662185Y-117020771D01*
X208637328Y-117011058D01*
X208603578Y-116999828D01*
X208573911Y-116989608D01*
X208543655Y-116976725D01*
X208526510Y-116966274D01*
X208517348Y-116959189D01*
X208497457Y-116952259D01*
X208490878Y-116951115D01*
X208482420Y-116940981D01*
X208474275Y-116924282D01*
X208449546Y-116900166D01*
X208410982Y-116871492D01*
X208361363Y-116840314D01*
X208303472Y-116808690D01*
X208297787Y-116805735D01*
X208271548Y-116790722D01*
X208254762Y-116778974D01*
X208241888Y-116768423D01*
X208219570Y-116752259D01*
X208201236Y-116739096D01*
X208174564Y-116718049D01*
X208158441Y-116705705D01*
X208146599Y-116699536D01*
X208142624Y-116697693D01*
X208126312Y-116685366D01*
X208103472Y-116665296D01*
X208086128Y-116649690D01*
X208052345Y-116621422D01*
X208020401Y-116596982D01*
X207994885Y-116579801D01*
X207980391Y-116573312D01*
X207972297Y-116569082D01*
X207959640Y-116553653D01*
X207950356Y-116535362D01*
X207949975Y-116523301D01*
X207954589Y-116523813D01*
X207970408Y-116535061D01*
X207992102Y-116555905D01*
X208005274Y-116569391D01*
X208024760Y-116587335D01*
X208035461Y-116594364D01*
X208044968Y-116599124D01*
X208066544Y-116613961D01*
X208094655Y-116635123D01*
X208124197Y-116658753D01*
X208150065Y-116680992D01*
X208166700Y-116693653D01*
X208189539Y-116705480D01*
X208200153Y-116710095D01*
X208208735Y-116718996D01*
X208209993Y-116721514D01*
X208223890Y-116732814D01*
X208248209Y-116747208D01*
X208256275Y-116751572D01*
X208283653Y-116768005D01*
X208301593Y-116781181D01*
X208310277Y-116787598D01*
X208330540Y-116794364D01*
X208337087Y-116795298D01*
X208345578Y-116803663D01*
X208348458Y-116809607D01*
X208363999Y-116819147D01*
X208373819Y-116822930D01*
X208398209Y-116835288D01*
X208422832Y-116848621D01*
X208455622Y-116863061D01*
X208486470Y-116874146D01*
X208507074Y-116878575D01*
X208514641Y-116879498D01*
X208529069Y-116887938D01*
X208529410Y-116888425D01*
X208543920Y-116896510D01*
X208569164Y-116903098D01*
X208584409Y-116905688D01*
X208621528Y-116912047D01*
X208661367Y-116918917D01*
X208671250Y-116920547D01*
X208727448Y-116927853D01*
X208795527Y-116934284D01*
X208870800Y-116939631D01*
X208948582Y-116943683D01*
X209024186Y-116946228D01*
X209092927Y-116947058D01*
X209150119Y-116945960D01*
X209191076Y-116942724D01*
X209193114Y-116942441D01*
X209240776Y-116936761D01*
X209287217Y-116932708D01*
X209322655Y-116931142D01*
X209334906Y-116930696D01*
X209372457Y-116925165D01*
X209402044Y-116915352D01*
X209428452Y-116904356D01*
X209450758Y-116899628D01*
X209467290Y-116897406D01*
X209500942Y-116886169D01*
X209534022Y-116869462D01*
X209556450Y-116851843D01*
X209562533Y-116842907D01*
X209559242Y-116838500D01*
X209542342Y-116838724D01*
X209508243Y-116842913D01*
X209507512Y-116843009D01*
X209479642Y-116845206D01*
X209434304Y-116847126D01*
X209374936Y-116848696D01*
X209304978Y-116849844D01*
X209227870Y-116850495D01*
X209147050Y-116850578D01*
X209128084Y-116850520D01*
X209041609Y-116850029D01*
X208973697Y-116849150D01*
X208922263Y-116847780D01*
X208885222Y-116845816D01*
X208860489Y-116843152D01*
X208845977Y-116839687D01*
X208839602Y-116835316D01*
X208838666Y-116821349D01*
X208856550Y-116805185D01*
X208877236Y-116789192D01*
X208881074Y-116777690D01*
X208866961Y-116773312D01*
X208859178Y-116771102D01*
X208857560Y-116757522D01*
X208858822Y-116749057D01*
X208849335Y-116741551D01*
X208848783Y-116741526D01*
X208831740Y-116733687D01*
X208811947Y-116716829D01*
X209136913Y-116716829D01*
X209145578Y-116720680D01*
X209151150Y-116719921D01*
X209152595Y-116713663D01*
X209151052Y-116712403D01*
X209138560Y-116713663D01*
X209136913Y-116716829D01*
X208811947Y-116716829D01*
X208811111Y-116716117D01*
X208808709Y-116713737D01*
X208779944Y-116695182D01*
X208745322Y-116683795D01*
X208735969Y-116681960D01*
X208712763Y-116674535D01*
X208703472Y-116666662D01*
X208703847Y-116666008D01*
X208882420Y-116666008D01*
X208884956Y-116673525D01*
X208898209Y-116689101D01*
X208907500Y-116695404D01*
X208913999Y-116694901D01*
X208911032Y-116687685D01*
X208900564Y-116674724D01*
X209189545Y-116674724D01*
X209198209Y-116678575D01*
X209203782Y-116677815D01*
X209205227Y-116671557D01*
X209203684Y-116670298D01*
X209191192Y-116671557D01*
X209189545Y-116674724D01*
X208900564Y-116674724D01*
X208898209Y-116671808D01*
X208888333Y-116664141D01*
X208882420Y-116666008D01*
X208703847Y-116666008D01*
X208706276Y-116661771D01*
X208721512Y-116659692D01*
X208731805Y-116658672D01*
X208743336Y-116644364D01*
X208741957Y-116631469D01*
X208725297Y-116625943D01*
X208714870Y-116624744D01*
X208703065Y-116613286D01*
X208702648Y-116586638D01*
X208701179Y-116580394D01*
X208688106Y-116579869D01*
X208680288Y-116584042D01*
X208671893Y-116595491D01*
X208670121Y-116599805D01*
X208656104Y-116604891D01*
X208645805Y-116599740D01*
X208640314Y-116578575D01*
X208637701Y-116561267D01*
X208629788Y-116552259D01*
X208624946Y-116554041D01*
X208619262Y-116568049D01*
X208617428Y-116575412D01*
X208603472Y-116583838D01*
X208594265Y-116579931D01*
X208587683Y-116562785D01*
X208585709Y-116550549D01*
X208577157Y-116541733D01*
X208569511Y-116533816D01*
X208565053Y-116512785D01*
X208563476Y-116483838D01*
X208559091Y-116512785D01*
X208558302Y-116517382D01*
X208549241Y-116536589D01*
X208529089Y-116541733D01*
X208527795Y-116541724D01*
X208508671Y-116536403D01*
X208503472Y-116517900D01*
X208498534Y-116503202D01*
X208475561Y-116483019D01*
X208436488Y-116465381D01*
X208384234Y-116451905D01*
X208377365Y-116450438D01*
X208351891Y-116438700D01*
X208346353Y-116421098D01*
X208361085Y-116398405D01*
X208364814Y-116393907D01*
X208365207Y-116393188D01*
X208434324Y-116393188D01*
X208437379Y-116397211D01*
X208450841Y-116404891D01*
X208459660Y-116402044D01*
X208468769Y-116388047D01*
X208465099Y-116372833D01*
X208462215Y-116370617D01*
X208447201Y-116370036D01*
X208434855Y-116379576D01*
X208434324Y-116393188D01*
X208365207Y-116393188D01*
X208377945Y-116369882D01*
X208389520Y-116338631D01*
X208393110Y-116326904D01*
X208401001Y-116304891D01*
X208461367Y-116304891D01*
X208466630Y-116310154D01*
X208471893Y-116304891D01*
X208466630Y-116299628D01*
X208461367Y-116304891D01*
X208401001Y-116304891D01*
X208402169Y-116301634D01*
X208408735Y-116289101D01*
X208413898Y-116282007D01*
X208423514Y-116255940D01*
X208431985Y-116218532D01*
X208438016Y-116176098D01*
X208440314Y-116134956D01*
X208440281Y-116128250D01*
X208437050Y-116088544D01*
X208425599Y-116062233D01*
X208401758Y-116043619D01*
X208361362Y-116027001D01*
X208352875Y-116023749D01*
X208323991Y-116008605D01*
X208305507Y-115992791D01*
X208294282Y-115981170D01*
X208276560Y-115973312D01*
X208267056Y-115968440D01*
X208261032Y-115949628D01*
X208258867Y-115934464D01*
X208248610Y-115911071D01*
X208234085Y-115895450D01*
X208219962Y-115893932D01*
X208214147Y-115895136D01*
X208208735Y-115884459D01*
X208207603Y-115876633D01*
X208199437Y-115868049D01*
X208192965Y-115864060D01*
X208184633Y-115846996D01*
X208174182Y-115831247D01*
X208156115Y-115826190D01*
X208140314Y-115836470D01*
X208138945Y-115838321D01*
X208120379Y-115846738D01*
X208093159Y-115846801D01*
X208066195Y-115839529D01*
X208048398Y-115825943D01*
X208038412Y-115812782D01*
X208027256Y-115804891D01*
X208021397Y-115810147D01*
X208019639Y-115825943D01*
X208019431Y-115827807D01*
X208023157Y-115849404D01*
X208031893Y-115865943D01*
X208038163Y-115875768D01*
X208026291Y-115878575D01*
X208012649Y-115883911D01*
X207998537Y-115902259D01*
X207996354Y-115907521D01*
X207990423Y-115917110D01*
X207988350Y-115907522D01*
X207986410Y-115897820D01*
X207977157Y-115889101D01*
X207972403Y-115882393D01*
X207968228Y-115859585D01*
X207966630Y-115825943D01*
X207966845Y-115820469D01*
X207989932Y-115820469D01*
X207991192Y-115832961D01*
X207994358Y-115834608D01*
X207998209Y-115825943D01*
X207997450Y-115820371D01*
X207991192Y-115818926D01*
X207989932Y-115820469D01*
X207966845Y-115820469D01*
X207967748Y-115797421D01*
X207969185Y-115787952D01*
X207989337Y-115787952D01*
X207991850Y-115802040D01*
X207995443Y-115801877D01*
X207996039Y-115797673D01*
X208213381Y-115797673D01*
X208215091Y-115819730D01*
X208215291Y-115820246D01*
X208226165Y-115835287D01*
X208236020Y-115831348D01*
X208240314Y-115810154D01*
X208237856Y-115792850D01*
X208230409Y-115783838D01*
X208224597Y-115784786D01*
X208213381Y-115797673D01*
X207996039Y-115797673D01*
X207997378Y-115788224D01*
X207995693Y-115777877D01*
X207991019Y-115781864D01*
X207989337Y-115787952D01*
X207969185Y-115787952D01*
X207971550Y-115772373D01*
X207975100Y-115766303D01*
X208179280Y-115766303D01*
X208184887Y-115785140D01*
X208189165Y-115788224D01*
X208195105Y-115792506D01*
X208204570Y-115782690D01*
X208208735Y-115757111D01*
X208207728Y-115733134D01*
X208203067Y-115725432D01*
X208192438Y-115731628D01*
X208184055Y-115742462D01*
X208179280Y-115766303D01*
X207975100Y-115766303D01*
X207977157Y-115762785D01*
X207977288Y-115762783D01*
X207984634Y-115753379D01*
X207987683Y-115731207D01*
X207988719Y-115717232D01*
X207995188Y-115701658D01*
X208003931Y-115703190D01*
X208010635Y-115723312D01*
X208011390Y-115726337D01*
X208012889Y-115718757D01*
X208014090Y-115694936D01*
X208014785Y-115658137D01*
X208016437Y-115611353D01*
X208020876Y-115578240D01*
X208027943Y-115565155D01*
X208034555Y-115559903D01*
X208040314Y-115541477D01*
X208041709Y-115530364D01*
X208049647Y-115516155D01*
X208051017Y-115514979D01*
X208059114Y-115498740D01*
X208066157Y-115472132D01*
X208066821Y-115468715D01*
X208074438Y-115438482D01*
X208082630Y-115416753D01*
X208085001Y-115412172D01*
X208096382Y-115387957D01*
X208109687Y-115357522D01*
X208128703Y-115312702D01*
X208149628Y-115265128D01*
X208165869Y-115232092D01*
X208179332Y-115210714D01*
X208191925Y-115198114D01*
X208205554Y-115191413D01*
X208222127Y-115187731D01*
X208228786Y-115186501D01*
X208254284Y-115179456D01*
X208267485Y-115171929D01*
X208275937Y-115166987D01*
X208299605Y-115163396D01*
X208329440Y-115163512D01*
X208356987Y-115167159D01*
X208373794Y-115174160D01*
X208384871Y-115179045D01*
X208413611Y-115183434D01*
X208452954Y-115185484D01*
X208497019Y-115185260D01*
X208539926Y-115182830D01*
X208575794Y-115178260D01*
X208598742Y-115171616D01*
X208600354Y-115170638D01*
X208617077Y-115157087D01*
X208646004Y-115130945D01*
X208684989Y-115094250D01*
X208731887Y-115049045D01*
X208784555Y-114997369D01*
X208840847Y-114941264D01*
X208891845Y-114889929D01*
X208957735Y-114823086D01*
X209013426Y-114765758D01*
X209061857Y-114714843D01*
X209105962Y-114667243D01*
X209148680Y-114619858D01*
X209192946Y-114569587D01*
X209203221Y-114557393D01*
X209231116Y-114520207D01*
X209253596Y-114484625D01*
X209266169Y-114457522D01*
X209266828Y-114455454D01*
X209279270Y-114428273D01*
X209299278Y-114393556D01*
X209321864Y-114359422D01*
X209342041Y-114333991D01*
X209348404Y-114324963D01*
X209360234Y-114294022D01*
X209367908Y-114255199D01*
X209369992Y-114217477D01*
X209365052Y-114189841D01*
X209360504Y-114180869D01*
X209351790Y-114171545D01*
X209336699Y-114166590D01*
X209310343Y-114164743D01*
X209267831Y-114164741D01*
X209257000Y-114164929D01*
X209216660Y-114167139D01*
X209185280Y-114171159D01*
X209168903Y-114176285D01*
X209156011Y-114181215D01*
X209130286Y-114173578D01*
X209122562Y-114169871D01*
X209106037Y-114165539D01*
X209083998Y-114165546D01*
X209051468Y-114170126D01*
X209003472Y-114179510D01*
X209000340Y-114180128D01*
X208966502Y-114184942D01*
X208929788Y-114187950D01*
X208926873Y-114188109D01*
X208886326Y-114193746D01*
X208847217Y-114203782D01*
X208820568Y-114210389D01*
X208780261Y-114212819D01*
X208726164Y-114209044D01*
X208720570Y-114208454D01*
X208679240Y-114204779D01*
X208644908Y-114202820D01*
X208624525Y-114202991D01*
X208609284Y-114202655D01*
X208582420Y-114195054D01*
X208579918Y-114193987D01*
X208556349Y-114188432D01*
X208519834Y-114183482D01*
X208477157Y-114180099D01*
X208452796Y-114178559D01*
X208397736Y-114173270D01*
X208347087Y-114166137D01*
X208304999Y-114157916D01*
X208275627Y-114149361D01*
X208263121Y-114141226D01*
X208253524Y-114136488D01*
X208228206Y-114132671D01*
X208193272Y-114131207D01*
X208167314Y-114130247D01*
X208126038Y-114124703D01*
X208096781Y-114115482D01*
X208068146Y-114104685D01*
X208035051Y-114099017D01*
X208027956Y-114098759D01*
X207979495Y-114093110D01*
X207929621Y-114081834D01*
X207883935Y-114066733D01*
X207848038Y-114049608D01*
X207827533Y-114032262D01*
X207821467Y-114028186D01*
X207798627Y-114022743D01*
X207766548Y-114020559D01*
X207756011Y-114020353D01*
X207721450Y-114015832D01*
X207704143Y-114005976D01*
X207694257Y-113997965D01*
X207667760Y-113998403D01*
X207667324Y-113998512D01*
X207646490Y-114000293D01*
X207640314Y-113990428D01*
X207639770Y-113984593D01*
X207634898Y-113976481D01*
X207622221Y-113970047D01*
X207598455Y-113964345D01*
X207560313Y-113958431D01*
X207504509Y-113951359D01*
X207472651Y-113947087D01*
X207434228Y-113940604D01*
X207407947Y-113934467D01*
X207398209Y-113929578D01*
X207396415Y-113925479D01*
X207382350Y-113920680D01*
X207381932Y-113920672D01*
X207364191Y-113912832D01*
X207343922Y-113894723D01*
X207342294Y-113892893D01*
X207324471Y-113877635D01*
X207311951Y-113874577D01*
X207304252Y-113875647D01*
X207287075Y-113867544D01*
X207264217Y-113859739D01*
X207225713Y-113860990D01*
X207202808Y-113863317D01*
X207181797Y-113860692D01*
X207161679Y-113849120D01*
X207134635Y-113825559D01*
X207114083Y-113808209D01*
X207088045Y-113790643D01*
X207070142Y-113783838D01*
X207055780Y-113786887D01*
X207052531Y-113799398D01*
X207067382Y-113819928D01*
X207075524Y-113830535D01*
X207073397Y-113836470D01*
X207063230Y-113832763D01*
X207045374Y-113818973D01*
X207042684Y-113816343D01*
X207028877Y-113807640D01*
X207019280Y-113815387D01*
X207014906Y-113830490D01*
X207018678Y-113849035D01*
X207030205Y-113857522D01*
X207036559Y-113861508D01*
X207045531Y-113878428D01*
X207047217Y-113882666D01*
X207061623Y-113905422D01*
X207083082Y-113930250D01*
X207099896Y-113948403D01*
X207112003Y-113969146D01*
X207106485Y-113982368D01*
X207083352Y-113990494D01*
X207061143Y-113999649D01*
X207047674Y-114015865D01*
X207040362Y-114028179D01*
X207020803Y-114029396D01*
X207006184Y-114028779D01*
X206982797Y-114039852D01*
X206978589Y-114044701D01*
X206968405Y-114067149D01*
X206968201Y-114089089D01*
X206978566Y-114101852D01*
X206982977Y-114108254D01*
X206972274Y-114124059D01*
X206962045Y-114135713D01*
X206960238Y-114148768D01*
X206971302Y-114168623D01*
X206981504Y-114190064D01*
X206982051Y-114205487D01*
X206981627Y-114206541D01*
X206983105Y-114223281D01*
X206990971Y-114252948D01*
X207003769Y-114289878D01*
X207005356Y-114294086D01*
X207018004Y-114332522D01*
X207025623Y-114364802D01*
X207026613Y-114384316D01*
X207025039Y-114396497D01*
X207029481Y-114404891D01*
X207031533Y-114406542D01*
X207034278Y-114422400D01*
X207033293Y-114449628D01*
X207032606Y-114463564D01*
X207035134Y-114505645D01*
X207042544Y-114546996D01*
X207044968Y-114556073D01*
X207054247Y-114583202D01*
X207064338Y-114595174D01*
X207078556Y-114596554D01*
X207086243Y-114596569D01*
X207102698Y-114604677D01*
X207109969Y-114618719D01*
X207103013Y-114631491D01*
X207093706Y-114647071D01*
X207096279Y-114669953D01*
X207110179Y-114690299D01*
X207117476Y-114695712D01*
X207129710Y-114696791D01*
X207143042Y-114681062D01*
X207155824Y-114665374D01*
X207167914Y-114657522D01*
X207171843Y-114658231D01*
X207177277Y-114668552D01*
X207172286Y-114684733D01*
X207158735Y-114698449D01*
X207146914Y-114708968D01*
X207152796Y-114721453D01*
X207152800Y-114721458D01*
X207166269Y-114727830D01*
X207182495Y-114716846D01*
X207195924Y-114706607D01*
X207215877Y-114699628D01*
X207223660Y-114697669D01*
X207226439Y-114685029D01*
X207226336Y-114675630D01*
X207240974Y-114675697D01*
X207253401Y-114676275D01*
X207267629Y-114663980D01*
X207278460Y-114652786D01*
X207303738Y-114646996D01*
X207329376Y-114645332D01*
X207356914Y-114636414D01*
X207366630Y-114620680D01*
X207368441Y-114613709D01*
X207382420Y-114601084D01*
X207394268Y-114601865D01*
X207398209Y-114619722D01*
X207395072Y-114637056D01*
X207382420Y-114657522D01*
X207374056Y-114666679D01*
X207366630Y-114685127D01*
X207365727Y-114691186D01*
X207356813Y-114699628D01*
X207348998Y-114704943D01*
X207339705Y-114723312D01*
X207335340Y-114731673D01*
X207317529Y-114754867D01*
X207289365Y-114786546D01*
X207253925Y-114823716D01*
X207214290Y-114863382D01*
X207173539Y-114902551D01*
X207134751Y-114938228D01*
X207101005Y-114967419D01*
X207075380Y-114987129D01*
X207060957Y-114994364D01*
X207055213Y-114996207D01*
X207044121Y-115010154D01*
X207039649Y-115017453D01*
X207023399Y-115025943D01*
X207017208Y-115026758D01*
X207008735Y-115034604D01*
X207005285Y-115039643D01*
X206987814Y-115052825D01*
X206960538Y-115068814D01*
X206944742Y-115077193D01*
X206910719Y-115095270D01*
X206884749Y-115109106D01*
X206856215Y-115121702D01*
X206822420Y-115132790D01*
X206820953Y-115133168D01*
X206785277Y-115142387D01*
X206748209Y-115152008D01*
X206738811Y-115154170D01*
X206699254Y-115160051D01*
X206658735Y-115162534D01*
X206649538Y-115162527D01*
X206623331Y-115160728D01*
X206611500Y-115154402D01*
X206608735Y-115141293D01*
X206614444Y-115120607D01*
X206630195Y-115096765D01*
X206645924Y-115075477D01*
X206657652Y-115049837D01*
X206663530Y-115034803D01*
X206673035Y-115025943D01*
X206677618Y-115023785D01*
X206682420Y-115009113D01*
X206682430Y-115008455D01*
X206686767Y-114986857D01*
X206696611Y-114959113D01*
X206703160Y-114943239D01*
X206718755Y-114901290D01*
X206732371Y-114859524D01*
X206741999Y-114824371D01*
X206745630Y-114802259D01*
X206747203Y-114792523D01*
X206756104Y-114783838D01*
X206761304Y-114781603D01*
X206766630Y-114766830D01*
X206767468Y-114759348D01*
X206773588Y-114732701D01*
X206783992Y-114696253D01*
X206796708Y-114656686D01*
X206809765Y-114620680D01*
X206810065Y-114619905D01*
X206817871Y-114594304D01*
X206825127Y-114562785D01*
X206825793Y-114559452D01*
X206832977Y-114532280D01*
X206840346Y-114515417D01*
X206842691Y-114511507D01*
X206847636Y-114496632D01*
X206852797Y-114470832D01*
X206858564Y-114431594D01*
X206865330Y-114376404D01*
X206873486Y-114302751D01*
X206878420Y-114244708D01*
X206879297Y-114178804D01*
X206873662Y-114118540D01*
X206870743Y-114098994D01*
X206861276Y-114039545D01*
X206853522Y-113998403D01*
X206847055Y-113973505D01*
X206841447Y-113962785D01*
X206836188Y-113953040D01*
X206826657Y-113928150D01*
X206815552Y-113894364D01*
X206806288Y-113865410D01*
X206792677Y-113826004D01*
X206781386Y-113796639D01*
X206780570Y-113794696D01*
X206770698Y-113765136D01*
X206766630Y-113741376D01*
X206765627Y-113735181D01*
X206987683Y-113735181D01*
X206989821Y-113743736D01*
X207003472Y-113752259D01*
X207010665Y-113751820D01*
X207019262Y-113748285D01*
X207016555Y-113743820D01*
X207003472Y-113731207D01*
X207001942Y-113729952D01*
X206990451Y-113724011D01*
X206987683Y-113735181D01*
X206765627Y-113735181D01*
X206764705Y-113729481D01*
X206756104Y-113720680D01*
X206749474Y-113715490D01*
X206745243Y-113696996D01*
X206742065Y-113679114D01*
X206729453Y-113652879D01*
X206720153Y-113636723D01*
X206713999Y-113613405D01*
X206712444Y-113603094D01*
X206704309Y-113594364D01*
X206704119Y-113594358D01*
X206695321Y-113584884D01*
X206687683Y-113562785D01*
X206687546Y-113562171D01*
X206679831Y-113540281D01*
X206671057Y-113531207D01*
X206665664Y-113527839D01*
X206661367Y-113511439D01*
X206661145Y-113506495D01*
X206657752Y-113488526D01*
X206649441Y-113462677D01*
X206635152Y-113426179D01*
X206613828Y-113376261D01*
X206584409Y-113310154D01*
X206574100Y-113286841D01*
X206554834Y-113241677D01*
X206538804Y-113202299D01*
X206531193Y-113184086D01*
X206519707Y-113161243D01*
X206512203Y-113152299D01*
X206511578Y-113152172D01*
X206504629Y-113141236D01*
X206497723Y-113118049D01*
X206497277Y-113116044D01*
X206489956Y-113091585D01*
X206482696Y-113078575D01*
X206479621Y-113074129D01*
X206469786Y-113053329D01*
X206455991Y-113019937D01*
X206440201Y-112978575D01*
X206431320Y-112954892D01*
X206416074Y-112916243D01*
X206403782Y-112887584D01*
X206396496Y-112873838D01*
X206392220Y-112866591D01*
X206387683Y-112844891D01*
X206386156Y-112834669D01*
X206378082Y-112825943D01*
X206375708Y-112824834D01*
X206367930Y-112810146D01*
X206361367Y-112783838D01*
X206359494Y-112774249D01*
X206352221Y-112751024D01*
X206344652Y-112741733D01*
X206338340Y-112735204D01*
X206335051Y-112715417D01*
X206332438Y-112698109D01*
X206324525Y-112689101D01*
X206321409Y-112688581D01*
X206313999Y-112677534D01*
X206313867Y-112675747D01*
X206308660Y-112656776D01*
X206298209Y-112630166D01*
X206292686Y-112617606D01*
X206269751Y-112564194D01*
X206251606Y-112519062D01*
X206234645Y-112473312D01*
X206227143Y-112453388D01*
X206215352Y-112425747D01*
X206206996Y-112410680D01*
X206202733Y-112403434D01*
X206198209Y-112381733D01*
X206196682Y-112371511D01*
X206188608Y-112362785D01*
X206186234Y-112361677D01*
X206178457Y-112346988D01*
X206171893Y-112320680D01*
X206170020Y-112311091D01*
X206162747Y-112287866D01*
X206155179Y-112278575D01*
X206149790Y-112275102D01*
X206145578Y-112258567D01*
X206144913Y-112253726D01*
X206137176Y-112230180D01*
X206122592Y-112195808D01*
X206103472Y-112156226D01*
X206095937Y-112141189D01*
X206078265Y-112103188D01*
X206065975Y-112072678D01*
X206061367Y-112055182D01*
X206059724Y-112045173D01*
X206050841Y-112036470D01*
X206044251Y-112031178D01*
X206040314Y-112012597D01*
X206039865Y-112007425D01*
X206031340Y-111981075D01*
X206015411Y-111952071D01*
X206011932Y-111946734D01*
X205994155Y-111912890D01*
X205982995Y-111881207D01*
X205982337Y-111878359D01*
X205974366Y-111856116D01*
X205965794Y-111846996D01*
X205961016Y-111844772D01*
X205956104Y-111829999D01*
X205954558Y-111821075D01*
X205945583Y-111795463D01*
X205931268Y-111764210D01*
X205922979Y-111747708D01*
X205906702Y-111714165D01*
X205895258Y-111689101D01*
X205889633Y-111676354D01*
X205875702Y-111645745D01*
X205856970Y-111605178D01*
X205835883Y-111559972D01*
X205820220Y-111525998D01*
X205803392Y-111487947D01*
X205791922Y-111460088D01*
X205787683Y-111446814D01*
X205787378Y-111444347D01*
X205777157Y-111436470D01*
X205773290Y-111435547D01*
X205766630Y-111423337D01*
X205766444Y-111421854D01*
X205760327Y-111404615D01*
X205747434Y-111375042D01*
X205730318Y-111338384D01*
X205711532Y-111299894D01*
X205693629Y-111264823D01*
X205679161Y-111238422D01*
X205670681Y-111225943D01*
X205664641Y-111216136D01*
X205656686Y-111194364D01*
X205655283Y-111189673D01*
X205644776Y-111160345D01*
X205631502Y-111128934D01*
X205618724Y-111102749D01*
X205609705Y-111089101D01*
X205602442Y-111078198D01*
X205588914Y-111053531D01*
X205572239Y-111020680D01*
X205556146Y-110988751D01*
X205542743Y-110963755D01*
X205535504Y-110952251D01*
X205534269Y-110950990D01*
X205522590Y-110933269D01*
X205508965Y-110906687D01*
X205497662Y-110880212D01*
X205492946Y-110862810D01*
X205492384Y-110857364D01*
X205485051Y-110845242D01*
X205479467Y-110838145D01*
X205466044Y-110815424D01*
X205447501Y-110781050D01*
X205426076Y-110739055D01*
X205408643Y-110704757D01*
X205388981Y-110667983D01*
X205373844Y-110641859D01*
X205365550Y-110630539D01*
X205359570Y-110621002D01*
X205356104Y-110599006D01*
X205354142Y-110582314D01*
X205347971Y-110573312D01*
X205345290Y-110572065D01*
X205333606Y-110558173D01*
X205319049Y-110533838D01*
X205314686Y-110525772D01*
X205298253Y-110498394D01*
X205285077Y-110480455D01*
X205278385Y-110472077D01*
X205271893Y-110457093D01*
X205269947Y-110451255D01*
X205259385Y-110429816D01*
X205241707Y-110397444D01*
X205219262Y-110358535D01*
X205204915Y-110334002D01*
X205185197Y-110299331D01*
X205171660Y-110274267D01*
X205166630Y-110263031D01*
X205164555Y-110256868D01*
X205152297Y-110239654D01*
X205127157Y-110210540D01*
X205120285Y-110201580D01*
X205113999Y-110187114D01*
X205113930Y-110186378D01*
X205106264Y-110172347D01*
X205089776Y-110152152D01*
X205087855Y-110150031D01*
X205065502Y-110121267D01*
X205045039Y-110089294D01*
X205041586Y-110083212D01*
X205025794Y-110057230D01*
X205013999Y-110040460D01*
X205013549Y-110039935D01*
X204999950Y-110022573D01*
X204982420Y-109998619D01*
X204982336Y-109998501D01*
X204962865Y-109972739D01*
X204945578Y-109952369D01*
X204945301Y-109952078D01*
X204914376Y-109914488D01*
X204883144Y-109868718D01*
X204859238Y-109825943D01*
X204837476Y-109778418D01*
X204818577Y-109732249D01*
X204809463Y-109701325D01*
X204809678Y-109683986D01*
X204818767Y-109678575D01*
X204830492Y-109680466D01*
X204853611Y-109689909D01*
X204873785Y-109702977D01*
X204882420Y-109714783D01*
X204887871Y-109726209D01*
X204904885Y-109742041D01*
X204921303Y-109754525D01*
X204939095Y-109771045D01*
X204944696Y-109777477D01*
X204962244Y-109797487D01*
X204967072Y-109804609D01*
X204973648Y-109827879D01*
X204978156Y-109841440D01*
X204992213Y-109865026D01*
X205010961Y-109890447D01*
X205029378Y-109910984D01*
X205042444Y-109919920D01*
X205042934Y-109920037D01*
X205055470Y-109929028D01*
X205080307Y-109950731D01*
X205115264Y-109982995D01*
X205158164Y-110023671D01*
X205206829Y-110070607D01*
X205259080Y-110121652D01*
X205312739Y-110174656D01*
X205365627Y-110227468D01*
X205415565Y-110277937D01*
X205460376Y-110323914D01*
X205497881Y-110363246D01*
X205525902Y-110393783D01*
X205542260Y-110413376D01*
X205550157Y-110424008D01*
X205569070Y-110448215D01*
X205581819Y-110462785D01*
X205585764Y-110466917D01*
X205601815Y-110486110D01*
X205621734Y-110511874D01*
X205629347Y-110521952D01*
X205649478Y-110547592D01*
X205663839Y-110564506D01*
X205664497Y-110565215D01*
X205677964Y-110581533D01*
X205699167Y-110608879D01*
X205723821Y-110641733D01*
X205727200Y-110646298D01*
X205750096Y-110676829D01*
X205767727Y-110699664D01*
X205776512Y-110710154D01*
X205778997Y-110712751D01*
X205791982Y-110728553D01*
X205810249Y-110752259D01*
X205814048Y-110757266D01*
X205840359Y-110790497D01*
X205865705Y-110820680D01*
X205869346Y-110824967D01*
X205890197Y-110852130D01*
X205916279Y-110888894D01*
X205942813Y-110928575D01*
X205952221Y-110942892D01*
X205974275Y-110974607D01*
X205991384Y-110996638D01*
X206000456Y-111004891D01*
X206004249Y-111006656D01*
X206008735Y-111020680D01*
X206009840Y-111027933D01*
X206018552Y-111036470D01*
X206025160Y-111039905D01*
X206034634Y-111056209D01*
X206038402Y-111064221D01*
X206054614Y-111087479D01*
X206077449Y-111113582D01*
X206090117Y-111127032D01*
X206107273Y-111147060D01*
X206113999Y-111157752D01*
X206115892Y-111163098D01*
X206127157Y-111178037D01*
X206139046Y-111192112D01*
X206156104Y-111215579D01*
X206170951Y-111235860D01*
X206192946Y-111261955D01*
X206196119Y-111265534D01*
X206215657Y-111292342D01*
X206234077Y-111323661D01*
X206239129Y-111333040D01*
X206252900Y-111354298D01*
X206262315Y-111362785D01*
X206267879Y-111366053D01*
X206276606Y-111382105D01*
X206281002Y-111391312D01*
X206297242Y-111415290D01*
X206319701Y-111442631D01*
X206332524Y-111457918D01*
X206352326Y-111486076D01*
X206362788Y-111507522D01*
X206368710Y-111522363D01*
X206378298Y-111531207D01*
X206380334Y-111531450D01*
X206387683Y-111541425D01*
X206389323Y-111546985D01*
X206399992Y-111567099D01*
X206417007Y-111594348D01*
X206436155Y-111622417D01*
X206453224Y-111644995D01*
X206463999Y-111655768D01*
X206467177Y-111658450D01*
X206471893Y-111674189D01*
X206472915Y-111680636D01*
X206482219Y-111689101D01*
X206490697Y-111695702D01*
X206499150Y-111715417D01*
X206505873Y-111732812D01*
X206515140Y-111741733D01*
X206517728Y-111742170D01*
X206524525Y-111752961D01*
X206526295Y-111758530D01*
X206537138Y-111778029D01*
X206553984Y-111803759D01*
X206572317Y-111828991D01*
X206587623Y-111846996D01*
X206591781Y-111853063D01*
X206603674Y-111873780D01*
X206619262Y-111902954D01*
X206629515Y-111921758D01*
X206648365Y-111952574D01*
X206663573Y-111973110D01*
X206676033Y-111990764D01*
X206688398Y-112019783D01*
X206695429Y-112038054D01*
X206704613Y-112046996D01*
X206706581Y-112047221D01*
X206713999Y-112057099D01*
X206714099Y-112057959D01*
X206720718Y-112073155D01*
X206735643Y-112100045D01*
X206756004Y-112133415D01*
X206758670Y-112137644D01*
X206778606Y-112171096D01*
X206792722Y-112197971D01*
X206798109Y-112212785D01*
X206798887Y-112217623D01*
X206808735Y-112225943D01*
X206813332Y-112227462D01*
X206819262Y-112240981D01*
X206820940Y-112250071D01*
X206832445Y-112269928D01*
X206835457Y-112273452D01*
X206850151Y-112294986D01*
X206866418Y-112323312D01*
X206871851Y-112333141D01*
X206885877Y-112354337D01*
X206895340Y-112362785D01*
X206897288Y-112363096D01*
X206903472Y-112373426D01*
X206908628Y-112385963D01*
X206922791Y-112412496D01*
X206943784Y-112449092D01*
X206969434Y-112491847D01*
X206993707Y-112531991D01*
X207020395Y-112577225D01*
X207042311Y-112615534D01*
X207056276Y-112641445D01*
X207060841Y-112650252D01*
X207079235Y-112681381D01*
X207095985Y-112704394D01*
X207108965Y-112722686D01*
X207120810Y-112749418D01*
X207126534Y-112764461D01*
X207135483Y-112773312D01*
X207141287Y-112776519D01*
X207150252Y-112792509D01*
X207158040Y-112809006D01*
X207174645Y-112832557D01*
X207180692Y-112839622D01*
X207198965Y-112863958D01*
X207218021Y-112895042D01*
X207241784Y-112939101D01*
X207249846Y-112953662D01*
X207264250Y-112975318D01*
X207273759Y-112983838D01*
X207277729Y-112985606D01*
X207282420Y-112999628D01*
X207283607Y-113006891D01*
X207292946Y-113015417D01*
X207297543Y-113016936D01*
X207303472Y-113030455D01*
X207305576Y-113040359D01*
X207317873Y-113059893D01*
X207327347Y-113072178D01*
X207339635Y-113097487D01*
X207346371Y-113111933D01*
X207356813Y-113120680D01*
X207361323Y-113122456D01*
X207366630Y-113136470D01*
X207367684Y-113143717D01*
X207376015Y-113152259D01*
X207383878Y-113158870D01*
X207392005Y-113178575D01*
X207398959Y-113195959D01*
X207408936Y-113204891D01*
X207413684Y-113206670D01*
X207419262Y-113220680D01*
X207420170Y-113227911D01*
X207427394Y-113236470D01*
X207429491Y-113237258D01*
X207440950Y-113249978D01*
X207455368Y-113273312D01*
X207459610Y-113280842D01*
X207473933Y-113301754D01*
X207484077Y-113310154D01*
X207487798Y-113311507D01*
X207492946Y-113324733D01*
X207492973Y-113325387D01*
X207501872Y-113341067D01*
X207521893Y-113358218D01*
X207550396Y-113379484D01*
X207578401Y-113404166D01*
X207595647Y-113420559D01*
X207631187Y-113450906D01*
X207660398Y-113471187D01*
X207679441Y-113478575D01*
X207684565Y-113479214D01*
X207692946Y-113487075D01*
X207695674Y-113491586D01*
X207714989Y-113503394D01*
X207750405Y-113518482D01*
X207799049Y-113535786D01*
X207858046Y-113554244D01*
X207924525Y-113572792D01*
X207935513Y-113575709D01*
X207972976Y-113585928D01*
X208003472Y-113594600D01*
X208022831Y-113597741D01*
X208059734Y-113600300D01*
X208107135Y-113601559D01*
X208159431Y-113601280D01*
X208207336Y-113600906D01*
X208248385Y-113601853D01*
X208277048Y-113603955D01*
X208288999Y-113607021D01*
X208298170Y-113612350D01*
X208319883Y-113615417D01*
X208324765Y-113615294D01*
X208341343Y-113608968D01*
X208345578Y-113588678D01*
X208345590Y-113587827D01*
X208352394Y-113566491D01*
X208372993Y-113538683D01*
X208409272Y-113501836D01*
X208416235Y-113495171D01*
X208447672Y-113462794D01*
X208473333Y-113432880D01*
X208488219Y-113411168D01*
X208493219Y-113396389D01*
X208498805Y-113364014D01*
X208502308Y-113323819D01*
X208503603Y-113281544D01*
X208502559Y-113242928D01*
X208499050Y-113213709D01*
X208492946Y-113199628D01*
X208486156Y-113189084D01*
X208482420Y-113166387D01*
X208478270Y-113137988D01*
X208468110Y-113106482D01*
X208461705Y-113091565D01*
X208445272Y-113051785D01*
X208435594Y-113024379D01*
X208431034Y-113004168D01*
X208429949Y-112985974D01*
X208430287Y-112975902D01*
X208437993Y-112946366D01*
X208458188Y-112931955D01*
X208493967Y-112929959D01*
X208512970Y-112937049D01*
X208536072Y-112952897D01*
X208558318Y-112971950D01*
X208582420Y-112992547D01*
X208590167Y-112998966D01*
X208615953Y-113019332D01*
X208645578Y-113041847D01*
X208659561Y-113052626D01*
X208683089Y-113072640D01*
X208696101Y-113086407D01*
X208700735Y-113091682D01*
X208719785Y-113099628D01*
X208726552Y-113100651D01*
X208735051Y-113109445D01*
X208737911Y-113115599D01*
X208753472Y-113125171D01*
X208764758Y-113130092D01*
X208782872Y-113141771D01*
X208809327Y-113162239D01*
X208847765Y-113194158D01*
X208854208Y-113198715D01*
X208871449Y-113204891D01*
X208874344Y-113205258D01*
X208882420Y-113215216D01*
X208890441Y-113224296D01*
X208911367Y-113232627D01*
X208932438Y-113239118D01*
X208945578Y-113245985D01*
X208961818Y-113259128D01*
X208987325Y-113274435D01*
X209011367Y-113285371D01*
X209014246Y-113286397D01*
X209028311Y-113296819D01*
X209022160Y-113310211D01*
X208995578Y-113327142D01*
X208983227Y-113333723D01*
X208959177Y-113351261D01*
X208948352Y-113372935D01*
X208945739Y-113406750D01*
X208945585Y-113413890D01*
X208940577Y-113439413D01*
X208927157Y-113449926D01*
X208925229Y-113450654D01*
X208932933Y-113451834D01*
X208956711Y-113451817D01*
X208992946Y-113450568D01*
X209043533Y-113445845D01*
X209101253Y-113436411D01*
X209150841Y-113424499D01*
X209195971Y-113409693D01*
X209242022Y-113392303D01*
X209281522Y-113375181D01*
X209309947Y-113360299D01*
X209322771Y-113349628D01*
X209330364Y-113344701D01*
X209350841Y-113341733D01*
X209366943Y-113339875D01*
X209378911Y-113333294D01*
X209381084Y-113330971D01*
X209397964Y-113320099D01*
X209427523Y-113304024D01*
X209465158Y-113285306D01*
X209493022Y-113271240D01*
X209544473Y-113240343D01*
X209582821Y-113210026D01*
X209605765Y-113182283D01*
X209611003Y-113159102D01*
X209611331Y-113151011D01*
X209623488Y-113129134D01*
X209646948Y-113105600D01*
X209676320Y-113085282D01*
X209706212Y-113073052D01*
X209728572Y-113065448D01*
X209748317Y-113053530D01*
X209756510Y-113046473D01*
X209779596Y-113028813D01*
X209808735Y-113008017D01*
X209826044Y-112995711D01*
X209856993Y-112972174D01*
X209879348Y-112953254D01*
X209881770Y-112951001D01*
X209908976Y-112933836D01*
X209933868Y-112936503D01*
X209960213Y-112959285D01*
X209965211Y-112964866D01*
X209985454Y-112980141D01*
X210004445Y-112979112D01*
X210015480Y-112972559D01*
X210011367Y-112965946D01*
X210010324Y-112965522D01*
X209999590Y-112953379D01*
X210000399Y-112938480D01*
X210012431Y-112931206D01*
X210021107Y-112929365D01*
X210045518Y-112919830D01*
X210076146Y-112904891D01*
X210095307Y-112895213D01*
X210122743Y-112883248D01*
X210139254Y-112878575D01*
X210143206Y-112878258D01*
X210164827Y-112871694D01*
X210189889Y-112859748D01*
X210210624Y-112846536D01*
X210219262Y-112836176D01*
X210219908Y-112834377D01*
X210233270Y-112826454D01*
X210258471Y-112819542D01*
X210289675Y-112811225D01*
X210313927Y-112794874D01*
X210333759Y-112765200D01*
X210345302Y-112750110D01*
X210361028Y-112741733D01*
X210371915Y-112736465D01*
X210383216Y-112718049D01*
X210391314Y-112700948D01*
X210410241Y-112677340D01*
X210422554Y-112663936D01*
X210429788Y-112648393D01*
X210430726Y-112643975D01*
X210442946Y-112636367D01*
X210443827Y-112636324D01*
X210454044Y-112632788D01*
X210471117Y-112622406D01*
X210497370Y-112603515D01*
X210522633Y-112584072D01*
X213718360Y-112584072D01*
X213720904Y-112618049D01*
X213722201Y-112625299D01*
X213728622Y-112648265D01*
X213735270Y-112657522D01*
X213742049Y-112653967D01*
X213750761Y-112635371D01*
X213755547Y-112606901D01*
X213755501Y-112575436D01*
X213749715Y-112547857D01*
X213746976Y-112541583D01*
X213736933Y-112531055D01*
X213727840Y-112537006D01*
X213721161Y-112555869D01*
X213718360Y-112584072D01*
X210522633Y-112584072D01*
X210535130Y-112574454D01*
X210586720Y-112533559D01*
X210593104Y-112528429D01*
X210622404Y-112504327D01*
X210623804Y-112503131D01*
X213726385Y-112503131D01*
X213726895Y-112512788D01*
X213739543Y-112520680D01*
X213749417Y-112516846D01*
X213756104Y-112498750D01*
X213755523Y-112492454D01*
X213747338Y-112481665D01*
X213735175Y-112485585D01*
X213726385Y-112503131D01*
X210623804Y-112503131D01*
X210646393Y-112483838D01*
X210660588Y-112471429D01*
X210688658Y-112447204D01*
X210719678Y-112420680D01*
X210742460Y-112401172D01*
X210769480Y-112377706D01*
X210787125Y-112361981D01*
X210800546Y-112351293D01*
X210822698Y-112338627D01*
X210831832Y-112333539D01*
X210840314Y-112321011D01*
X210840928Y-112317584D01*
X210852265Y-112310154D01*
X210860955Y-112307337D01*
X210878705Y-112292957D01*
X210904556Y-112264746D01*
X210940314Y-112220872D01*
X210949394Y-112209510D01*
X210972497Y-112181584D01*
X210990314Y-112161308D01*
X211002157Y-112146244D01*
X211008735Y-112131207D01*
X211009041Y-112128690D01*
X211019262Y-112120680D01*
X211024104Y-112118899D01*
X211029788Y-112104891D01*
X211031622Y-112097527D01*
X211045578Y-112089101D01*
X211052835Y-112087963D01*
X211061367Y-112078997D01*
X211062598Y-112076202D01*
X211077313Y-112066307D01*
X211103324Y-112056323D01*
X211106305Y-112055383D01*
X211139732Y-112038669D01*
X211163150Y-112016427D01*
X211173047Y-112001935D01*
X211198072Y-111972681D01*
X211217209Y-111962785D01*
X211225804Y-111958711D01*
X211246154Y-111943423D01*
X211271893Y-111920680D01*
X211292121Y-111902938D01*
X211316153Y-111885373D01*
X211331420Y-111878575D01*
X211338957Y-111876777D01*
X211352297Y-111862785D01*
X211356695Y-111855472D01*
X211372256Y-111846996D01*
X211386925Y-111840591D01*
X211405340Y-111823312D01*
X211412931Y-111815092D01*
X211438628Y-111792701D01*
X211469262Y-111770531D01*
X211484970Y-111759478D01*
X211505828Y-111741185D01*
X211513999Y-111728364D01*
X211514049Y-111727600D01*
X211523877Y-111714517D01*
X211545578Y-111701315D01*
X211567408Y-111686906D01*
X211577157Y-111666941D01*
X211583434Y-111650638D01*
X211603472Y-111634554D01*
X211621294Y-111624085D01*
X211629788Y-111613727D01*
X211634970Y-111608155D01*
X211653472Y-111604562D01*
X211661310Y-111603534D01*
X211688656Y-111594176D01*
X211719262Y-111578300D01*
X211731336Y-111571397D01*
X211761949Y-111557759D01*
X211785373Y-111552313D01*
X211790150Y-111551811D01*
X211815035Y-111539709D01*
X211842371Y-111514683D01*
X211850699Y-111505716D01*
X211880435Y-111478788D01*
X211908370Y-111459420D01*
X211939238Y-111442467D01*
X211998710Y-111406304D01*
X212044501Y-111372428D01*
X212047523Y-111369951D01*
X212078738Y-111347251D01*
X212105455Y-111331207D01*
X214428805Y-111331207D01*
X214480459Y-111331207D01*
X214516164Y-111327178D01*
X214572719Y-111304474D01*
X214625877Y-111262937D01*
X214633154Y-111252183D01*
X214639453Y-111231551D01*
X214639535Y-111213015D01*
X214632420Y-111205225D01*
X214629887Y-111205601D01*
X214612643Y-111214676D01*
X214595473Y-111229903D01*
X214587683Y-111243354D01*
X214581396Y-111249111D01*
X214559438Y-111257987D01*
X214527157Y-111266749D01*
X214516839Y-111269210D01*
X214473457Y-111284874D01*
X214447718Y-111305762D01*
X214428805Y-111331207D01*
X212105455Y-111331207D01*
X212108735Y-111329237D01*
X212109338Y-111328932D01*
X212135156Y-111315937D01*
X212171822Y-111297567D01*
X212211605Y-111277696D01*
X212246202Y-111259796D01*
X212295492Y-111230353D01*
X212324680Y-111205816D01*
X212333881Y-111185697D01*
X212323210Y-111169512D01*
X212292783Y-111156773D01*
X212242716Y-111146996D01*
X212240101Y-111146622D01*
X212202639Y-111140324D01*
X212174077Y-111133861D01*
X212160417Y-111128575D01*
X212154542Y-111124515D01*
X212128554Y-111119475D01*
X212093472Y-111122304D01*
X212056464Y-111131999D01*
X212024698Y-111147558D01*
X211998276Y-111162171D01*
X211973865Y-111170358D01*
X211956079Y-111171617D01*
X211949226Y-111165651D01*
X211957612Y-111152165D01*
X211966141Y-111140460D01*
X211969334Y-111123530D01*
X211968608Y-111122010D01*
X211958421Y-111122635D01*
X211940437Y-111139413D01*
X211936552Y-111143710D01*
X211918859Y-111158121D01*
X211907304Y-111159582D01*
X211904843Y-111155486D01*
X211910253Y-111143792D01*
X211918686Y-111134506D01*
X211929079Y-111112785D01*
X211935939Y-111097870D01*
X211946287Y-111089101D01*
X211949004Y-111088661D01*
X211956104Y-111077873D01*
X211960281Y-111066810D01*
X211973803Y-111044410D01*
X211991901Y-111018748D01*
X212009592Y-110996812D01*
X212021893Y-110985592D01*
X212024357Y-110983857D01*
X212029788Y-110969312D01*
X212030466Y-110964306D01*
X212038084Y-110948113D01*
X212055902Y-110923065D01*
X212086078Y-110885966D01*
X212107314Y-110856917D01*
X212126080Y-110822298D01*
X212136013Y-110792343D01*
X212134683Y-110772716D01*
X212132791Y-110768301D01*
X212136923Y-110750076D01*
X212157946Y-110724043D01*
X212161746Y-110720150D01*
X212181500Y-110702242D01*
X212194270Y-110698099D01*
X212205643Y-110705557D01*
X212224578Y-110718363D01*
X212247147Y-110716742D01*
X212276523Y-110698245D01*
X212306134Y-110667714D01*
X212325267Y-110625479D01*
X212329443Y-110572704D01*
X212319265Y-110506688D01*
X212313163Y-110476757D01*
X212309450Y-110448496D01*
X212310257Y-110434008D01*
X212310616Y-110433367D01*
X212310759Y-110415796D01*
X212302212Y-110392261D01*
X212289233Y-110371633D01*
X212276080Y-110362785D01*
X212264865Y-110369586D01*
X212255052Y-110389543D01*
X212251066Y-110401758D01*
X212239412Y-110412474D01*
X212215378Y-110412565D01*
X212182420Y-110408830D01*
X212176130Y-110272650D01*
X212174580Y-110240494D01*
X212169352Y-110144366D01*
X212162974Y-110040502D01*
X212155844Y-109934659D01*
X212148360Y-109832588D01*
X212140921Y-109740046D01*
X212133925Y-109662785D01*
X212131053Y-109632647D01*
X212129053Y-109610154D01*
X212292946Y-109610154D01*
X212293252Y-109614349D01*
X212301941Y-109625615D01*
X212317221Y-109619212D01*
X212319888Y-109614830D01*
X212316597Y-109601329D01*
X212302851Y-109594364D01*
X212298300Y-109596141D01*
X212292946Y-109610154D01*
X212129053Y-109610154D01*
X212125512Y-109570330D01*
X212120541Y-109509528D01*
X212116952Y-109459953D01*
X212115969Y-109446376D01*
X212111903Y-109407841D01*
X212107010Y-109379681D01*
X212102142Y-109367226D01*
X212101952Y-109367093D01*
X212097408Y-109353783D01*
X212094176Y-109325562D01*
X212092946Y-109288337D01*
X212091671Y-109249496D01*
X212088230Y-109216288D01*
X212083382Y-109196853D01*
X212082500Y-109194697D01*
X212078019Y-109173474D01*
X212072930Y-109136477D01*
X212067607Y-109087997D01*
X212062428Y-109032323D01*
X212057769Y-108973747D01*
X212054004Y-108916559D01*
X212051511Y-108865049D01*
X212050664Y-108823507D01*
X212049637Y-108791430D01*
X212045437Y-108740377D01*
X212039074Y-108691928D01*
X212033903Y-108648424D01*
X212036169Y-108602171D01*
X212049890Y-108570932D01*
X212075549Y-108552870D01*
X212100065Y-108548478D01*
X212141231Y-108552864D01*
X212183209Y-108567259D01*
X212217312Y-108589424D01*
X212219790Y-108591682D01*
X212244006Y-108610565D01*
X212263999Y-108621506D01*
X212273821Y-108626151D01*
X212282420Y-108637179D01*
X212282860Y-108639896D01*
X212293648Y-108646996D01*
X212296822Y-108647597D01*
X212315086Y-108656713D01*
X212339379Y-108673312D01*
X212347262Y-108679183D01*
X212368965Y-108693782D01*
X212381241Y-108699628D01*
X212382586Y-108699898D01*
X212396524Y-108708662D01*
X212416982Y-108725943D01*
X212421031Y-108729621D01*
X212441201Y-108745721D01*
X212453809Y-108752259D01*
X212455239Y-108752335D01*
X212464436Y-108755936D01*
X212479988Y-108767286D01*
X212506469Y-108789630D01*
X212507096Y-108790162D01*
X212522780Y-108802353D01*
X212549702Y-108822387D01*
X212582420Y-108846208D01*
X212600685Y-108860168D01*
X212645343Y-108898414D01*
X212695553Y-108945479D01*
X212746168Y-108996279D01*
X212792041Y-109045732D01*
X212828025Y-109088754D01*
X212834149Y-109096623D01*
X212855509Y-109122913D01*
X212871893Y-109141510D01*
X212883460Y-109154398D01*
X212905019Y-109179917D01*
X212929788Y-109210279D01*
X212950353Y-109235759D01*
X212968308Y-109257652D01*
X212977216Y-109268049D01*
X212977730Y-109268602D01*
X212987635Y-109281091D01*
X213005977Y-109305260D01*
X213029228Y-109336470D01*
X213032618Y-109341034D01*
X213055919Y-109371286D01*
X213074440Y-109393496D01*
X213084432Y-109403136D01*
X213087097Y-109404880D01*
X213092946Y-109419416D01*
X213096345Y-109431818D01*
X213108574Y-109452750D01*
X213114813Y-109461044D01*
X213137515Y-109492083D01*
X213164123Y-109529367D01*
X213191940Y-109569003D01*
X213218269Y-109607100D01*
X213223509Y-109614830D01*
X213240415Y-109639767D01*
G37*
%TD*%
M02*
