%TF.GenerationSoftware,KiCad,Pcbnew,10.0.0*%
%TF.CreationDate,2026-04-17T11:27:27+07:00*%
%TF.ProjectId,drone,64726f6e-652e-46b6-9963-61645f706362,rev?*%
%TF.SameCoordinates,Original*%
%TF.FileFunction,Soldermask,Top*%
%TF.FilePolarity,Negative*%
%FSLAX46Y46*%
G04 Gerber Fmt 4.6, Leading zero omitted, Abs format (unit mm)*
G04 Created by KiCad (PCBNEW 10.0.0) date 2026-04-17 11:27:27*
%MOMM*%
%LPD*%
G01*
G04 APERTURE LIST*
G04 Aperture macros list*
%AMRoundRect*
0 Rectangle with rounded corners*
0 $1 Rounding radius*
0 $2 $3 $4 $5 $6 $7 $8 $9 X,Y pos of 4 corners*
0 Add a 4 corners polygon primitive as box body*
4,1,4,$2,$3,$4,$5,$6,$7,$8,$9,$2,$3,0*
0 Add four circle primitives for the rounded corners*
1,1,$1+$1,$2,$3*
1,1,$1+$1,$4,$5*
1,1,$1+$1,$6,$7*
1,1,$1+$1,$8,$9*
0 Add four rect primitives between the rounded corners*
20,1,$1+$1,$2,$3,$4,$5,0*
20,1,$1+$1,$4,$5,$6,$7,0*
20,1,$1+$1,$6,$7,$8,$9,0*
20,1,$1+$1,$8,$9,$2,$3,0*%
G04 Aperture macros list end*
%ADD10RoundRect,0.250000X-0.337500X-0.475000X0.337500X-0.475000X0.337500X0.475000X-0.337500X0.475000X0*%
%ADD11C,2.500000*%
%ADD12RoundRect,0.250000X-0.450000X0.350000X-0.450000X-0.350000X0.450000X-0.350000X0.450000X0.350000X0*%
%ADD13RoundRect,0.249999X-1.550001X1.250001X-1.550001X-1.250001X1.550001X-1.250001X1.550001X1.250001X0*%
%ADD14RoundRect,0.250000X-0.475000X0.337500X-0.475000X-0.337500X0.475000X-0.337500X0.475000X0.337500X0*%
%ADD15R,1.500000X1.500000*%
%ADD16R,2.500000X2.500000*%
%ADD17RoundRect,0.250000X0.350000X0.450000X-0.350000X0.450000X-0.350000X-0.450000X0.350000X-0.450000X0*%
%ADD18RoundRect,0.250000X0.450000X-0.350000X0.450000X0.350000X-0.450000X0.350000X-0.450000X-0.350000X0*%
%ADD19C,3.500000*%
%ADD20RoundRect,0.250000X-0.350000X-0.450000X0.350000X-0.450000X0.350000X0.450000X-0.350000X0.450000X0*%
%ADD21RoundRect,0.102000X-0.395000X-0.140000X0.395000X-0.140000X0.395000X0.140000X-0.395000X0.140000X0*%
%ADD22RoundRect,0.102000X-0.140000X-0.395000X0.140000X-0.395000X0.140000X0.395000X-0.140000X0.395000X0*%
%ADD23RoundRect,0.102000X-1.000000X-0.450000X1.000000X-0.450000X1.000000X0.450000X-1.000000X0.450000X0*%
%ADD24RoundRect,0.102000X-0.450000X-1.000000X0.450000X-1.000000X0.450000X1.000000X-0.450000X1.000000X0*%
%ADD25RoundRect,0.102000X-0.665000X-0.665000X0.665000X-0.665000X0.665000X0.665000X-0.665000X0.665000X0*%
%ADD26C,0.504000*%
%ADD27RoundRect,0.250000X0.475000X-0.337500X0.475000X0.337500X-0.475000X0.337500X-0.475000X-0.337500X0*%
%ADD28RoundRect,0.250000X-0.275000X-0.750000X0.275000X-0.750000X0.275000X0.750000X-0.275000X0.750000X0*%
%ADD29RoundRect,0.250000X0.750000X-0.275000X0.750000X0.275000X-0.750000X0.275000X-0.750000X-0.275000X0*%
%ADD30RoundRect,0.150000X0.150000X-0.820000X0.150000X0.820000X-0.150000X0.820000X-0.150000X-0.820000X0*%
%ADD31R,3.510000X2.620000*%
%ADD32R,1.700000X1.700000*%
%ADD33C,1.700000*%
G04 APERTURE END LIST*
D10*
%TO.C,C1*%
X196962500Y-72500000D03*
X199037500Y-72500000D03*
%TD*%
D11*
%TO.C,GND*%
X236500000Y-109500000D03*
%TD*%
D12*
%TO.C,R9*%
X218500000Y-111500000D03*
X218500000Y-113500000D03*
%TD*%
D13*
%TO.C,L1*%
X227500000Y-112600000D03*
X227500000Y-118400000D03*
%TD*%
D14*
%TO.C,C6*%
X220500000Y-95925000D03*
X220500000Y-98000000D03*
%TD*%
D11*
%TO.C,TP10*%
X232500000Y-93500000D03*
%TD*%
D10*
%TO.C,C3*%
X201462500Y-72500000D03*
X203537500Y-72500000D03*
%TD*%
D11*
%TO.C,VCC*%
X195500000Y-109500000D03*
%TD*%
D15*
%TO.C,S2*%
X195500000Y-105500000D03*
%TD*%
D12*
%TO.C,R11*%
X218500000Y-119000000D03*
X218500000Y-121000000D03*
%TD*%
D16*
%TO.C,GND*%
X226000000Y-122500000D03*
%TD*%
D17*
%TO.C,R8*%
X209500000Y-117500000D03*
X207500000Y-117500000D03*
%TD*%
D15*
%TO.C,S3*%
X233000000Y-105500000D03*
%TD*%
D18*
%TO.C,R4*%
X214500000Y-96000000D03*
X214500000Y-94000000D03*
%TD*%
D19*
%TO.C,H1*%
X191500000Y-74500000D03*
%TD*%
D18*
%TO.C,R3*%
X211000000Y-96000000D03*
X211000000Y-94000000D03*
%TD*%
D15*
%TO.C,S1*%
X195500000Y-90500000D03*
%TD*%
D20*
%TO.C,R7*%
X207500000Y-111500000D03*
X209500000Y-111500000D03*
%TD*%
D15*
%TO.C,S4*%
X233000000Y-89500000D03*
%TD*%
%TO.C,TP17*%
X236000000Y-89500000D03*
%TD*%
D21*
%TO.C,U2*%
X213530000Y-98750000D03*
X213530000Y-99250000D03*
X213530000Y-99750000D03*
X213530000Y-100250000D03*
X213530000Y-100750000D03*
X213530000Y-101250000D03*
D22*
X214250000Y-101970000D03*
X214750000Y-101970000D03*
X215250000Y-101970000D03*
X215750000Y-101970000D03*
X216250000Y-101970000D03*
X216750000Y-101970000D03*
D21*
X217470000Y-101250000D03*
X217470000Y-100750000D03*
X217470000Y-100250000D03*
X217470000Y-99750000D03*
X217470000Y-99250000D03*
X217470000Y-98750000D03*
D22*
X216750000Y-98030000D03*
X216250000Y-98030000D03*
X215750000Y-98030000D03*
X215250000Y-98030000D03*
X214750000Y-98030000D03*
X214250000Y-98030000D03*
%TD*%
D11*
%TO.C,GND*%
X191000000Y-109500000D03*
%TD*%
%TO.C,VCC*%
X232500000Y-109500000D03*
%TD*%
D19*
%TO.C,H4*%
X236000000Y-120500000D03*
%TD*%
D11*
%TO.C,GND*%
X191000000Y-94000000D03*
%TD*%
D23*
%TO.C,U1*%
X206665000Y-71165000D03*
X206665000Y-72435000D03*
X206665000Y-73705000D03*
X206665000Y-74975000D03*
X206665000Y-76245000D03*
X206665000Y-77515000D03*
X206665000Y-78785000D03*
X206665000Y-80055000D03*
X206665000Y-81325000D03*
X206665000Y-82595000D03*
X206665000Y-83865000D03*
X206665000Y-85135000D03*
X206665000Y-86405000D03*
X206665000Y-87675000D03*
D24*
X209450000Y-88675000D03*
X210720000Y-88675000D03*
X211990000Y-88675000D03*
X213260000Y-88675000D03*
X214530000Y-88675000D03*
X215800000Y-88675000D03*
X217070000Y-88675000D03*
X218340000Y-88675000D03*
X219610000Y-88675000D03*
X220880000Y-88675000D03*
D23*
X223665000Y-87675000D03*
X223665000Y-86405000D03*
X223665000Y-85135000D03*
X223665000Y-83865000D03*
X223665000Y-82595000D03*
X223665000Y-81325000D03*
X223665000Y-80055000D03*
X223665000Y-78785000D03*
X223665000Y-77515000D03*
X223665000Y-76245000D03*
X223665000Y-74975000D03*
X223665000Y-73705000D03*
X223665000Y-72435000D03*
X223665000Y-71165000D03*
D25*
X212330000Y-76830000D03*
X214165000Y-76830000D03*
X216000000Y-76830000D03*
X212330000Y-78665000D03*
X214165000Y-78665000D03*
X216000000Y-78665000D03*
X212330000Y-80500000D03*
X214165000Y-80500000D03*
X216000000Y-80500000D03*
D26*
X213247500Y-76830000D03*
X215082500Y-76830000D03*
X212330000Y-77747500D03*
X214165000Y-77747500D03*
X216000000Y-77747500D03*
X213247500Y-78665000D03*
X215082500Y-78665000D03*
X212330000Y-79582500D03*
X214165000Y-79582500D03*
X216000000Y-79582500D03*
X213247500Y-80500000D03*
X215082500Y-80500000D03*
%TD*%
D20*
%TO.C,R10*%
X218500000Y-116500000D03*
X220500000Y-116500000D03*
%TD*%
D15*
%TO.C,LED*%
X193000000Y-90500000D03*
%TD*%
D19*
%TO.C,H2*%
X236000000Y-74500000D03*
%TD*%
D27*
%TO.C,C11*%
X215500000Y-113537500D03*
X215500000Y-111462500D03*
%TD*%
D15*
%TO.C,LED*%
X192500000Y-105500000D03*
%TD*%
D11*
%TO.C,VCC*%
X195500000Y-94000000D03*
%TD*%
D19*
%TO.C,H3*%
X191500000Y-120500000D03*
%TD*%
D28*
%TO.C,EN*%
X196050000Y-80000000D03*
X200500000Y-80000000D03*
%TD*%
D10*
%TO.C,C2*%
X196962500Y-75500000D03*
X199037500Y-75500000D03*
%TD*%
D15*
%TO.C,LED*%
X236000000Y-105500000D03*
%TD*%
D29*
%TO.C,BOOT*%
X237500000Y-84950000D03*
X237500000Y-80500000D03*
%TD*%
D14*
%TO.C,C13*%
X203567500Y-81500000D03*
X203567500Y-83575000D03*
%TD*%
%TO.C,C8*%
X210000000Y-100925000D03*
X210000000Y-103000000D03*
%TD*%
%TO.C,C12*%
X222500000Y-116462500D03*
X222500000Y-118537500D03*
%TD*%
D30*
%TO.C,U3*%
X212720000Y-121480000D03*
X213990000Y-121480000D03*
X215260000Y-121480000D03*
X216530000Y-121480000D03*
X216530000Y-116520000D03*
X215260000Y-116520000D03*
X213990000Y-116520000D03*
X212720000Y-116520000D03*
D31*
X214625000Y-119000000D03*
%TD*%
D10*
%TO.C,C5*%
X214962500Y-106500000D03*
X217037500Y-106500000D03*
%TD*%
D16*
%TO.C,VCC*%
X201500000Y-122500000D03*
%TD*%
D17*
%TO.C,R2*%
X209500000Y-114000000D03*
X207500000Y-114000000D03*
%TD*%
D11*
%TO.C,GND*%
X236500000Y-93500000D03*
%TD*%
D27*
%TO.C,C10*%
X209500000Y-123000000D03*
X209500000Y-120925000D03*
%TD*%
D32*
%TO.C,UART*%
X230000000Y-72000000D03*
D33*
X230000000Y-74540000D03*
X230000000Y-77080000D03*
%TD*%
D14*
%TO.C,C7*%
X221000000Y-100962500D03*
X221000000Y-103037500D03*
%TD*%
D20*
%TO.C,R1*%
X201500000Y-75500000D03*
X203500000Y-75500000D03*
%TD*%
D27*
%TO.C,C9*%
X212500000Y-113537500D03*
X212500000Y-111462500D03*
%TD*%
M02*
